<svg width="51" height="45" viewBox="0 0 51 45" fill="none" xmlns="http://www.w3.org/2000/svg">
<path d="M50.1908 1.01178L48.9709 9.83816C46.3698 9.62975 44.303 10.0743 42.7705 11.1718C41.238 12.2692 40.1973 13.8208 39.6483 15.8264C39.0994 17.832 38.9907 20.1212 39.3224 22.6939H50.1908V44.545H29.191V21.8426C29.191 14.4072 30.9457 8.77638 34.4549 4.95007C37.9642 1.12375 43.2095 -0.189014 50.1908 1.01178ZM21.6696 1.01178L20.4498 9.83816C17.8486 9.62975 15.7818 10.0743 14.2494 11.1718C12.7169 12.2692 11.6764 13.8208 11.1279 15.8264C10.5794 17.832 10.4705 20.1212 10.8013 22.6939H21.6696V44.545H0.669922V21.8426C0.669922 14.4072 2.42478 8.77638 5.93449 4.95007C9.4442 1.12375 14.6892 -0.189014 21.6696 1.01178Z" fill="#3B82F6"/>
</svg>
