<svg width="33" height="33" viewBox="0 0 33 33" fill="none" xmlns="http://www.w3.org/2000/svg">
<path d="M23.7786 26.4296H12.0311C11.7379 26.4296 11.5 26.1917 11.5 25.8984V12.2065C11.5 12.0663 11.5553 11.9304 11.655 11.8305L14.5802 8.90735C14.678 8.80957 14.8138 8.75232 14.9542 8.75232H23.7786C24.0719 8.75232 24.3077 8.99023 24.3077 9.28339V25.8984C24.3077 26.1917 24.0719 26.4296 23.7786 26.4296ZM12.5601 25.3673H23.2476V9.81464H15.1731L12.5601 12.4254V25.3673Z" fill="#3B82F6"/>
<path d="M12.0308 12.7378C11.8947 12.7378 11.7587 12.6845 11.6545 12.5804C11.4485 12.3744 11.4485 12.0389 11.6545 11.8305L14.5797 8.90744C14.786 8.69931 15.1215 8.69931 15.3298 8.90744C15.536 9.11557 15.536 9.45126 15.3298 9.65732L12.4047 12.5804C12.3004 12.6845 12.1665 12.7378 12.0308 12.7378Z" fill="#3B82F6"/>
<path d="M14.9542 12.7396L12.0311 12.7377C11.7379 12.7357 11.5 12.4977 11.5 12.2065C11.5 11.9134 11.7379 11.6755 12.0311 11.6755L14.425 11.6796V9.28339C14.425 8.99023 14.6609 8.75232 14.9542 8.75232C15.2472 8.75232 15.4852 8.99023 15.4852 9.28339V12.2109C15.4852 12.3511 15.4301 12.487 15.3302 12.5869C15.2303 12.6844 15.0944 12.7396 14.9542 12.7396Z" fill="#3B82F6"/>
<path d="M21.9967 12.9671H17.0681C16.7753 12.9671 16.5371 12.7292 16.5371 12.436C16.5371 12.1428 16.7753 11.9071 17.0681 11.9071H21.9967C22.2899 11.9071 22.528 12.1428 22.528 12.436C22.528 12.7292 22.2899 12.9671 21.9967 12.9671Z" fill="#3B82F6"/>
<path d="M21.9978 15.028H13.8082C13.5172 15.028 13.2793 14.792 13.2793 14.4988C13.2793 14.2057 13.5172 13.9678 13.8082 13.9678H21.9978C22.2909 13.9678 22.5289 14.2057 22.5289 14.4988C22.5289 14.792 22.2909 15.028 21.9978 15.028Z" fill="#3B82F6"/>
<path d="M21.9978 17.0905H13.8082C13.5172 17.0905 13.2793 16.8526 13.2793 16.5595C13.2793 16.2664 13.5172 16.0284 13.8082 16.0284H21.9978C22.2909 16.0284 22.5289 16.2664 22.5289 16.5595C22.5289 16.8526 22.2909 17.0905 21.9978 17.0905Z" fill="#3B82F6"/>
<path d="M21.9978 19.1514H13.8082C13.5172 19.1514 13.2793 18.9156 13.2793 18.6226C13.2793 18.3292 13.5172 18.0913 13.8082 18.0913H21.9978C22.2909 18.0913 22.5289 18.3292 22.5289 18.6226C22.5289 18.9156 22.2909 19.1514 21.9978 19.1514Z" fill="#3B82F6"/>
<path d="M21.9978 21.2141H13.8082C13.5172 21.2141 13.2793 20.9762 13.2793 20.683C13.2793 20.3899 13.5172 20.152 13.8082 20.152H21.9978C22.2909 20.152 22.5289 20.3899 22.5289 20.683C22.5289 20.9762 22.2909 21.2141 21.9978 21.2141Z" fill="#3B82F6"/>
<path d="M21.9978 23.275H13.8082C13.5172 23.275 13.2793 23.037 13.2793 22.7439C13.2793 22.4506 13.5172 22.2147 13.8082 22.2147H21.9978C22.2909 22.2147 22.5289 22.4506 22.5289 22.7439C22.5289 23.037 22.2909 23.275 21.9978 23.275Z" fill="#3B82F6"/>
<path d="M10.2037 24.0353H9.07971C8.78687 24.0353 8.55078 23.7974 8.55078 23.5042V6.89124C8.55078 6.59814 8.78687 6.36023 9.07971 6.36023H20.8276C21.1207 6.36023 21.3586 6.59814 21.3586 6.89124V7.75806C21.3586 8.05115 21.1207 8.28906 20.8276 8.28906C20.5343 8.28906 20.2987 8.05115 20.2987 7.75806V7.42029H9.61096V22.9752H10.2037C10.4989 22.9752 10.7347 23.2111 10.7347 23.5042C10.7347 23.7974 10.4989 24.0353 10.2037 24.0353Z" fill="#3B82F6"/>
<path d="M16.428 32.4841C10.0168 32.4841 4.22362 28.6835 1.66576 22.8033C1.54894 22.5355 1.67235 22.2231 1.94212 22.1064C2.21178 21.9875 2.52184 22.1128 2.6389 22.3805C5.02672 27.8743 10.4396 31.4221 16.428 31.4221C24.7131 31.4221 31.4558 24.6813 31.4558 16.3939C31.4558 8.1087 24.7131 1.36566 16.428 1.36566C10.7751 1.36566 5.66185 4.50763 3.08934 9.46198L5.14781 8.80548C5.42809 8.71613 5.72557 8.86926 5.8148 9.14746C5.90392 9.42798 5.74889 9.72528 5.47069 9.8147L2.25438 10.8428C2.05675 10.9066 1.8402 10.8493 1.70189 10.6961C1.562 10.5432 1.52355 10.3222 1.60411 10.1311C4.13023 4.16351 9.94652 0.305664 16.428 0.305664C25.2995 0.305664 32.516 7.52435 32.516 16.3939C32.516 25.2654 25.2995 32.4841 16.428 32.4841Z" fill="#3B82F6"/>
<path d="M2.09265 10.8681C1.88013 10.8681 1.68042 10.7429 1.59961 10.5324L0.378298 7.44166C0.271975 7.1695 0.405764 6.86152 0.677859 6.75324C0.949587 6.6471 1.25757 6.77863 1.36609 7.05262L2.58533 10.1439C2.69373 10.4158 2.55994 10.7238 2.28589 10.832C2.22425 10.8576 2.15625 10.8681 2.09265 10.8681Z" fill="#3B82F6"/>
</svg>
