<svg width="32" height="32" viewBox="0 0 32 32" fill="none" xmlns="http://www.w3.org/2000/svg">
<path d="M20.3145 31.332C20.1829 31.332 20.0534 31.2831 19.9528 31.1903L17.4865 28.9175C16.3752 29.0089 15.2598 28.9549 14.1615 28.7571L11.488 30.7868C11.3103 30.9221 11.0651 30.9314 10.8776 30.8105L5.37101 27.2712C5.18253 27.1504 5.08976 26.9245 5.13932 26.7059L5.87431 23.4348C5.55717 22.9759 5.26798 22.4947 5.01493 22.0028C4.76163 21.5108 4.53715 20.9972 4.34745 20.4722L1.25687 19.1733C1.05045 19.0862 0.920326 18.8798 0.930214 18.6561L1.24247 12.1182C1.25321 11.8946 1.40287 11.7011 1.61662 11.6342L4.82072 10.6345C5.29691 9.62469 5.90018 8.68462 6.61881 7.83303L6.19889 4.50579C6.17069 4.28359 6.28434 4.0671 6.48356 3.96496L12.3014 0.965721C12.4993 0.863578 12.7416 0.895225 12.907 1.04772L15.3733 3.32052C16.4839 3.23064 17.6 3.28384 18.6984 3.48168L21.3725 1.45196C21.5502 1.31673 21.794 1.30736 21.9823 1.42821L27.4889 4.96688C27.6774 5.0884 27.7702 5.31426 27.7205 5.53292L26.9856 8.80398C27.3025 9.2629 27.592 9.74331 27.8449 10.2353C28.0989 10.728 28.3233 11.2422 28.5124 11.7666L31.6031 13.0655C31.8095 13.1518 31.9403 13.3582 31.9296 13.5827L31.6173 20.1205C31.6066 20.3442 31.4571 20.5377 31.2433 20.6038L28.0392 21.6043C27.563 22.6134 26.9595 23.5534 26.2411 24.4057L26.661 27.7329C26.6899 27.9552 26.5755 28.1709 26.377 28.2738L20.5584 31.2723C20.4814 31.3119 20.3973 31.332 20.3145 31.332ZM17.6735 27.8322C17.8073 27.8322 17.9361 27.8818 18.0354 27.9732L20.4015 30.1539L25.557 27.497L25.153 24.3043C25.1342 24.1525 25.1808 24.0001 25.2815 23.8857C26.0534 23.0054 26.6878 22.0171 27.1674 20.9476C27.23 20.8081 27.3494 20.7024 27.4955 20.6563L30.5702 19.6976L30.8464 13.9041L27.881 12.6577C27.7408 12.5987 27.6319 12.4822 27.5832 12.3376C27.3947 11.7838 27.1639 11.2408 26.8977 10.7237C26.6309 10.2072 26.3223 9.70452 25.9806 9.22909C25.8915 9.10537 25.8599 8.94927 25.893 8.80111L26.5985 5.66235L21.7199 2.52648L19.1536 4.4742C19.0321 4.56698 18.8774 4.60293 18.7272 4.57198C17.5771 4.34258 16.4034 4.28503 15.2403 4.40444C15.0899 4.42025 14.9368 4.36919 14.8245 4.26565L12.4583 2.08486L7.30289 4.74172L7.70695 7.93447C7.72575 8.0855 7.67887 8.23797 7.5789 8.35302C6.80729 9.23269 6.17216 10.2209 5.69242 11.2912C5.6298 11.4307 5.51041 11.5364 5.36442 11.5817L2.28971 12.5412L2.01359 18.3346L4.97892 19.5811C5.11918 19.6401 5.22782 19.7559 5.27726 19.9004C5.46574 20.455 5.69682 20.998 5.9622 21.5144C6.22904 22.0308 6.53678 22.5343 6.87907 23.009C6.9683 23.1327 7.00004 23.2888 6.96696 23.4376L6.26139 26.5757L11.1399 29.7115L13.7062 27.7645C13.8277 27.6718 13.9838 27.6358 14.1327 27.666C15.2828 27.8955 16.4558 27.9523 17.6204 27.8343C17.6382 27.8329 17.6562 27.8322 17.6735 27.8322Z" fill="#3B82F6"/>
<path d="M8.88867 22.261V9.45422H9.92065L17.3376 20.4377V9.45422H18.3689V22.261H17.3376L9.92065 11.2603V22.261H8.88867Z" fill="#3B82F6"/>
<path d="M21.0822 17.4586L24.0259 10.2814H20.3262V9.45422H24.9509V10.2814L22.0242 17.4586H21.0822Z" fill="#3B82F6"/>
</svg>
