<svg id="Product_Info_Sheets" data-name="Product Info Sheets" xmlns="http://www.w3.org/2000/svg" width="23.521" height="29.465" viewBox="0 0 23.521 29.465">
  <g id="Group_2964" data-name="Group 2964" transform="translate(0.25 0.25)">
    <path id="Path_19899" data-name="Path 19899" d="M4240.372,2389.595l-.023,0c-.341.036-.7.009-1.048.022l-1.981-.029-6.369.029-6.758.029h-2.084c-.355-.015-.728.006-1.08-.025a1.928,1.928,0,0,1-1.073-.428l-.075-.065c-.024-.022-.048-.045-.071-.069s-.046-.047-.067-.072-.044-.05-.064-.075-.041-.052-.061-.078-.039-.053-.057-.081-.036-.055-.053-.083-.033-.057-.048-.086-.031-.058-.044-.088-.027-.06-.04-.09-.024-.061-.035-.092-.021-.062-.031-.094-.018-.063-.026-.1-.016-.064-.021-.1-.012-.065-.017-.1-.009-.065-.012-.1c-.018-.2-.012-.394-.022-.59l.028-.892-.028-2.808.028-9.063-.057-7.861.029-2.688v-.9a4.442,4.442,0,0,1,0-.559,2.044,2.044,0,0,1,.457-1.109,1.97,1.97,0,0,1,1.362-.674c.231-.017.473,0,.705,0,.392,0,.784,0,1.176,0l4.261.029,5.169-.029h1.719c.326-.005.657-.017.983,0a.55.55,0,0,1,.05.032,5.786,5.786,0,0,1,.635.627l1.762,1.766,3.294,3.3q.368.369.744.729c.192.184.392.364.568.563a.253.253,0,0,1,.08.124,5.419,5.419,0,0,1,0,.745l.029,1.6-.029,5.728.029,8.1v2.517c-.012.411.016.854-.019,1.262a1.98,1.98,0,0,1-.411,1.026A2.044,2.044,0,0,1,4240.372,2389.595Zm-19.342-28.428a1.506,1.506,0,0,0-1.053.569,1.4,1.4,0,0,0-.305.719,3.1,3.1,0,0,0,0,.521l-.029.886.029,2.892v5.1c0,.242.007.741.007.741h1.713l.029-6.1v-2.161s-.042-.871-.024-1.3a.7.7,0,0,1,.046-.271c.032-.042.167-.054.22-.059.207-.019.425-.005.632-.029l1.175.029h7.636c1.2-.013,3.618-.009,3.618-.009v-1.536s-2.113,0-3.165,0l-5.456.029-3.378-.029h-1.052C4221.458,2361.158,4221.242,2361.152,4221.03,2361.167Zm14.149.305v3.862c.017.31.016.621.013.931a3.649,3.649,0,0,0,.013.6c0,.023.008.046.013.069s.012.045.019.068.016.044.024.066.019.043.029.064.022.041.034.062.025.04.039.059.028.037.043.055.031.035.047.052a.9.9,0,0,0,.487.258,1.851,1.851,0,0,0,.575-.013l.969.029h3.775a.167.167,0,0,1,.068-.011l-4.159-4.158-1.387-1.4A4.817,4.817,0,0,0,4235.18,2361.472Zm-5.592,1.686h-5.211c-.837.006-2.528.008-2.528.008v24.017l10,.029h4.484c1.06,0,2.12-.015,3.18,0l0-19.12h-2.476a7.4,7.4,0,0,1-1.283-.032,1.365,1.365,0,0,1-.631-.371,1.3,1.3,0,0,1-.356-.611,8.476,8.476,0,0,1-.04-1.478v-2.436s-1.8-.012-2.7-.033Zm10.4,4.918c-.023.743,0,1.493,0,2.237s-.018,1.488,0,2.23q.864,0,1.726,0c.032-.517.008-1.049.007-1.567l-.005-2.9c-.3-.016-.61-.01-.914-.011C4240.528,2368.07,4240.257,2368.064,4239.989,2368.075Zm0,4.91q-.01,3.062.01,6.125v7.4a4.646,4.646,0,0,1-.05,1.093c-.116.11-.344.077-.491.074-.836-.016-1.674,0-2.51,0-1.239-.006-2.479,0-3.717,0l-6.606.029h-4.427s-.333.005-.494-.009a.353.353,0,0,1-.229-.083.319.319,0,0,1-.062-.2c-.022-.659,0-1.324-.02-1.984l.029-3.478v-5.63c-.03-1.086-.019-3.265-.019-3.265h-1.73l.029,3.144-.029,8.216v2.305a10.983,10.983,0,0,0,.03,1.16c0,.02.008.04.011.059s.008.039.013.059.01.039.015.058.012.038.018.057.013.038.02.057.015.038.022.056.015.037.023.055l.026.054.029.053c.009.017.02.035.03.052s.021.034.033.051.022.033.034.05.023.032.036.048.024.031.038.047l.039.045.042.044a1.429,1.429,0,0,0,.834.43,5.868,5.868,0,0,0,.756.013c.374,0,1.122-.031,1.122-.031l4.177.029h13.027a1.792,1.792,0,0,0,1.265-.5,1.554,1.554,0,0,0,.409-.833,2.726,2.726,0,0,0,0-.67l.029-.923v-2.769l-.024-10.469Z" transform="translate(-4219.182 -2360.683)" fill="#3b82f6"/>
    <path id="Path_19899_-_Outline" data-name="Path 19899 - Outline" d="M4224.193,2389.9h-2.1c-.14-.006-.282-.006-.431-.006-.217,0-.441,0-.66-.02a2.19,2.19,0,0,1-1.21-.484l-.083-.072c-.029-.027-.055-.052-.081-.078s-.052-.054-.076-.081-.05-.056-.074-.086-.044-.055-.066-.085-.044-.062-.065-.093-.039-.059-.058-.091-.039-.067-.056-.1-.032-.061-.05-.1-.029-.065-.044-.1-.027-.068-.04-.1-.024-.07-.034-.1-.021-.071-.029-.106-.018-.074-.025-.111-.012-.068-.018-.1-.01-.076-.014-.113c-.011-.123-.013-.245-.016-.362,0-.082,0-.159-.007-.236v-.022l.028-.886-.028-2.8.028-9.066-.057-7.858.029-2.693v-.889a4.581,4.581,0,0,1,0-.585,2.3,2.3,0,0,1,.516-1.25,2.209,2.209,0,0,1,1.533-.762c.082-.006.17-.009.272-.009.086,0,.173,0,.259,0l.2,0q.286,0,.571,0c.214,0,.41,0,.6,0h.005l4.261.029,5.166-.029h1.72l.178,0c.137,0,.279-.005.42-.005s.279,0,.4.01l.058,0,.05.028a.732.732,0,0,1,.072.046,3.164,3.164,0,0,1,.477.452c.065.072.128.14.19.2l5.057,5.071c.237.238.486.482.74.726l.123.116c.154.146.313.3.459.46l.013.014a.436.436,0,0,1,.129.247,3.7,3.7,0,0,1,.007.6c0,.06-.005.12-.007.178l.029,1.6-.029,5.728.029,8.1v2.526c0,.156,0,.314,0,.482,0,.262,0,.533-.018.794a2.236,2.236,0,0,1-.461,1.157,2.3,2.3,0,0,1-1.568.871h-.009l-.023,0a4.849,4.849,0,0,1-.5.021h-.326c-.093,0-.167,0-.235,0h-.013l-1.981-.029Zm-1.817-.5h1.815l.611,0-1.957-.013Zm-2.1-.89.032.033a1.174,1.174,0,0,0,.689.361,2.677,2.677,0,0,0,.329.017l.215,0,.18,0c.366,0,1.106-.031,1.114-.031h.011l4.177.029h13.021a1.561,1.561,0,0,0,1.089-.429,1.3,1.3,0,0,0,.34-.693,2.464,2.464,0,0,0,0-.608l0-.018v-.018l.029-.919v-2.765l-.024-10.22-1.236,0c-.005,1.95,0,3.924.011,5.872v7.4c.043,1.116-.056,1.211-.128,1.279a.658.658,0,0,1-.465.15c-.045,0-.091,0-.133,0l-.069,0c-.3-.006-.625-.009-1.017-.009l-.8,0-.689,0c-.923,0-1.861,0-2.767,0h-.951l-6.6.029h-4.566c-.168,0-.295,0-.377-.011a.586.586,0,0,1-.4-.171.57.57,0,0,1-.121-.353c-.012-.367-.012-.739-.013-1.1,0-.292,0-.594-.007-.888v-.008l.029-3.478v-5.625c-.023-.86-.021-2.414-.02-3.019h-1.227l.026,2.891-.029,8.219v2.3c0,.118,0,.25,0,.39a5.219,5.219,0,0,0,.025.731v.005c0,.017.007.034.01.052s.006.03.01.044.008.035.013.052l.009.031.006.017c.005.016.011.032.017.048s.011.029.018.043l0,.007c.005.014.011.027.017.041l.022.045.009.017.016.03.017.03.008.015c.008.012.015.024.023.036l.007.01.023.035c.012.017.021.029.031.042s.02.026.03.037l.006.007Zm1.389-1.076a.478.478,0,0,0,.061.009c.065.006.184.009.333.009h4.892Zm.436-.5,9.747.028h4.484l.916,0c.412,0,.823,0,1.235,0,.281,0,.538,0,.779,0l0-18.617h-2.226c-.076,0-.168,0-.27,0-.129,0-.276.007-.42.007a2.952,2.952,0,0,1-.652-.051,1.618,1.618,0,0,1-.75-.437,1.541,1.541,0,0,1-.423-.731,5.667,5.667,0,0,1-.052-1.209c0-.119.005-.232.005-.325v-2.187c-.526,0-1.76-.015-2.454-.032l-2.426.029h-5.214c-.636,0-1.776.007-2.278.008Zm-2.175-14.594h1.217l.028-5.848v-2.154c0-.084-.041-.895-.024-1.319a.718.718,0,0,1,.1-.416.531.531,0,0,1,.4-.154c.1-.009.208-.011.308-.013s.217,0,.316-.015l.018,0h.018l1.172.029h7.633c.707-.008,1.834-.01,2.655-.01h.713V2361.4l-2.915,0-5.455.029-3.381-.029h-1.045c-.086,0-.173,0-.257,0-.127,0-.247,0-.366.01a1.255,1.255,0,0,0-.881.478,1.147,1.147,0,0,0-.25.592,2.637,2.637,0,0,0,0,.436l0,.062-.029.881.029,2.887v5.1C4219.919,2371.977,4219.921,2372.179,4219.923,2372.34Zm20.62-.049.927,0c.009-.285,0-.577,0-.861,0-.152,0-.3,0-.454l0-2.656c-.109,0-.215,0-.311,0h-.918c-.008.432,0,.871,0,1.3q0,.348,0,.695c0,.284,0,.573,0,.852,0,.37-.007.751,0,1.128Zm-5.005-5.229.028.042c.009.013.021.027.032.041s.02.023.032.035a.654.654,0,0,0,.353.188,1.594,1.594,0,0,0,.5-.014l.022,0h.022l.965.029h3.247l-3.744-3.743-1.388-1.4c-.04-.04-.09-.1-.149-.159l-.026-.028v3.274c.017.32.016.64.013.94,0,.046,0,.092,0,.139a2.379,2.379,0,0,0,.013.418c0,.016.006.033.01.051s.009.034.014.051.011.029.017.046l.022.048Z" transform="translate(-4219.182 -2360.683)" fill="#3b82f6"/>
  </g>
  <g id="Group_2965" data-name="Group 2965" transform="translate(4.921 5.047)">
    <path id="Path_19900" data-name="Path 19900" d="M4273.965,2415.319c-.364.023-.736.006-1.1.007a5.135,5.135,0,0,1-.751-.009.234.234,0,0,1-.166-.1.207.207,0,0,1-.018-.163.307.307,0,0,1,.16-.2c.221,0,1.765-.023,1.858.008a.278.278,0,0,1,.165.143.206.206,0,0,1,.01.163A.251.251,0,0,1,4273.965,2415.319Z" transform="translate(-4271.919 -2414.853)" fill="#3b82f6"/>
    <path id="Path_19900_-_Outline" data-name="Path 19900 - Outline" d="M4272.41,2415.585a2.184,2.184,0,0,1-.335-.022.476.476,0,0,1-.34-.21.454.454,0,0,1-.049-.356.555.555,0,0,1,.268-.347l.062-.039h.073l.294,0c.263,0,.623-.006.937-.006a2.728,2.728,0,0,1,.7.028.53.53,0,0,1,.313.273.456.456,0,0,1,.018.358.5.5,0,0,1-.291.287l-.04.017-.043,0c-.136.009-.282.013-.461.013l-.321,0-.312,0h-.022c-.067,0-.137,0-.208,0S4272.493,2415.585,4272.41,2415.585Z" transform="translate(-4271.919 -2414.853)" fill="#3b82f6"/>
  </g>
  <g id="Group_2966" data-name="Group 2966" transform="translate(8.342 5.042)">
    <path id="Path_19901" data-name="Path 19901" d="M4312.562,2415.262c-.385.022-.783,0-1.169,0a3.771,3.771,0,0,1-.639-.008.255.255,0,0,1-.181-.1.23.23,0,0,1-.018-.179.3.3,0,0,1,.174-.169c.224-.008,1.713-.031,1.859.009l.02.006.019.009.018.01.017.012.016.014.014.016.012.017.011.018a.27.27,0,0,1,.016.2A.276.276,0,0,1,4312.562,2415.262Z" transform="translate(-4310.544 -2414.788)" fill="#3b82f6"/>
    <path id="Path_19901_-_Outline" data-name="Path 19901 - Outline" d="M4311,2415.523a1.568,1.568,0,0,1-.289-.023.489.489,0,0,1-.349-.221.479.479,0,0,1-.044-.38.543.543,0,0,1,.3-.321l.049-.025.055,0c.124,0,.66-.014,1.136-.014a3.68,3.68,0,0,1,.8.032.378.378,0,0,1,.046.015l.043.02a.4.4,0,0,1,.044.026l.035.026c.011.01.023.02.034.031a.4.4,0,0,1,.031.034l.005.007c.009.011.017.022.024.033s.013.021.021.034a.522.522,0,0,1,.033.4.515.515,0,0,1-.3.3l-.044.021-.048,0c-.125.007-.263.011-.421.011-.135,0-.271,0-.4-.005s-.242,0-.361,0h0c-.059,0-.119,0-.182,0S4311.069,2415.523,4311,2415.523Z" transform="translate(-4310.544 -2414.788)" fill="#3b82f6"/>
  </g>
  <g id="Group_2967" data-name="Group 2967" transform="translate(11.717 5.04)">
    <path id="Path_19902" data-name="Path 19902" d="M4350.685,2415.238c-.251.01-1.721.035-1.865-.008a.226.226,0,0,1-.147-.116.24.24,0,0,1,0-.185.259.259,0,0,1,.162-.15c.2-.01,1.747-.023,1.844.007a.258.258,0,0,1,.165.134.2.2,0,0,1,.008.163A.276.276,0,0,1,4350.685,2415.238Z" transform="translate(-4348.655 -2414.767)" fill="#3b82f6"/>
    <path id="Path_19902_-_Outline" data-name="Path 19902 - Outline" d="M4349.525,2415.5a3.267,3.267,0,0,1-.775-.034.472.472,0,0,1-.3-.251.492.492,0,0,1-.007-.377.508.508,0,0,1,.292-.29l.044-.02.048,0c.121-.006.635-.011,1.058-.011a4.011,4.011,0,0,1,.873.03.5.5,0,0,1,.318.269.448.448,0,0,1,.014.358.521.521,0,0,1-.3.294l-.042.018-.047,0C4350.548,2415.493,4350,2415.5,4349.525,2415.5Z" transform="translate(-4348.655 -2414.767)" fill="#3b82f6"/>
  </g>
  <g id="Group_2968" data-name="Group 2968" transform="translate(8.347 6.738)">
    <path id="Path_19903" data-name="Path 19903" d="M4312.632,2434.411c-.317.019-.642,0-.96,0-.256,0-.518.02-.773.007a.452.452,0,0,1-.157-.034.212.212,0,0,1-.124-.128.269.269,0,0,1,.023-.2.263.263,0,0,1,.168-.116q.6.007,1.2,0a3.23,3.23,0,0,1,.643.014.193.193,0,0,1,.137.094.231.231,0,0,1,.022.185A.283.283,0,0,1,4312.632,2434.411Z" transform="translate(-4310.609 -2433.937)" fill="#3b82f6"/>
    <path id="Path_19903_-_Outline" data-name="Path 19903 - Outline" d="M4311.09,2434.675c-.074,0-.141,0-.2,0a.7.7,0,0,1-.245-.054.461.461,0,0,1-.262-.282.517.517,0,0,1,.044-.395.511.511,0,0,1,.309-.232l.039-.012h.041c.4,0,.8.005,1.189,0,.052,0,.105,0,.16,0s.136,0,.206,0a1.621,1.621,0,0,1,.332.029.44.44,0,0,1,.3.213.478.478,0,0,1,.043.393.529.529,0,0,1-.308.317l-.043.019-.046,0c-.108.006-.224.009-.363.009l-.3,0c-.1,0-.2,0-.294,0h-.014c-.091,0-.182,0-.278.006S4311.192,2434.675,4311.09,2434.675Z" transform="translate(-4310.609 -2433.937)" fill="#3b82f6"/>
  </g>
  <g id="Group_2969" data-name="Group 2969" transform="translate(11.716 6.74)">
    <path id="Path_19904" data-name="Path 19904" d="M4350.683,2434.419c-.342.026-.7,0-1.042,0-.158,0-.317,0-.476,0-.086,0-.176.013-.261.007a.336.336,0,0,1-.114-.029.25.25,0,0,1-.133-.141.2.2,0,0,1,.008-.164.266.266,0,0,1,.172-.131c.418.017.842.01,1.262.008a2.446,2.446,0,0,1,.586.01.226.226,0,0,1,.148.106.255.255,0,0,1,.007.191A.248.248,0,0,1,4350.683,2434.419Z" transform="translate(-4348.644 -2433.962)" fill="#3b82f6"/>
    <path id="Path_19904_-_Outline" data-name="Path 19904 - Outline" d="M4348.954,2434.683l-.067,0a.587.587,0,0,1-.2-.051.5.5,0,0,1-.264-.282.451.451,0,0,1,.021-.365.51.51,0,0,1,.324-.255l.039-.011.041,0c.185.007.382.01.638.01l.613,0c.047,0,.1,0,.156-.006s.135-.007.206-.007a1.118,1.118,0,0,1,.29.032.472.472,0,0,1,.306.232.5.5,0,0,1,.022.388.49.49,0,0,1-.3.285l-.038.016-.041,0c-.118.009-.244.013-.4.013-.113,0-.227,0-.337,0s-.217,0-.322,0h-.216l-.261,0-.087,0C4349.041,2434.68,4349,2434.683,4348.954,2434.683Z" transform="translate(-4348.644 -2433.962)" fill="#3b82f6"/>
  </g>
  <g id="Group_2970" data-name="Group 2970" transform="translate(4.918 6.747)">
    <path id="Path_19905" data-name="Path 19905" d="M4273.949,2434.513c-.353.016-.711,0-1.064,0a4.968,4.968,0,0,1-.832-.015.2.2,0,0,1-.13-.09.261.261,0,0,1-.021-.192.258.258,0,0,1,.144-.161c.361-.023.734-.007,1.1-.007a4.826,4.826,0,0,1,.8.016.192.192,0,0,1,.125.1.245.245,0,0,1,.023.187A.237.237,0,0,1,4273.949,2434.513Z" transform="translate(-4271.893 -2434.044)" fill="#3b82f6"/>
    <path id="Path_19905_-_Outline" data-name="Path 19905 - Outline" d="M4272.4,2434.777a1.905,1.905,0,0,1-.4-.031.445.445,0,0,1-.289-.205.5.5,0,0,1,.218-.7l.048-.026.055,0c.137-.009.286-.013.468-.013l.323,0,.313,0h.008c.051,0,.115,0,.184,0,.086,0,.184-.005.278-.005a1.787,1.787,0,0,1,.394.031.443.443,0,0,1,.288.227.49.49,0,0,1,.043.376.483.483,0,0,1-.266.307l-.049.025-.055,0c-.125.006-.26.008-.424.008l-.314,0-.307,0h-.029l-.19,0C4272.6,2434.774,4272.5,2434.777,4272.4,2434.777Z" transform="translate(-4271.893 -2434.044)" fill="#3b82f6"/>
  </g>
  <g id="Group_2971" data-name="Group 2971" transform="translate(15.14 8.401)">
    <path id="Path_19906" data-name="Path 19906" d="M4389.474,2453.175c-.364.028-.744.008-1.11.008a5.69,5.69,0,0,1-.883-.013.226.226,0,0,1-.154-.1.24.24,0,0,1-.016-.184.258.258,0,0,1,.142-.145c.353-.024.72-.006,1.074-.007a6.663,6.663,0,0,1,.947.014.194.194,0,0,1,.119.1.226.226,0,0,1,.022.179A.222.222,0,0,1,4389.474,2453.175Z" transform="translate(-4387.3 -2452.72)" fill="#3b82f6"/>
    <path id="Path_19906_-_Outline" data-name="Path 19906 - Outline" d="M4387.835,2453.444a2.109,2.109,0,0,1-.4-.029.475.475,0,0,1-.321-.224.492.492,0,0,1-.037-.387.5.5,0,0,1,.26-.286l.048-.026.055,0c.131-.009.274-.013.449-.013l.313,0,.3,0h.028l.193,0c.117,0,.25-.006.378-.006a1.985,1.985,0,0,1,.437.031.44.44,0,0,1,.278.221.474.474,0,0,1,.041.378.462.462,0,0,1-.271.3l-.043.021-.047,0c-.138.01-.289.015-.474.015-.108,0-.216,0-.324,0s-.208,0-.311,0h-.02c-.061,0-.133,0-.211,0C4388.054,2453.441,4387.942,2453.444,4387.835,2453.444Z" transform="translate(-4387.3 -2452.72)" fill="#3b82f6"/>
  </g>
  <g id="Group_2972" data-name="Group 2972" transform="translate(4.927 8.418)">
    <path id="Path_19907" data-name="Path 19907" d="M4272.107,2453.372a.349.349,0,0,1-.11-.182.218.218,0,0,1,.031-.174.252.252,0,0,1,.2-.094h1.132a5.6,5.6,0,0,1,.586,0,.4.4,0,0,1,.164.048.178.178,0,0,1,.089.123.3.3,0,0,1-.054.213.256.256,0,0,1-.2.078q-.576,0-1.152,0A6.892,6.892,0,0,1,4272.107,2453.372Z" transform="translate(-4271.991 -2452.911)" fill="#3b82f6"/>
    <path id="Path_19907_-_Outline" data-name="Path 19907 - Outline" d="M4272.437,2453.636a3.465,3.465,0,0,1-.355-.015l-.083-.009-.061-.056a.591.591,0,0,1-.186-.316.464.464,0,0,1,.073-.37.5.5,0,0,1,.375-.2l.03,0h1.132c.057,0,.117,0,.177-.005s.148-.005.224-.005a2.1,2.1,0,0,1,.21.009.633.633,0,0,1,.269.084.424.424,0,0,1,.2.291.54.54,0,0,1-.109.42.492.492,0,0,1-.363.165h-.021q-.577,0-1.155,0C4272.68,2453.633,4272.558,2453.636,4272.437,2453.636Z" transform="translate(-4271.991 -2452.911)" fill="#3b82f6"/>
  </g>
  <g id="Group_2973" data-name="Group 2973" transform="translate(11.714 8.423)">
    <path id="Path_19908" data-name="Path 19908" d="M4349.091,2453.429c-.127,0-.311.03-.409-.068a.243.243,0,0,1,0-.329.246.246,0,0,1,.15-.057,4.678,4.678,0,0,1,.533-.006q.493,0,.986,0c.127,0,.308-.032.411.061a.224.224,0,0,1,.009.325.224.224,0,0,1-.128.061,3.525,3.525,0,0,1-.579.012Z" transform="translate(-4348.62 -2452.961)" fill="#3b82f6"/>
    <path id="Path_19908_-_Outline" data-name="Path 19908 - Outline" d="M4348.931,2453.685a.579.579,0,0,1-.425-.146.493.493,0,0,1,.01-.688.486.486,0,0,1,.293-.123,2.219,2.219,0,0,1,.254-.012l.166,0c.171,0,.336,0,.5,0l.622,0,.054,0c.038,0,.078,0,.119,0a.591.591,0,0,1,.407.131.474.474,0,0,1,.018.69.468.468,0,0,1-.263.129,1.812,1.812,0,0,1-.3.022c-.058,0-.116,0-.173,0l-.143,0-.974,0-.051,0C4349.007,2453.683,4348.969,2453.685,4348.931,2453.685Z" transform="translate(-4348.62 -2452.961)" fill="#3b82f6"/>
  </g>
  <g id="Group_2974" data-name="Group 2974" transform="translate(8.354 8.436)">
    <path id="Path_19909" data-name="Path 19909" d="M4312.7,2453.572a10.9,10.9,0,0,1-1.137,0,3.616,3.616,0,0,1-.7-.007.234.234,0,0,1-.16-.105.224.224,0,0,1-.013-.184.24.24,0,0,1,.147-.148c.227-.017,1.728-.03,1.86.009a.26.26,0,0,1,.166.128.224.224,0,0,1-.007.181A.263.263,0,0,1,4312.7,2453.572Z" transform="translate(-4310.677 -2453.115)" fill="#3b82f6"/>
    <path id="Path_19909_-_Outline" data-name="Path 19909 - Outline" d="M4311.114,2453.842a1.446,1.446,0,0,1-.3-.027.482.482,0,0,1-.324-.225.47.47,0,0,1-.034-.387.483.483,0,0,1,.278-.3l.042-.02.046,0c.125-.01.582-.017,1.02-.017a4.248,4.248,0,0,1,.931.036.5.5,0,0,1,.322.264.469.469,0,0,1-.007.389.5.5,0,0,1-.29.248l-.034.014-.036,0a3.988,3.988,0,0,1-.438.02c-.129,0-.26,0-.387-.007s-.231-.006-.339-.007c-.065,0-.133,0-.2.007S4311.2,2453.842,4311.114,2453.842Z" transform="translate(-4310.677 -2453.115)" fill="#3b82f6"/>
  </g>
  <g id="Group_2975" data-name="Group 2975" transform="translate(4.93 10.279)">
    <path id="Path_19910" data-name="Path 19910" d="M4285.6,2474.36c-.29.027-.6.007-.894.007l-1.776.029-5.378-.029-3.791.029h-1.025a3.422,3.422,0,0,1-.513-.01.232.232,0,0,1-.148-.083.226.226,0,0,1-.045-.2c.024-.082.087-.117.159-.154.364-.029.749-.006,1.115-.007h2.212l7.549-.006c.3,0,2.434-.027,2.565.018a.176.176,0,0,1,.112.109.219.219,0,0,1,0,.185A.225.225,0,0,1,4285.6,2474.36Z" transform="translate(-4272.023 -2473.923)" fill="#3b82f6"/>
    <path id="Path_19910_-_Outline" data-name="Path 19910 - Outline" d="M4272.456,2474.648a1.7,1.7,0,0,1-.271-.018.481.481,0,0,1-.395-.6.5.5,0,0,1,.284-.309l.045-.023.05,0c.133-.01.278-.016.455-.016.114,0,.229,0,.342,0s.219,0,.326,0h2.224l7.549-.006.309,0c.3,0,.761-.006,1.185-.006a4.978,4.978,0,0,1,1.153.04.423.423,0,0,1,.262.25.458.458,0,0,1-.288.632l-.03.011-.032,0c-.111.01-.231.015-.378.015-.092,0-.186,0-.278,0s-.175,0-.26,0l-1.778.029-5.378-.029-3.788.029h-1.028l-.131,0Z" transform="translate(-4272.023 -2473.923)" fill="#3b82f6"/>
  </g>
  <g id="Group_2976" data-name="Group 2976" transform="translate(4.916 12.128)">
    <path id="Path_19911" data-name="Path 19911" d="M4276.3,2495.257l-2.851.029-.849,0c-.158,0-.321.011-.478,0a.36.36,0,0,1-.194-.053.188.188,0,0,1-.072-.14.263.263,0,0,1,.072-.2.243.243,0,0,1,.165-.071c.292-.025.676,0,.979,0l1.938-.029h6.184l2.831.029h.869c.165,0,.333-.007.5.005a.239.239,0,0,1,.143.044.205.205,0,0,1,.075.156.168.168,0,0,1-.055.134.387.387,0,0,1-.224.066c-.245.011-.5-.005-.741,0l-1.909.029Z" transform="translate(-4271.857 -2494.798)" fill="#3b82f6"/>
    <path id="Path_19911_-_Outline" data-name="Path 19911 - Outline" d="M4272.287,2495.545c-.067,0-.125,0-.179-.005a.6.6,0,0,1-.328-.1.441.441,0,0,1-.171-.322.511.511,0,0,1,.142-.39.487.487,0,0,1,.323-.146c.1-.008.209-.012.347-.012.115,0,.232,0,.346.005s.209,0,.3,0l1.938-.029h6.188l2.833.029h.867l.266,0c.1,0,.177,0,.25.008a.483.483,0,0,1,.282.1.452.452,0,0,1,.167.346.414.414,0,0,1-.145.33.606.606,0,0,1-.373.124c-.137.006-.31,0-.475,0-.089,0-.178,0-.266,0h-.011l-1.905.029H4276.3l-2.848.029-.85,0-.136,0Z" transform="translate(-4271.857 -2494.798)" fill="#3b82f6"/>
  </g>
  <g id="Group_2977" data-name="Group 2977" transform="translate(4.944 14.009)">
    <path id="Path_19912" data-name="Path 19912" d="M4272.345,2516.5a.327.327,0,0,1-.131-.113.234.234,0,0,1-.025-.183.257.257,0,0,1,.155-.154c.434-.017.871-.006,1.3-.007h1.975a4.763,4.763,0,0,1,.881.018.239.239,0,0,1,.153.114.233.233,0,0,1,0,.184.254.254,0,0,1-.146.134c-.23.016-.465.008-.7.009H4273.2C4272.914,2516.5,4272.629,2516.51,4272.345,2516.5Z" transform="translate(-4272.18 -2516.031)" fill="#3b82f6"/>
    <path id="Path_19912_-_Outline" data-name="Path 19912 - Outline" d="M4272.721,2516.756c-.15,0-.273,0-.386-.007l-.062,0-.054-.031a.56.56,0,0,1-.221-.2.482.482,0,0,1-.047-.387.5.5,0,0,1,.286-.3l.046-.022.051,0c.172-.007.362-.01.6-.01l.688,0h2.018c.053,0,.125,0,.2,0,.1,0,.212-.007.32-.007a1.5,1.5,0,0,1,.42.041.454.454,0,0,1,.311.627.492.492,0,0,1-.269.268l-.044.022-.05,0c-.138.01-.273.011-.376.011l-.325,0H4273.2Z" transform="translate(-4272.18 -2516.031)" fill="#3b82f6"/>
  </g>
  <g id="Group_2978" data-name="Group 2978" transform="translate(10.923 13.982)">
    <path id="Path_19913" data-name="Path 19913" d="M4347.241,2516.192c-.2.017-.409.01-.612.01l-1.064.029-3.15-.029-1.7,0a5.612,5.612,0,0,1-.863-.01.216.216,0,0,1-.134-.1.253.253,0,0,1-.021-.205.262.262,0,0,1,.154-.14c.563-.032,1.139-.006,1.7-.007l3.332.029h1.658a4.358,4.358,0,0,1,.693.01.173.173,0,0,1,.125.082.239.239,0,0,1,.022.174A.283.283,0,0,1,4347.241,2516.192Z" transform="translate(-4339.688 -2515.734)" fill="#3b82f6"/>
    <path id="Path_19913_-_Outline" data-name="Path 19913 - Outline" d="M4345.567,2516.48h0l-3.15-.029-1.693,0c-.055,0-.124,0-.2.005-.1,0-.224.007-.336.007a1.893,1.893,0,0,1-.379-.028.464.464,0,0,1-.3-.218.478.478,0,0,1,.238-.7l.046-.023.051,0c.2-.011.411-.016.669-.016.176,0,.354,0,.526,0s.344,0,.514,0h.008l3.334.029h1.656c.055,0,.118,0,.182,0s.157-.005.237-.005a1.768,1.768,0,0,1,.32.023.42.42,0,0,1,.295.2.491.491,0,0,1,.048.366.528.528,0,0,1-.262.3l-.049.029-.057,0c-.13.011-.26.012-.359.012h-.271Z" transform="translate(-4339.688 -2515.734)" fill="#3b82f6"/>
  </g>
  <g id="Group_2979" data-name="Group 2979" transform="translate(4.994 15.597)">
    <path id="Path_19914" data-name="Path 19914" d="M4280.6,2541.76c-.605.015-1.214,0-1.819,0h-5.039c-.218-.018-.574.012-.777-.028a.262.262,0,0,1-.172-.115.491.491,0,0,1-.039-.219c-.006-.25,0-.753,0-.753l.029-2v-2.813a9.893,9.893,0,0,1-.011-1.7.271.271,0,0,1,.168-.148c.312-.018.633,0,.945-.025l1.889.029,3.252,0c.459,0,.919-.011,1.378,0a.493.493,0,0,1,.186.024.284.284,0,0,1,.142.141,11.594,11.594,0,0,1,.021,1.334l.009,4.589a14.306,14.306,0,0,1-.021,1.579A.229.229,0,0,1,4280.6,2541.76Zm-7.383-7.3v2.974h1.3c.182.018.386-.006.565.017a.268.268,0,0,1,.154.06.225.225,0,0,1,.065.179.237.237,0,0,1-.068.173.243.243,0,0,1-.149.06,4.375,4.375,0,0,1-.652,0h-1.186l0,3.354,2.063,0c.385,0,.773.011,1.158,0q0-.61-.006-1.221a4.2,4.2,0,0,1,.007-.652.28.28,0,0,1,.068-.149.191.191,0,0,1,.142-.058.268.268,0,0,1,.2.087.559.559,0,0,1,.044.061c0,.643-.012,1.294.021,1.936,1.1.01,2.21.016,3.313,0,.027-.379.01-.768.011-1.148l0-2.19c-.641,0-1.289-.02-1.928.008a.294.294,0,0,1-.169-.178.221.221,0,0,1,.012-.182.25.25,0,0,1,.159-.108,2.366,2.366,0,0,1,.51-.016l.87,0a5,5,0,0,0,.567-.013c.02-.518,0-1.039,0-1.557,0-.475.022-.962,0-1.436-.4-.018-.8-.007-1.2-.007h-2.136v1.289a3.756,3.756,0,0,1-.017.579.221.221,0,0,1-.061.13.251.251,0,0,1-.187.069l-.025,0-.024,0-.024-.007-.022-.01-.022-.012-.021-.014-.019-.016c-.009-.009-.018-.019-.026-.029a.2.2,0,0,1-.036-.088,4.106,4.106,0,0,1-.011-.611c0-.422,0-.844,0-1.266C4275.375,2534.448,4274.3,2534.46,4273.222,2534.462Z" transform="translate(-4272.748 -2533.967)" fill="#3b82f6"/>
  </g>
  <g id="Group_2980" data-name="Group 2980" transform="translate(14.02 15.843)">
    <path id="Path_19915" data-name="Path 19915" d="M4379.069,2537.214l-2.924,0q-.357,0-.717,0c-.153,0-.311.014-.465.007a.552.552,0,0,1-.208-.042.214.214,0,0,1-.09-.124.217.217,0,0,1,.023-.182.276.276,0,0,1,.2-.13c.822-.011,1.645,0,2.467,0,.555,0,1.119-.022,1.673,0a.348.348,0,0,1,.166.031.214.214,0,0,1,.088.136.23.23,0,0,1,0,.026c0,.009,0,.017,0,.026a.159.159,0,0,1,0,.026.339.339,0,0,1-.01.051l-.009.025-.011.023c0,.008-.009.015-.015.022A.241.241,0,0,1,4379.069,2537.214Z" transform="translate(-4374.655 -2536.743)" fill="#3b82f6"/>
    <path id="Path_19915_-_Outline" data-name="Path 19915 - Outline" d="M4375.074,2537.479c-.041,0-.082,0-.122,0a.783.783,0,0,1-.308-.068.477.477,0,0,1-.17-.657.527.527,0,0,1,.366-.248l.024-.005h.024c.211,0,.438,0,.691,0,.3,0,.6,0,.9,0s.584,0,.876,0c.184,0,.374,0,.557-.005s.378,0,.568,0c.208,0,.391,0,.558.01h.016a.518.518,0,0,1,.28.073.458.458,0,0,1,.191.284.394.394,0,0,1,.008.041l0,.03c0,.013,0,.023,0,.033a.421.421,0,0,1,0,.055.4.4,0,0,1-.007.052.413.413,0,0,1-.016.061c0,.011-.009.024-.014.037l0,.005c-.006.014-.013.028-.02.041l-.011.018c-.008.013-.015.024-.022.034a.489.489,0,0,1-.343.2l-.035,0-2.924,0h-.2l-.513,0-.143,0C4375.218,2537.477,4375.146,2537.479,4375.074,2537.479Z" transform="translate(-4374.655 -2536.743)" fill="#3b82f6"/>
  </g>
  <g id="Group_2981" data-name="Group 2981" transform="translate(6.062 16.644)">
    <path id="Path_19916" data-name="Path 19916" d="M4285.294,2546.284q-.007.374,0,.748a2.57,2.57,0,0,1-.01.538.279.279,0,0,1-.118.188.207.207,0,0,1-.174,0,.237.237,0,0,1-.153-.115c-.035-.082-.033-1.454-.022-1.635a.3.3,0,0,1,.024-.1.217.217,0,0,1,.136-.11c.294-.018.6,0,.895,0a5.781,5.781,0,0,1,.818.016.249.249,0,0,1,.188.1.254.254,0,0,1,.039.184.289.289,0,0,1-.148.167,8.877,8.877,0,0,1-1.094.013A1.907,1.907,0,0,0,4285.294,2546.284Z" transform="translate(-4284.808 -2545.789)" fill="#3b82f6"/>
  </g>
  <g id="Group_2982" data-name="Group 2982" transform="translate(9.723 16.638)">
    <path id="Path_19917" data-name="Path 19917" d="M4327.9,2546.217q-.466,0-.932,0a4.586,4.586,0,0,1-.588,0,.284.284,0,0,1-.208-.1.182.182,0,0,1-.031-.067.3.3,0,0,1,.049-.238.2.2,0,0,1,.16-.073c.361-.012.724,0,1.084,0,.219,0,.443-.017.661,0a.471.471,0,0,1,.153.031.126.126,0,0,1,.068.087.71.71,0,0,1,.038.189,9.8,9.8,0,0,1-.032,1.578c-.033.053-.109.068-.164.083a.214.214,0,0,1-.245-.162.068.068,0,0,1,0-.017,2.573,2.573,0,0,1-.01-.443Z" transform="translate(-4326.138 -2545.721)" fill="#3b82f6"/>
  </g>
  <g id="Group_2983" data-name="Group 2983" transform="translate(7.147 17.627)">
    <path id="Path_19918" data-name="Path 19918" d="M4297.54,2557.458a1.5,1.5,0,0,1-.01.209.237.237,0,0,1-.091.171.265.265,0,0,1-.193.035.205.205,0,0,1-.129-.1,1.6,1.6,0,0,1-.021-.74c.022-.067.1-.1.156-.131a2.708,2.708,0,0,1,.7.02.214.214,0,0,1,.137.113.327.327,0,0,1,0,.219c-.1.223-.383.068-.525.147C4297.541,2557.413,4297.543,2557.438,4297.54,2557.458Z" transform="translate(-4297.062 -2556.891)" fill="#3b82f6"/>
  </g>
  <g id="Group_2984" data-name="Group 2984" transform="translate(9.679 17.631)">
    <path id="Path_19919" data-name="Path 19919" d="M4326.385,2557.44a3.008,3.008,0,0,1-.542-.019.254.254,0,0,1-.169-.124.256.256,0,0,1,.151-.36,7.883,7.883,0,0,1,.867.008.248.248,0,0,1,.136.138,1.3,1.3,0,0,1-.007.708.219.219,0,0,1-.141.116.3.3,0,0,1-.229-.07C4326.361,2557.744,4326.385,2557.561,4326.385,2557.44Z" transform="translate(-4325.646 -2556.929)" fill="#3b82f6"/>
  </g>
  <g id="Group_2985" data-name="Group 2985" transform="translate(14.059 17.675)">
    <path id="Path_19920" data-name="Path 19920" d="M4376.814,2557.909q-.483,0-.965,0a4.979,4.979,0,0,1-.516,0,.261.261,0,0,1-.141-.049l-.021-.018-.018-.02-.017-.022-.014-.023a.2.2,0,0,1-.012-.024.22.22,0,0,1-.008-.025.163.163,0,0,1-.006-.026.285.285,0,0,1,0-.05.154.154,0,0,1,.019-.072.306.306,0,0,1,.225-.13,6.953,6.953,0,0,1,.87-.007l1.718,0c.472,0,.948-.017,1.419,0a.327.327,0,0,1,.256.08.245.245,0,0,1,.049.2.277.277,0,0,1-.141.18c-.326.023-.662.008-.989.007Z" transform="translate(-4375.093 -2557.435)" fill="#3b82f6"/>
    <path id="Path_19920_-_Outline" data-name="Path 19920 - Outline" d="M4375.494,2558.173c-.068,0-.128,0-.184-.008a.509.509,0,0,1-.271-.1l-.034-.029-.011-.01-.031-.034c-.011-.012-.021-.026-.031-.04l-.01-.016c-.008-.012-.013-.022-.019-.032a.427.427,0,0,1-.024-.051.363.363,0,0,1-.016-.046.4.4,0,0,1-.014-.058.517.517,0,0,1-.007-.091.412.412,0,0,1,.051-.195.539.539,0,0,1,.4-.254,2.3,2.3,0,0,1,.359-.021c.11,0,.227,0,.33.006.082,0,.159,0,.222,0l1.716,0,.329,0c.211,0,.429-.006.645-.006.166,0,.313,0,.453.005a.556.556,0,0,1,.439.167.491.491,0,0,1,.107.4.516.516,0,0,1-.243.346l-.057.041-.07,0c-.128.009-.267.013-.437.013l-.294,0-.275,0h-1.954c-.229,0-.468,0-.713,0l-.153,0C4375.632,2558.17,4375.563,2558.173,4375.494,2558.173Z" transform="translate(-4375.093 -2557.435)" fill="#3b82f6"/>
  </g>
  <g id="Group_2986" data-name="Group 2986" transform="translate(14.035 19.513)">
    <path id="Path_19921" data-name="Path 19921" d="M4379.237,2578.649h-2.749c-.452,0-.917.024-1.369,0a.379.379,0,0,1-.171-.036.235.235,0,0,1-.11-.151.227.227,0,0,1,.042-.175.261.261,0,0,1,.192-.1c.865-.021,1.735,0,2.6,0h1.045c.146,0,.3-.016.442-.009a.494.494,0,0,1,.163.031.193.193,0,0,1,.115.109.3.3,0,0,1-.035.231A.261.261,0,0,1,4379.237,2578.649Z" transform="translate(-4374.834 -2578.178)" fill="#3b82f6"/>
    <path id="Path_19921_-_Outline" data-name="Path 19921 - Outline" d="M4375.554,2578.911c-.167,0-.312,0-.446-.01a.6.6,0,0,1-.282-.069.487.487,0,0,1-.231-.315.473.473,0,0,1,.081-.372.51.51,0,0,1,.354-.206l.019,0h.019c.248-.006.516-.009.82-.009s.627,0,.934.006c.28,0,.57.005.854.006h1.044c.052,0,.106,0,.16-.005.095,0,.194-.008.295,0a.737.737,0,0,1,.245.05.437.437,0,0,1,.255.254.545.545,0,0,1-.057.447.5.5,0,0,1-.307.208l-.034.01h-2.785c-.149,0-.3,0-.453.006S4375.714,2578.911,4375.554,2578.911Z" transform="translate(-4374.834 -2578.178)" fill="#3b82f6"/>
  </g>
  <g id="Group_2987" data-name="Group 2987" transform="translate(9.659 20.03)">
    <path id="Path_19922" data-name="Path 19922" d="M4327.25,2585.833a16.228,16.228,0,0,1,.014-1.672c.024-.076.089-.108.154-.145a.264.264,0,0,1,.2.051.458.458,0,0,1,.083.288c.016.329,0,.664,0,.993,0,.237.025.488,0,.723a.253.253,0,0,1-.055.158.285.285,0,0,1-.147.076,3.544,3.544,0,0,1-.626.014h-1.2a.325.325,0,0,1-.157-.04.237.237,0,0,1-.109-.158.3.3,0,0,1,.064-.226.431.431,0,0,1,.2-.061,5.26,5.26,0,0,1,.559,0Z" transform="translate(-4325.416 -2584.015)" fill="#3b82f6"/>
  </g>
  <g id="Group_2988" data-name="Group 2988" transform="translate(9.672 20.086)">
    <path id="Path_19923" data-name="Path 19923" d="M4326.331,2585.373a1.923,1.923,0,0,1,.019-.574.21.21,0,0,1,.322-.111.32.32,0,0,1,.113.221c.022.184.04.775-.091.9a2.769,2.769,0,0,1-.849.05.267.267,0,0,1-.186-.054.337.337,0,0,1-.093-.21.158.158,0,0,1,.046-.117C4325.763,2585.321,4326.126,2585.373,4326.331,2585.373Z" transform="translate(-4325.566 -2584.652)" fill="#3b82f6"/>
  </g>
  <g id="Group_2989" data-name="Group 2989" transform="translate(6.062 20.101)">
    <path id="Path_19924" data-name="Path 19924" d="M4286.786,2587.048c-.2.026-1.647.021-1.811-.01a.159.159,0,0,1-.12-.076.308.308,0,0,1-.039-.139c-.026-.311-.006-.639-.006-.951a5.753,5.753,0,0,1,.018-.885c.021-.084.081-.119.151-.161a.592.592,0,0,1,.075,0,.234.234,0,0,1,.187.066.224.224,0,0,1,.05.14,5.081,5.081,0,0,1,.006.559l0,.99c.313.005.628,0,.942,0a2.349,2.349,0,0,1,.537.018l.024.008.023.01.022.012.021.014.019.016.018.018.016.02.014.021a.2.2,0,0,1,.022.161A.291.291,0,0,1,4286.786,2587.048Z" transform="translate(-4284.802 -2584.821)" fill="#3b82f6"/>
  </g>
  <g id="Group_2990" data-name="Group 2990" transform="translate(7.142 20.1)">
    <path id="Path_19925" data-name="Path 19925" d="M4297.938,2586a3.662,3.662,0,0,1-.791,0,.1.1,0,0,1-.072-.051.436.436,0,0,1-.055-.167,4.261,4.261,0,0,1,0-.836c.022-.066.08-.092.135-.126.017,0,.035,0,.052,0a.263.263,0,0,1,.189.073c.125.133.072.472.072.649a1.933,1.933,0,0,1,.387.01.279.279,0,0,1,.193.109.236.236,0,0,1,.024.182A.28.28,0,0,1,4297.938,2586Z" transform="translate(-4297.001 -2584.814)" fill="#3b82f6"/>
  </g>
</svg>
