<svg width="30" height="30" viewBox="0 0 30 30" fill="none" xmlns="http://www.w3.org/2000/svg">
<path d="M4.37356 12.8677C4.33682 12.8677 4.29959 12.8636 4.26272 12.8557C3.99746 12.7936 3.83352 12.5304 3.89615 12.2653C4.18655 11.0195 4.67581 9.83594 5.35049 8.75012C5.4927 8.52051 5.7969 8.44995 6.02676 8.59241C6.25686 8.73682 6.32718 9.03894 6.18496 9.26892C5.5668 10.2626 5.11844 11.3468 4.85135 12.4894C4.79861 12.7156 4.59805 12.8677 4.37356 12.8677Z" fill="#3B82F6"/>
<path d="M5.76773 21.4485C5.60403 21.4485 5.444 21.3667 5.35049 21.2167C4.67764 20.1326 4.18655 18.9494 3.89615 17.7C3.83352 17.4348 3.99746 17.1716 4.26272 17.1095C4.52383 17.049 4.79104 17.2127 4.85135 17.4758C5.11844 18.6221 5.5668 19.7057 6.18496 20.7001C6.32718 20.9299 6.25686 21.2322 6.02676 21.3766C5.9468 21.4252 5.85733 21.4485 5.76773 21.4485Z" fill="#3B82F6"/>
<path d="M18.0356 26.5331C17.8134 26.5331 17.6106 26.3809 17.5582 26.1547C17.4958 25.8915 17.6594 25.6268 17.9227 25.5642C19.0688 25.2933 20.1547 24.845 21.1468 24.2268C21.377 24.0847 21.6793 24.1549 21.8234 24.3848C21.9657 24.6146 21.8956 24.9169 21.6657 25.0613C20.5816 25.7337 19.3983 26.2252 18.1486 26.5212C18.1096 26.5291 18.0728 26.5331 18.0356 26.5331Z" fill="#3B82F6"/>
<path d="M26.4842 12.8677C26.2618 12.8677 26.059 12.7156 26.0065 12.4894C25.7414 11.3468 25.2911 10.2626 24.6731 9.26892C24.5309 9.03894 24.6011 8.73682 24.831 8.59241C25.063 8.44995 25.3652 8.52051 25.5074 8.75012C26.1819 9.83594 26.6715 11.0195 26.9637 12.2653C27.024 12.5304 26.8604 12.7936 26.5972 12.8557C26.5602 12.8636 26.521 12.8677 26.4842 12.8677Z" fill="#3B82F6"/>
<path d="M25.0905 21.4485C25.0026 21.4485 24.9128 21.4252 24.831 21.3766C24.6011 21.2322 24.5309 20.9299 24.6731 20.7001C25.2911 19.7057 25.7397 18.6221 26.0065 17.4758C26.0688 17.2127 26.334 17.049 26.5972 17.1095C26.8604 17.1716 27.024 17.4348 26.9637 17.7C26.6715 18.9494 26.1819 20.1326 25.5074 21.2167C25.4159 21.3667 25.2541 21.4485 25.0905 21.4485Z" fill="#3B82F6"/>
<path d="M12.825 26.5331C12.788 26.5331 12.7488 26.5291 12.7121 26.5212C11.4602 26.2252 10.277 25.7337 9.19509 25.0613C8.96523 24.9169 8.89308 24.6146 9.03737 24.3848C9.17958 24.1549 9.48366 24.0847 9.71169 24.2268C10.7061 24.845 11.7898 25.2933 12.9363 25.5642C13.2013 25.6268 13.3649 25.8915 13.3026 26.1547C13.2479 26.3809 13.0473 26.5331 12.825 26.5331Z" fill="#3B82F6"/>
<path d="M18.1314 29.4825H12.7296C12.5969 29.4825 12.4683 29.4299 12.377 29.3324C12.2832 29.2365 12.2347 29.1078 12.2385 28.9753L12.3338 26.026C12.3419 25.761 12.56 25.5505 12.8233 25.5505L12.8407 25.5521C13.1119 25.5599 13.3243 25.7861 13.3147 26.0571L13.2365 28.5H17.6251L17.5449 26.0571C17.5372 25.7861 17.7496 25.5599 18.0203 25.5521L18.036 25.5505C18.2993 25.5505 18.5175 25.761 18.5271 26.026L18.6211 28.9753C18.6248 29.1078 18.5759 29.2365 18.4845 29.3324C18.391 29.4299 18.2641 29.4825 18.1314 29.4825Z" fill="#3B82F6"/>
<path d="M5.7686 9.50066C5.64763 9.50066 5.52666 9.45573 5.43315 9.36821L3.27702 7.34856C3.17973 7.25676 3.1248 7.13017 3.12114 6.9976C3.11931 6.86491 3.1718 6.73601 3.26518 6.64287L7.08635 2.82195C7.17998 2.7282 7.30278 2.66606 7.44109 2.67766C7.57378 2.67961 7.70049 2.73589 7.79204 2.83379L9.81157 4.98589C9.99883 5.18254 9.98698 5.4926 9.79009 5.67973C9.59319 5.86467 9.28142 5.85527 9.09612 5.65617L7.42363 3.87468L4.31804 6.97795L6.10368 8.65093C6.30266 8.83623 6.31218 9.14787 6.12712 9.34489C6.02959 9.44804 5.89909 9.50066 5.7686 9.50066Z" fill="#3B82F6"/>
<path d="M23.427 27.2912H23.4193C23.2867 27.2872 23.1603 27.233 23.0684 27.1349L21.0486 24.9794C20.8634 24.7824 20.8731 24.4708 21.0721 24.2852C21.269 24.1017 21.581 24.1116 21.7659 24.3086L23.4388 26.0943L26.5422 22.9909L24.7566 21.3163C24.5595 21.1313 24.5478 20.8211 24.7353 20.6221C24.9184 20.4252 25.2304 20.4158 25.427 20.6008L27.5829 22.6203C27.6807 22.7121 27.737 22.8367 27.7391 22.9712C27.7412 23.1042 27.6886 23.2327 27.5949 23.3261L23.774 27.1469C23.6823 27.2388 23.5578 27.2912 23.427 27.2912Z" fill="#3B82F6"/>
<path d="M1.4209 18.1741C1.29419 18.1741 1.17139 18.1251 1.07959 18.0356C0.982178 17.9439 0.929688 17.8171 0.929688 17.6828V12.2825C0.929688 12.1482 0.982178 12.0217 1.07959 11.93C1.17334 11.8365 1.30029 11.7781 1.43652 11.7914L4.38989 11.887C4.66089 11.8948 4.87329 12.121 4.86548 12.3918C4.85596 12.6651 4.60815 12.8849 4.35864 12.8679L1.91211 12.7896V17.1757L4.35864 17.098C4.63354 17.0646 4.85596 17.3028 4.86548 17.5733C4.87329 17.8443 4.66089 18.0705 4.38989 18.0784L1.43652 18.1741H1.4209Z" fill="#3B82F6"/>
<path d="M29.4392 18.1741H29.4237L26.4704 18.0784C26.1992 18.0705 25.9868 17.8443 25.9964 17.5733C26.0045 17.3007 26.2559 17.0843 26.5034 17.098L28.95 17.1757V12.7896L26.5034 12.8679H26.4858C26.2226 12.8679 26.0045 12.6587 25.9964 12.3918C25.9868 12.121 26.1992 11.8948 26.4704 11.887L29.4237 11.7914C29.5501 11.7781 29.6868 11.8365 29.7824 11.93C29.8779 12.0217 29.9304 12.1482 29.9304 12.2825V17.6828C29.9304 17.8171 29.8779 17.9439 29.7824 18.0356C29.6906 18.1251 29.5678 18.1741 29.4392 18.1741Z" fill="#3B82F6"/>
<path d="M25.091 9.50061C24.9601 9.50061 24.8296 9.44788 24.7341 9.3446C24.5469 9.14771 24.5586 8.83752 24.7556 8.651L26.5413 6.97803L23.4378 3.87463L21.7649 5.65625C21.603 5.82825 21.3458 5.86084 21.147 5.7384C20.1508 5.12036 19.0672 4.67004 17.9247 4.40466C17.6967 4.35217 17.5369 4.14563 17.5446 3.91162L17.6247 1.46521H13.2362L13.3143 3.91162C13.3222 4.14563 13.1641 4.35217 12.9363 4.40466C11.7918 4.67004 10.7079 5.12036 9.71169 5.7384C9.48171 5.88086 9.17958 5.81055 9.03737 5.58008C8.89308 5.35022 8.96523 5.04614 9.19509 4.90417C10.166 4.29944 11.2166 3.84326 12.32 3.547L12.2381 0.989258C12.2344 0.856812 12.283 0.728149 12.3767 0.632812C12.4683 0.535034 12.5967 0.482666 12.7294 0.482666H18.1311C18.2638 0.482666 18.3906 0.535034 18.4841 0.632812C18.5757 0.728149 18.6247 0.856812 18.6207 0.989258L18.5388 3.547C19.5134 3.80859 20.4452 4.19421 21.3185 4.69727L23.0674 2.83374C23.1591 2.73584 23.2855 2.67969 23.4181 2.67749C23.5526 2.66589 23.6795 2.72803 23.7732 2.8219L27.5938 6.64282C27.6875 6.73608 27.7403 6.86475 27.7382 6.99768C27.7362 7.13013 27.6797 7.25684 27.5822 7.34851L25.4262 9.36804C25.3327 9.45581 25.2117 9.50061 25.091 9.50061Z" fill="#3B82F6"/>
<path d="M22.5888 11.8497C22.4097 11.8497 22.2381 11.7526 22.1502 11.5809C21.4348 10.1617 20.2575 8.98425 18.8364 8.26306C18.4914 8.08752 18.1345 7.94104 17.7737 7.82239C16.2628 7.33093 14.6002 7.33093 13.0875 7.82239C12.7266 7.94104 12.37 8.08752 12.0269 8.26306C10.6038 8.98425 9.42629 10.1617 8.71095 11.5809C8.58803 11.8226 8.2936 11.92 8.04994 11.7972C7.80849 11.6742 7.71254 11.3798 7.83351 11.1383C8.64455 9.53406 9.97585 8.20032 11.5822 7.38757C11.9705 7.1886 12.3756 7.02283 12.7833 6.88831C14.4911 6.33313 16.3703 6.33313 18.0778 6.88831C18.4872 7.02283 18.8891 7.1886 19.2786 7.38562C20.8871 8.20032 22.2184 9.53406 23.0275 11.1383C23.1504 11.3798 23.053 11.6742 22.8111 11.7972C22.7388 11.8344 22.663 11.8497 22.5888 11.8497Z" fill="#3B82F6"/>
<path d="M7.43315 27.2912C7.30449 27.2912 7.17998 27.2388 7.08635 27.1469L3.26518 23.3261C3.1718 23.2327 3.11931 23.1042 3.12114 22.9712C3.1248 22.8367 3.17973 22.7121 3.27702 22.6203L5.43315 20.6008C5.62993 20.4158 5.94182 20.4252 6.12712 20.6221C6.31218 20.8211 6.30266 21.1313 6.10368 21.3163L4.31804 22.9909L7.42363 26.0943L9.09612 24.3086C9.28142 24.11 9.59319 24.1001 9.79009 24.2852C9.98698 24.4708 9.99883 24.7824 9.81157 24.9794L7.79204 27.1349C7.70049 27.233 7.57561 27.2872 7.44316 27.2912H7.43315Z" fill="#3B82F6"/>
<path d="M15.4291 23.4999C14.5264 23.4999 13.6356 23.3575 12.7819 23.0809C12.3741 22.9464 11.969 22.7784 11.5808 22.5836C9.98047 21.7692 8.64905 20.4371 7.83411 18.8309C7.63708 18.443 7.46948 18.0392 7.33496 17.632C7.05823 16.7762 6.91602 15.8851 6.91602 14.9828C6.91602 14.08 7.05823 13.1893 7.33496 12.3351C7.47168 11.9222 7.63928 11.5184 7.83411 11.1364C8.64319 9.53406 9.97449 8.20032 11.5808 7.38757C11.969 7.1886 12.3741 7.02283 12.7819 6.88831C14.4896 6.33313 16.3688 6.33313 18.0764 6.88831C18.4857 7.02283 18.8876 7.1886 19.2771 7.38562C20.8856 8.20032 22.217 9.53406 23.0261 11.1383C23.2211 11.5184 23.3887 11.9222 23.5233 12.3334C23.802 13.1893 23.9424 14.08 23.9424 14.9828C23.9424 15.8851 23.802 16.7762 23.5233 17.63C23.3887 18.0392 23.2229 18.443 23.0261 18.8309C22.2092 20.4371 20.8796 21.7692 19.2795 22.5814C18.8876 22.7784 18.4857 22.9464 18.0784 23.0787C17.2227 23.3575 16.3317 23.4999 15.4291 23.4999ZM15.4291 7.45203C14.6299 7.45203 13.8424 7.57678 13.0861 7.82239C12.7251 7.94104 12.3685 8.08752 12.0254 8.26306C10.6023 8.98425 9.4248 10.1617 8.70947 11.5809C8.53577 11.92 8.38782 12.277 8.2688 12.6395C8.02332 13.3959 7.89856 14.1832 7.89856 14.9828C7.89856 15.7819 8.02332 16.5697 8.2688 17.3258C8.38782 17.6866 8.53577 18.0433 8.70947 18.3883C9.43091 19.8077 10.61 20.9872 12.0254 21.7064C12.3685 21.882 12.7251 22.028 13.0861 22.1466C14.5988 22.6383 16.2596 22.6383 17.7743 22.1466C18.1331 22.028 18.4899 21.882 18.8348 21.7064C20.25 20.9872 21.4274 19.8077 22.1488 18.3864C22.3242 18.0433 22.4706 17.6866 22.5894 17.3258C22.8351 16.5697 22.9597 15.7819 22.9597 14.9828C22.9597 14.1832 22.8351 13.3959 22.5894 12.6395C22.4706 12.275 22.3224 11.92 22.1506 11.5826C21.4335 10.1617 20.256 8.98425 18.8348 8.26306C18.4899 8.08752 18.1331 7.94104 17.7722 7.82239C17.0179 7.57678 16.2284 7.45203 15.4291 7.45203Z" fill="#3B82F6"/>
<path d="M12.1523 14.5477H13.5129C13.4095 14.3298 13.3005 14.1152 13.1854 13.9067C13.0703 13.6981 12.9629 13.4895 12.8638 13.281C12.7662 13.0721 12.6842 12.8558 12.6218 12.6318C12.5598 12.4076 12.5283 12.1757 12.5283 11.9359C12.5283 11.5596 12.6062 11.2089 12.7623 10.879C12.92 10.5518 13.1307 10.2654 13.3959 10.0195C13.661 9.77405 13.9747 9.58276 14.3357 9.44055C14.6943 9.30005 15.0784 9.22998 15.4839 9.22998C16.0784 9.22998 16.6357 9.37634 17.1586 9.6687C17.679 9.96106 18.1058 10.361 18.4391 10.8712L17.6729 11.7177C17.4235 11.3101 17.0957 10.9844 16.6885 10.7386C16.2811 10.4933 15.87 10.3724 15.4524 10.3724C15.2129 10.3724 14.9944 10.4172 14.7957 10.5049C14.5966 10.5928 14.4231 10.7095 14.2731 10.8558C14.121 11.004 14.0043 11.1796 13.9203 11.3882C13.8364 11.5967 13.7954 11.8168 13.7954 12.0449C13.7954 12.2535 13.8286 12.4603 13.8969 12.663C13.9651 12.8656 14.0469 13.0706 14.1465 13.2734C14.2458 13.4761 14.3551 13.6826 14.4758 13.8911C14.5947 14.0995 14.7079 14.3179 14.811 14.5477H17.6105V15.6125H15.1561C15.1757 15.7257 15.1913 15.8387 15.203 15.9476C15.2129 16.057 15.2188 16.1698 15.2188 16.2828C15.2188 16.7941 15.1034 17.2789 14.8737 17.7395C14.6456 18.1973 14.2478 18.7295 13.6864 19.3339C14.0706 19.2288 14.4564 19.176 14.8425 19.176C15.2598 19.176 15.6378 19.2249 15.9768 19.3184C16.3163 19.4117 16.667 19.4585 17.0315 19.4585C17.2404 19.4585 17.4467 19.4357 17.6494 19.3885C17.8522 19.3417 18.0898 19.2712 18.3611 19.176L18.7062 20.2251C18.4352 20.3612 18.1504 20.4644 17.8522 20.5367C17.5559 20.6107 17.2617 20.6481 16.9694 20.6481C16.7292 20.6481 16.5033 20.6265 16.2888 20.5854C16.0762 20.5426 15.8599 20.4998 15.6398 20.453C15.4215 20.4061 15.2012 20.3612 14.9752 20.3185C14.7509 20.2773 14.5206 20.256 14.2789 20.256C14.0199 20.256 13.7274 20.2831 13.4037 20.3358C13.0802 20.3864 12.7777 20.455 12.4974 20.5367L12.1523 19.5367C12.8209 18.9014 13.2965 18.3379 13.5833 17.8485C13.8716 17.3571 14.0138 16.8583 14.0138 16.3453C14.0138 16.0957 13.9827 15.8501 13.9203 15.6125H12.1523V14.5477Z" fill="#3B82F6"/>
</svg>
