<svg width="32" height="32" viewBox="0 0 32 32" fill="none" xmlns="http://www.w3.org/2000/svg">
<path d="M14.9922 31.4827C7.24121 31.4827 0.933594 25.1768 0.933594 17.4238C0.933594 9.67102 7.24121 3.36523 14.9922 3.36523C16.2866 3.36523 17.5677 3.53992 18.8007 3.88586C18.9178 3.91931 19.0201 3.99927 19.0795 4.10522C19.1393 4.21301 19.1541 4.3396 19.1226 4.45874L15.6655 16.7507L27.9482 13.2659C28.0654 13.2324 28.1936 13.2471 28.3014 13.3068C28.4095 13.3682 28.4894 13.4686 28.5228 13.5875C28.8743 14.8297 29.0529 16.1205 29.0529 17.4238C29.0529 25.1768 22.745 31.4827 14.9922 31.4827ZM14.9922 4.29321C7.75281 4.29321 1.86316 10.1843 1.86316 17.4238C1.86316 24.6635 7.75281 30.5546 14.9922 30.5546C22.2336 30.5546 28.123 24.6635 28.123 17.4238C28.123 16.3621 27.9967 15.3114 27.7472 14.2887L15.1206 17.8702C14.9569 17.9167 14.7841 17.8722 14.665 17.7531C14.5458 17.634 14.5013 17.4594 14.5458 17.2975L18.0996 4.66321C17.0881 4.41748 16.0447 4.29321 14.9922 4.29321Z" fill="#3B82F6"/>
<path d="M18.4732 14.4245C18.3522 14.4245 18.235 14.376 18.1458 14.2887C18.0268 14.1695 17.9821 13.9966 18.0268 13.8368L21.6122 0.82474C21.6455 0.705843 21.7237 0.603792 21.8317 0.542391C21.9394 0.482699 22.0659 0.465975 22.185 0.499422C26.8601 1.81229 30.5847 5.5297 31.9071 10.2012C31.9403 10.3202 31.9257 10.4467 31.8662 10.5545C31.8046 10.6623 31.7044 10.7422 31.5855 10.7741L18.5995 14.4077C18.5587 14.419 18.5158 14.4245 18.4732 14.4245ZM22.3819 1.52982L19.1408 13.2898L30.8786 10.008C29.5862 6.00406 26.3876 2.81302 22.3819 1.52982Z" fill="#3B82F6"/>
<path d="M29.4268 11.3422C29.3078 11.3422 29.1888 11.2978 29.0997 11.2066C28.9173 11.0263 28.9173 10.7322 29.0997 10.5501L30.8253 8.82425C31.0057 8.64224 31.3012 8.64224 31.4816 8.82425C31.6639 9.00467 31.6639 9.29861 31.4816 9.48087L29.756 11.2066C29.6647 11.2978 29.5457 11.3422 29.4268 11.3422Z" fill="#3B82F6"/>
<path d="M24.0069 12.823C23.888 12.823 23.7688 12.7765 23.6777 12.6854C23.4955 12.505 23.4955 12.211 23.6777 12.0288L29.5095 6.19699C29.6917 6.01474 29.9854 6.01474 30.1677 6.19699C30.3484 6.37924 30.3484 6.67319 30.1677 6.85361L24.3341 12.6854C24.245 12.7765 24.1259 12.823 24.0069 12.823Z" fill="#3B82F6"/>
<path d="M18.4738 14.4112C18.3567 14.4112 18.2375 14.3666 18.1465 14.2754C17.9642 14.0932 17.9642 13.7992 18.1465 13.6188L27.7143 4.0491C27.8966 3.8671 28.1903 3.8671 28.3725 4.0491C28.5527 4.23135 28.5527 4.52554 28.3725 4.70572L18.8028 14.2754C18.7116 14.3666 18.5929 14.4112 18.4738 14.4112Z" fill="#3B82F6"/>
<path d="M19.9111 9.03094C19.7921 9.03094 19.6734 8.98627 19.584 8.8952C19.4017 8.71295 19.4017 8.41925 19.584 8.23883L25.5792 2.24152C25.7617 2.0611 26.0556 2.0611 26.2358 2.24152C26.4181 2.42389 26.4181 2.71747 26.2358 2.89984L20.2403 8.8952C20.1494 8.98627 20.0301 9.03094 19.9111 9.03094Z" fill="#3B82F6"/>
<path d="M21.3917 3.61008C21.2728 3.61008 21.1535 3.56345 21.0625 3.47433C20.8802 3.29208 20.8802 2.99838 21.0625 2.81613L22.9519 0.926727C23.1344 0.744476 23.4281 0.744476 23.6085 0.926727C23.7907 1.10715 23.7907 1.40268 23.6085 1.5831L21.7191 3.47433C21.6279 3.56345 21.5107 3.61008 21.3917 3.61008Z" fill="#3B82F6"/>
</svg>
