<svg width="39" height="39" viewBox="0 0 39 39" fill="none" xmlns="http://www.w3.org/2000/svg">
<path d="M27.9832 31.1403H14.3135C13.9722 31.1403 13.6953 30.8634 13.6953 30.5221V14.5902C13.6953 14.4271 13.7598 14.2689 13.8757 14.1527L17.2795 10.7513C17.3933 10.6376 17.5515 10.5709 17.7148 10.5709H27.9832C28.3245 10.5709 28.5989 10.8478 28.5989 11.1888V30.5221C28.5989 30.8634 28.3245 31.1403 27.9832 31.1403ZM14.929 29.9042H27.3652V11.807H17.9695L14.929 14.8448V29.9042Z" fill="#3B82F6"/>
<path d="M14.3129 15.2084C14.1544 15.2084 13.9962 15.1464 13.8751 15.0253C13.6354 14.7855 13.6354 14.3951 13.8751 14.1527L17.2789 10.7513C17.5189 10.5092 17.9093 10.5092 18.1517 10.7513C18.3917 10.9935 18.3917 11.3842 18.1517 11.6239L14.7479 15.0253C14.6266 15.1464 14.4708 15.2084 14.3129 15.2084Z" fill="#3B82F6"/>
<path d="M17.7148 15.2106L14.3135 15.2084C13.9722 15.2059 13.6953 14.9291 13.6953 14.5902C13.6953 14.2491 13.9722 13.9723 14.3135 13.9723L17.0991 13.9772V11.1888C17.0991 10.8478 17.3735 10.5709 17.7148 10.5709C18.0557 10.5709 18.3328 10.8478 18.3328 11.1888V14.5953C18.3328 14.7584 18.2686 14.9166 18.1523 15.0328C18.0361 15.1464 17.8779 15.2106 17.7148 15.2106Z" fill="#3B82F6"/>
<path d="M25.9116 15.4751H20.1765C19.8357 15.4751 19.5586 15.1982 19.5586 14.8572C19.5586 14.5159 19.8357 14.2417 20.1765 14.2417H25.9116C26.2527 14.2417 26.5298 14.5159 26.5298 14.8572C26.5298 15.1982 26.2527 15.4751 25.9116 15.4751Z" fill="#3B82F6"/>
<path d="M25.9126 17.873H16.3831C16.0444 17.873 15.7676 17.5984 15.7676 17.2573C15.7676 16.9163 16.0444 16.6394 16.3831 16.6394H25.9126C26.2537 16.6394 26.5308 16.9163 26.5308 17.2573C26.5308 17.5984 26.2537 17.873 25.9126 17.873Z" fill="#3B82F6"/>
<path d="M25.9126 20.2732H16.3831C16.0444 20.2732 15.7676 19.9963 15.7676 19.6553C15.7676 19.3142 16.0444 19.0374 16.3831 19.0374H25.9126C26.2537 19.0374 26.5308 19.3142 26.5308 19.6553C26.5308 19.9963 26.2537 20.2732 25.9126 20.2732Z" fill="#3B82F6"/>
<path d="M25.9126 22.6711H16.3831C16.0444 22.6711 15.7676 22.397 15.7676 22.0559C15.7676 21.7146 16.0444 21.4377 16.3831 21.4377H25.9126C26.2537 21.4377 26.5308 21.7146 26.5308 22.0559C26.5308 22.397 26.2537 22.6711 25.9126 22.6711Z" fill="#3B82F6"/>
<path d="M25.9126 25.0713H16.3831C16.0444 25.0713 15.7676 24.7944 15.7676 24.4534C15.7676 24.1123 16.0444 23.8354 16.3831 23.8354H25.9126C26.2537 23.8354 26.5308 24.1123 26.5308 24.4534C26.5308 24.7944 26.2537 25.0713 25.9126 25.0713Z" fill="#3B82F6"/>
<path d="M25.9126 27.4695H16.3831C16.0444 27.4695 15.7676 27.1926 15.7676 26.8516C15.7676 26.5103 16.0444 26.2358 16.3831 26.2358H25.9126C26.2537 26.2358 26.5308 26.5103 26.5308 26.8516C26.5308 27.1926 26.2537 27.4695 25.9126 27.4695Z" fill="#3B82F6"/>
<path d="M12.187 28.354H10.8792C10.5383 28.354 10.2637 28.0771 10.2637 27.7361V8.40527C10.2637 8.06421 10.5383 7.78735 10.8792 7.78735H24.5493C24.8904 7.78735 25.1672 8.06421 25.1672 8.40527V9.41382C25.1672 9.75488 24.8904 10.0317 24.5493 10.0317C24.208 10.0317 23.9338 9.75488 23.9338 9.41382V9.02075H11.4973V27.1206H12.187C12.5305 27.1206 12.8049 27.395 12.8049 27.7361C12.8049 28.0771 12.5305 28.354 12.187 28.354Z" fill="#3B82F6"/>
<path d="M19.4288 38.1851C11.9686 38.1851 5.22739 33.7627 2.25107 26.9204C2.11509 26.6089 2.25864 26.2454 2.57261 26.1096C2.88633 25.9712 3.24717 26.1169 3.3834 26.4285C6.16196 32.821 12.4605 36.9492 19.4288 36.9492C29.0697 36.9492 36.9156 29.1057 36.9156 19.4624C36.9156 9.82178 29.0697 1.97559 19.4288 1.97559C12.8509 1.97559 6.90098 5.63159 3.90757 11.3965L6.30283 10.6326C6.629 10.5286 6.97519 10.7068 7.07895 11.0305C7.18271 11.3569 7.00229 11.7029 6.67856 11.8069L2.93589 13.0032C2.70591 13.0774 2.45395 13.0107 2.29307 12.8325C2.13022 12.6545 2.08555 12.3975 2.1793 12.175C5.11875 5.2312 11.8868 0.742188 19.4288 0.742188C29.7521 0.742188 38.1493 9.14185 38.1493 19.4624C38.1493 29.7854 29.7521 38.1851 19.4288 38.1851Z" fill="#3B82F6"/>
<path d="M2.74831 13.0327C2.50099 13.0327 2.26857 12.8869 2.17457 12.6421L0.753432 9.04563C0.629653 8.72898 0.785415 8.37058 1.10206 8.24461C1.41823 8.12107 1.77663 8.27415 1.90285 8.593L3.32155 12.1899C3.44777 12.5063 3.29201 12.8647 2.97316 12.9907C2.90138 13.0205 2.82228 13.0327 2.74831 13.0327Z" fill="#3B82F6"/>
</svg>
