<svg width="31" height="30" viewBox="0 0 31 30" fill="none" xmlns="http://www.w3.org/2000/svg">
<path d="M22.0419 24.6817H19.7057C19.5043 24.6817 19.337 24.5283 19.3201 24.3285L19.1621 22.5221C18.3843 22.361 17.6437 22.0775 16.9545 21.6747L15.6193 22.7947C15.4658 22.9248 15.2395 22.914 15.097 22.7731L13.4456 21.1201C13.303 20.9791 13.2937 20.7513 13.4222 20.598L14.4928 19.3229C14.0358 18.6182 13.7089 17.8528 13.517 17.0394L11.89 16.897C11.6906 16.8799 11.5371 16.7125 11.5371 16.5128V14.1749C11.5371 13.9752 11.6906 13.8079 11.89 13.7908L13.517 13.6483C13.7089 12.835 14.0358 12.0696 14.4928 11.3648L13.4222 10.0898C13.2937 9.93646 13.303 9.70862 13.4456 9.56763L15.097 7.91467C15.2395 7.7738 15.4658 7.76288 15.6193 7.89294L16.9545 9.01306C17.6437 8.61035 18.3843 8.32678 19.1621 8.16565L19.3201 6.35931C19.337 6.15936 19.5043 6.00598 19.7057 6.00598H22.0419C22.2433 6.00598 22.4105 6.15936 22.4275 6.35931L22.595 8.27875C23.3075 8.47394 23.9799 8.77454 24.6027 9.17419L26.1285 7.89294C26.282 7.76288 26.5081 7.7738 26.6505 7.91467L28.302 9.56763C28.4445 9.70862 28.4539 9.93646 28.3253 10.0898L26.9929 11.6761C27.3446 12.2833 27.605 12.931 27.769 13.608L29.8573 13.7908C30.0573 13.8079 30.2106 13.9752 30.2106 14.1749V16.5128C30.2106 16.7125 30.0573 16.8799 29.8573 16.897L27.769 17.0797C27.605 17.7568 27.3446 18.4044 26.9929 19.0116L28.3253 20.598C28.4539 20.7513 28.4445 20.9791 28.302 21.1201L26.6505 22.7731C26.5081 22.914 26.282 22.9248 26.1285 22.7947L24.6027 21.5152C23.9799 21.9132 23.3075 22.2137 22.595 22.409L22.4275 24.3285C22.4105 24.5283 22.2433 24.6817 22.0419 24.6817ZM20.0604 23.9071H21.6871L21.8483 22.0682C21.8621 21.9024 21.9829 21.7646 22.1455 21.7258C22.9604 21.5353 23.7195 21.196 24.406 20.7141C24.5499 20.6135 24.7419 20.6212 24.8768 20.7343L26.3547 21.9752L27.5043 20.8242L26.2231 19.2967C26.1145 19.1681 26.1023 18.9837 26.1921 18.8412C26.6212 18.1627 26.917 17.4237 27.0735 16.6429C27.1075 16.474 27.2485 16.3485 27.4205 16.333L29.4375 16.158V14.5297L27.4205 14.3547C27.2485 14.3392 27.1075 14.2137 27.0735 14.0449C26.917 13.2641 26.6212 12.525 26.1921 11.8465C26.1023 11.704 26.1145 11.5196 26.2231 11.3911L27.5043 9.86365L26.3547 8.71252L24.8768 9.95343C24.7419 10.065 24.5499 10.0743 24.406 9.97357C23.7195 9.49335 22.9604 9.15247 22.1455 8.96198C21.9829 8.92328 21.8621 8.78534 21.8483 8.61957L21.6871 6.78064H20.0604L19.9071 8.52661C19.8916 8.70331 19.76 8.84576 19.5848 8.87524C18.7065 9.0177 17.8807 9.3338 17.1279 9.8139C16.9855 9.9054 16.801 9.89301 16.671 9.78455L15.3928 8.71252L14.2433 9.86365L15.2737 11.0921C15.3867 11.2253 15.3945 11.4206 15.2936 11.563C14.7546 12.3253 14.3906 13.1727 14.2139 14.0837C14.1814 14.2526 14.0404 14.3795 13.8685 14.395L12.3099 14.5297V16.158L13.8685 16.2944C14.0404 16.3082 14.1814 16.4354 14.2139 16.6042C14.3906 17.5151 14.7546 18.3625 15.2936 19.1247C15.3945 19.2688 15.3867 19.4625 15.2737 19.5957L14.2433 20.8242L15.3928 21.9752L16.671 20.9031C16.801 20.7947 16.9855 20.7823 17.1279 20.8738C17.8807 21.3541 18.7065 21.67 19.5848 21.8125C19.76 21.842 19.8916 21.9846 19.9071 22.1611L20.0604 23.9071Z" fill="#3B82F6"/>
<path d="M22.0419 24.7891H19.7057C19.4467 24.7891 19.2349 24.595 19.213 24.3376L19.062 22.6107C18.3248 22.4496 17.6205 22.1791 16.9658 21.8053L15.6882 22.8771C15.6 22.9519 15.4872 22.9933 15.3708 22.9933C15.2394 22.9933 15.1152 22.9423 15.0215 22.8495L13.3696 21.196C13.1892 21.0178 13.176 20.7245 13.34 20.5289L14.3597 19.3144C13.9333 18.6414 13.6211 17.9104 13.4305 17.1397L11.8807 17.004C11.6279 16.9825 11.4297 16.7667 11.4297 16.5128V14.1749C11.4297 13.9211 11.6279 13.7054 11.881 13.6838L13.4305 13.548C13.6211 12.7774 13.9333 12.0466 14.3596 11.3734L13.3401 10.1589C13.176 9.96326 13.1892 9.66998 13.3701 9.49121L15.021 7.83881C15.1152 7.74554 15.2394 7.69446 15.3708 7.69446C15.4872 7.69446 15.6 7.73584 15.6887 7.81104L16.9658 8.88239C17.6207 8.50861 18.3251 8.23804 19.062 8.07709L19.213 6.34998C19.2349 6.09277 19.4467 5.89856 19.7057 5.89856H22.0419C22.3009 5.89856 22.5127 6.09277 22.5345 6.35028L22.6956 8.19525C23.3636 8.38568 24.0015 8.67004 24.5938 9.04132L26.0596 7.81073C26.1477 7.73584 26.2605 7.69446 26.3767 7.69446C26.5082 7.69446 26.6323 7.74554 26.7261 7.83832L28.3779 9.4917C28.5582 9.67017 28.5715 9.96344 28.4076 10.1589L27.1234 11.6879C27.4482 12.262 27.6941 12.8735 27.8549 13.5077L29.8666 13.6838C30.1196 13.7054 30.318 13.9211 30.318 14.1749V16.5128C30.318 16.7667 30.1196 16.9825 29.8665 17.004L27.8549 17.1801C27.6941 17.8141 27.4482 18.4257 27.1234 18.9999L28.4075 20.5289C28.5715 20.7244 28.5582 21.0176 28.3776 21.1965L26.7266 22.8491C26.6323 22.9423 26.5083 22.9933 26.3768 22.9933C26.2606 22.9933 26.1477 22.9519 26.0591 22.8767L24.5938 21.6479C24.0001 22.0186 23.3622 22.3024 22.6956 22.4924L22.5345 24.3378C22.5127 24.595 22.3009 24.7891 22.0419 24.7891ZM16.9434 21.5437L17.0087 21.5819C17.6846 21.9769 18.4164 22.2579 19.1838 22.4169L19.2621 22.4331L19.427 24.3192C19.4395 24.4647 19.5592 24.5743 19.7057 24.5743H22.0419C22.1884 24.5743 22.3081 24.4647 22.3206 24.3194L22.4945 22.3252L22.5665 22.3054C23.2637 22.1144 23.9293 21.8181 24.5448 21.4247L24.6112 21.3822L26.1976 22.7125C26.2479 22.7552 26.3115 22.7785 26.3768 22.7785C26.4513 22.7785 26.5217 22.7495 26.5751 22.6968L28.2261 21.0442C28.3282 20.9429 28.3356 20.7774 28.2429 20.667L26.8623 19.0229L26.9 18.9578C27.2462 18.3599 27.5034 17.7196 27.6647 17.0544L27.6829 16.9794L29.8479 16.79C29.9911 16.7778 30.1031 16.6561 30.1031 16.5128V14.1749C30.1031 14.0318 29.9911 13.91 29.8481 13.8978L27.6829 13.7083L27.6647 13.6333C27.5034 12.9681 27.2462 12.3277 26.9 11.73L26.8623 11.6647L28.243 10.0208C28.3356 9.91034 28.3282 9.74481 28.2264 9.64398L26.5746 7.99066C26.5216 7.93835 26.4513 7.9093 26.3767 7.9093C26.3114 7.9093 26.2479 7.93256 26.198 7.97491L24.6111 9.30731L24.5446 9.26465C23.9307 8.87061 23.2651 8.57379 22.5665 8.38232L22.4945 8.36255L22.3206 6.36865C22.3081 6.22308 22.1884 6.1134 22.0419 6.1134H19.7057C19.5592 6.1134 19.4395 6.22308 19.427 6.36841L19.2621 8.25458L19.1838 8.27081C18.4167 8.42981 17.6848 8.71069 17.0087 9.10583L16.9434 9.14398L15.5502 7.97528C15.4999 7.93256 15.4364 7.9093 15.3708 7.9093C15.2963 7.9093 15.2258 7.93835 15.1725 7.99109L13.5215 9.64355C13.4192 9.74475 13.4119 9.91028 13.5046 10.0208L14.6261 11.3566L14.5829 11.4232C14.1338 12.116 13.8103 12.8729 13.6215 13.673L13.6036 13.7485L11.8994 13.8978C11.7565 13.91 11.6445 14.0318 11.6445 14.1749V16.5128C11.6445 16.6561 11.7565 16.7778 11.8992 16.7899L13.6036 16.9392L13.6215 17.0147C13.8103 17.815 14.1339 18.5719 14.5829 19.2645L14.6261 19.3312L13.5045 20.6671C13.4119 20.7775 13.4192 20.943 13.5211 21.0437L15.173 22.6972C15.2258 22.7495 15.2963 22.7785 15.3708 22.7785C15.4363 22.7785 15.4999 22.7552 15.5498 22.7128L16.9434 21.5437ZM21.7855 24.0145H19.962L19.8 22.1705C19.7888 22.0433 19.6931 21.9396 19.567 21.9185C18.6763 21.7739 17.8359 21.4529 17.0702 20.9644C16.9695 20.8997 16.8315 20.9091 16.7397 20.9857L15.3865 22.1208L14.0978 20.8304L15.1913 19.5267C15.2731 19.4305 15.2787 19.2907 15.2056 19.1863C14.6569 18.4103 14.2876 17.5483 14.1085 16.6246C14.085 16.5031 13.9828 16.4114 13.86 16.4014L12.2025 16.2565V14.4312L13.8594 14.288C13.9825 14.2769 14.0851 14.1844 14.1084 14.0634C14.2876 13.1396 14.6569 12.2776 15.2059 11.501C15.2793 11.3974 15.2734 11.2579 15.1918 11.1616L14.0978 9.85736L15.3865 8.56689L16.74 9.70227C16.8315 9.7785 16.9697 9.78778 17.0699 9.72357C17.8362 9.2348 18.6764 8.9137 19.5676 8.76917C19.6931 8.74805 19.7888 8.64441 19.8 8.51721L19.962 6.67322H21.7855L21.9552 8.61017C21.9653 8.73004 22.0518 8.82922 22.1704 8.85748C22.9951 9.05023 23.7681 9.39618 24.4677 9.88556C24.5686 9.95636 24.7125 9.94989 24.8085 9.87061L26.3611 8.56689L27.6498 9.85736L26.3055 11.4601C26.2266 11.5535 26.2177 11.6856 26.283 11.7892C26.7181 12.4774 27.0197 13.2292 27.1788 14.0237C27.2035 14.1464 27.3046 14.2364 27.4302 14.2477L29.5449 14.4312V16.2565L27.4298 16.44C27.3046 16.4513 27.2035 16.5414 27.1788 16.6641C27.0197 17.4584 26.7183 18.2103 26.283 18.8986C26.2177 19.0021 26.2267 19.1343 26.3052 19.2274L27.6498 20.8305L26.3611 22.1208L24.8079 20.8165C24.713 20.7372 24.5693 20.7309 24.4677 20.8022C23.7716 21.2908 22.9985 21.6367 22.1699 21.8304C22.0518 21.8586 21.9652 21.9578 21.9552 22.0771L21.7855 24.0145ZM20.1588 23.7997H21.5887L21.7412 22.0588C21.7589 21.8471 21.9114 21.6711 22.1207 21.6213C22.9227 21.4338 23.6708 21.099 24.3444 20.6262C24.4285 20.5674 24.5267 20.5363 24.6287 20.5363C24.7443 20.5363 24.8569 20.5774 24.9459 20.6519L26.3484 21.8296L27.3588 20.8178L26.1409 19.3657C26.0017 19.2012 25.9858 18.9672 26.1013 18.7839C26.5225 18.1178 26.8141 17.3903 26.9683 16.6218C27.0118 16.405 27.1898 16.246 27.4109 16.226L29.3301 16.0595V14.6282L27.4114 14.4617C27.1898 14.4418 27.0118 14.2828 26.9683 14.066C26.8141 13.2973 26.5225 12.5699 26.1014 11.9039C25.9857 11.7205 26.0017 11.4866 26.1411 11.3217L27.3588 9.86993L26.3484 8.85809L24.9459 10.0357C24.8558 10.1102 24.7429 10.1509 24.6276 10.1509C24.5259 10.1509 24.428 10.1201 24.3445 10.0616C23.6675 9.58801 22.9194 9.25317 22.1211 9.06659C21.9114 9.01666 21.7589 8.84064 21.7412 8.62848L21.5887 6.88806H20.1588L20.014 8.53601C19.9944 8.76068 19.8252 8.94373 19.6027 8.9812C18.7399 9.12115 17.9269 9.43176 17.1858 9.90454C17.1063 9.95544 17.0143 9.98248 16.9199 9.98248C16.8043 9.98248 16.6914 9.94153 16.6022 9.86707L15.3992 8.85809L14.3888 9.86993L15.356 11.0231C15.5007 11.1937 15.5114 11.4415 15.3813 11.6252C14.85 12.3766 14.4927 13.2106 14.3193 14.1041C14.2781 14.3186 14.0967 14.4822 13.8782 14.502L12.4174 14.6283V16.0596L13.8779 16.1874C14.0959 16.205 14.2778 16.368 14.3193 16.5838C14.4927 17.4772 14.85 18.3113 15.3813 19.0626C15.5106 19.2474 15.4999 19.4951 15.3556 19.6652L14.3888 20.8179L15.3992 21.8296L16.6019 20.8209C16.6914 20.7462 16.8043 20.7053 16.9199 20.7053C17.0143 20.7053 17.1063 20.7323 17.1859 20.7834C17.9266 21.256 18.7397 21.5666 19.6021 21.7064C19.8252 21.744 19.9944 21.9271 20.014 22.1517L20.1588 23.7997Z" fill="#3B82F6"/>
<path d="M20.8745 19.9752C18.3213 19.9752 16.2441 17.8977 16.2441 15.3446C16.2441 12.7899 18.3213 10.7125 20.8745 10.7125C23.429 10.7125 25.5066 12.7899 25.5066 15.3446C25.5066 17.8977 23.429 19.9752 20.8745 19.9752ZM20.8745 11.4871C18.7476 11.4871 17.0171 13.2175 17.0171 15.3446C17.0171 17.4701 18.7476 19.2006 20.8745 19.2006C23.0015 19.2006 24.7319 17.4701 24.7319 15.3446C24.7319 13.2175 23.0015 11.4871 20.8745 11.4871Z" fill="#3B82F6"/>
<path d="M20.8745 20.0826C18.2622 20.0826 16.1367 17.9572 16.1367 15.3446C16.1367 12.7312 18.2622 10.6051 20.8745 10.6051C23.4878 10.6051 25.614 12.7312 25.614 15.3446C25.614 17.9572 23.4878 20.0826 20.8745 20.0826ZM20.8745 10.8199C18.3806 10.8199 16.3516 12.8496 16.3516 15.3446C16.3516 17.8386 18.3806 19.8678 20.8745 19.8678C23.3694 19.8678 25.3992 17.8386 25.3992 15.3446C25.3992 12.8496 23.3694 10.8199 20.8745 10.8199ZM20.8745 19.308C18.6882 19.308 16.9097 17.53 16.9097 15.3446C16.9097 13.1583 18.6882 11.3796 20.8745 11.3796C23.0608 11.3796 24.8394 13.1583 24.8394 15.3446C24.8394 17.53 23.0608 19.308 20.8745 19.308ZM20.8745 11.5945C18.8069 11.5945 17.1245 13.2767 17.1245 15.3446C17.1245 17.4115 18.8069 19.0931 20.8745 19.0931C22.9421 19.0931 24.6245 17.4115 24.6245 15.3446C24.6245 13.2767 22.9421 11.5945 20.8745 11.5945Z" fill="#3B82F6"/>
<path d="M20.8735 18.3083C20.6595 18.3083 20.4863 18.1348 20.4863 17.921V12.7389C20.4863 12.5251 20.6595 12.3516 20.8735 12.3516C21.0872 12.3516 21.2609 12.5251 21.2609 12.7389V17.921C21.2609 18.1348 21.0872 18.3083 20.8735 18.3083Z" fill="#3B82F6"/>
<path d="M20.8735 18.4158C20.6008 18.4158 20.3789 18.1938 20.3789 17.921V12.7389C20.3789 12.4661 20.6008 12.2441 20.8735 12.2441C21.1464 12.2441 21.3683 12.4661 21.3683 12.7389V17.921C21.3683 18.1938 21.1464 18.4158 20.8735 18.4158ZM20.8735 12.459C20.7192 12.459 20.5938 12.5846 20.5938 12.7389V17.921C20.5938 18.0753 20.7192 18.2009 20.8735 18.2009C21.028 18.2009 21.1534 18.0753 21.1534 17.921V12.7389C21.1534 12.5846 21.028 12.459 20.8735 12.459Z" fill="#3B82F6"/>
<path d="M20.8746 29.4238H5.97314C5.87097 29.4238 5.77319 29.382 5.70044 29.3092L0.763428 24.3718C0.690674 24.299 0.650391 24.2015 0.650391 24.0977V0.978821C0.650391 0.765015 0.822388 0.591553 1.03601 0.591553H20.8746C21.0883 0.591553 21.262 0.765015 21.262 0.978821V4.26935C21.262 4.48315 21.0883 4.65668 20.8746 4.65668C20.6606 4.65668 20.4874 4.48315 20.4874 4.26935V1.36615H1.42322V23.938L6.13428 28.6492H20.4874V25.7134C20.4874 25.4997 20.6606 25.3278 20.8746 25.3278C21.0883 25.3278 21.262 25.4997 21.262 25.7134V29.0365C21.262 29.2503 21.0883 29.4238 20.8746 29.4238Z" fill="#3B82F6"/>
<path d="M20.8746 29.5312H5.97314C5.84253 29.5312 5.71875 29.4794 5.62451 29.3852L0.6875 24.4478C0.594238 24.3546 0.542969 24.2303 0.542969 24.0978V0.978882C0.542969 0.706116 0.764038 0.484131 1.03601 0.484131H20.8746C21.1475 0.484131 21.3694 0.706116 21.3694 0.978882V4.26941C21.3694 4.54224 21.1475 4.76416 20.8746 4.76416C20.6019 4.76416 20.38 4.54224 20.38 4.26941V1.47363H1.53064V23.8936L6.17883 28.5419H20.38V25.7134C20.38 25.4416 20.6019 25.2204 20.8746 25.2204C21.1475 25.2204 21.3694 25.4416 21.3694 25.7134V29.0366C21.3694 29.3093 21.1475 29.5312 20.8746 29.5312ZM1.03601 0.699036C0.882568 0.699036 0.757812 0.824585 0.757812 0.978882V24.0978C0.757812 24.1729 0.786743 24.2433 0.839355 24.2959L5.77637 29.2333C5.82996 29.2869 5.8999 29.3163 5.97314 29.3163H20.8746C21.0291 29.3163 21.1545 29.1909 21.1545 29.0366V25.7134C21.1545 25.56 21.0291 25.4352 20.8746 25.4352C20.7203 25.4352 20.5948 25.56 20.5948 25.7134V28.7567H6.08984L1.3158 23.9825V1.25879H20.5948V4.26941C20.5948 4.42377 20.7203 4.54932 20.8746 4.54932C21.0291 4.54932 21.1545 4.42377 21.1545 4.26941V0.978882C21.1545 0.824585 21.0291 0.699036 20.8746 0.699036H1.03601Z" fill="#3B82F6"/>
<path d="M5.97333 29.4237C5.87286 29.4237 5.77362 29.3835 5.69916 29.3092L0.762144 24.3718C0.650449 24.2618 0.617979 24.0945 0.678404 23.9503C0.737363 23.8064 0.878355 23.7118 1.0346 23.7118H5.97967C6.08197 23.7118 6.18109 23.7521 6.25384 23.825C6.3266 23.8977 6.36688 23.9969 6.36688 24.0991L6.35919 29.0365C6.35919 29.1929 6.26459 29.3339 6.12066 29.3943C6.07257 29.4128 6.02301 29.4237 5.97333 29.4237ZM1.96893 24.4849L5.58771 28.1039L5.59234 24.4849H1.96893Z" fill="#3B82F6"/>
<path d="M5.97385 29.5311C5.84421 29.5311 5.71664 29.4779 5.62363 29.3851L0.686614 24.4478C0.543792 24.307 0.501556 24.0953 0.579925 23.9088C0.655486 23.7242 0.834319 23.6044 1.03512 23.6044H5.98019C6.11081 23.6044 6.23837 23.6571 6.33029 23.7489C6.42221 23.8408 6.47482 23.9685 6.47482 24.0991L6.46713 29.0366C6.46713 29.2365 6.34762 29.4158 6.16269 29.4934C6.09701 29.5188 6.03451 29.5311 5.97385 29.5311ZM1.03512 23.8192C0.921844 23.8192 0.821014 23.8867 0.778289 23.9911C0.733977 24.0969 0.757415 24.2159 0.837981 24.2953L5.7756 29.2332C5.82846 29.286 5.90073 29.3163 5.97385 29.3163C6.0079 29.3163 6.0444 29.3088 6.08249 29.2942C6.18454 29.2512 6.25229 29.1497 6.25229 29.0365L6.25998 24.099C6.25998 24.025 6.23019 23.9528 6.17844 23.9009C6.12643 23.849 6.05429 23.8192 5.98019 23.8192H1.03512ZM5.69528 28.3629L1.71005 24.3774H5.70041L5.69528 28.3629ZM2.22873 24.5923L5.48117 27.8448L5.48532 24.5923H2.22873Z" fill="#3B82F6"/>
</svg>
