<svg width="35" height="34" viewBox="0 0 35 34" fill="none" xmlns="http://www.w3.org/2000/svg">
<path d="M25.124 28.3414H22.4055C22.1711 28.3414 21.9766 28.163 21.9568 27.9304L21.7729 25.8285C20.8679 25.641 20.0061 25.3112 19.2041 24.8424L17.6504 26.1458C17.4719 26.2971 17.2085 26.2845 17.0427 26.1206L15.1211 24.1971C14.9551 24.0331 14.9443 23.7681 15.094 23.5896L16.3396 22.106C15.8079 21.2859 15.4275 20.3953 15.2041 19.4489L13.311 19.2831C13.0789 19.2633 12.9004 19.0685 12.9004 18.8361V16.1157C12.9004 15.8833 13.0789 15.6886 13.311 15.6687L15.2041 15.5029C15.4275 14.5565 15.8079 13.666 16.3396 12.8458L15.094 11.3623C14.9443 11.1838 14.9551 10.9187 15.1211 10.7546L17.0427 8.8313C17.2085 8.66736 17.4719 8.65466 17.6504 8.80603L19.2041 10.1094C20.0061 9.64075 20.8679 9.31079 21.7729 9.12329L21.9568 7.02148C21.9766 6.78882 22.1711 6.61035 22.4055 6.61035H25.124C25.3584 6.61035 25.553 6.78882 25.5728 7.02148L25.7676 9.25488C26.5967 9.48206 27.3792 9.83179 28.1038 10.2969L29.8794 8.80603C30.0579 8.65466 30.321 8.66736 30.4868 8.8313L32.4084 10.7546C32.5742 10.9187 32.5852 11.1838 32.4355 11.3623L30.8853 13.2081C31.2944 13.9147 31.5974 14.6683 31.7883 15.4561L34.2183 15.6687C34.4509 15.6886 34.6294 15.8833 34.6294 16.1157V18.8361C34.6294 19.0685 34.4509 19.2633 34.2183 19.2831L31.7883 19.4957C31.5974 20.2836 31.2944 21.0371 30.8853 21.7437L32.4355 23.5896C32.5852 23.7681 32.5742 24.0331 32.4084 24.1971L30.4868 26.1206C30.321 26.2845 30.0579 26.2971 29.8794 26.1458L28.1038 24.6569C27.3792 25.12 26.5967 25.4697 25.7676 25.6969L25.5728 27.9304C25.553 28.163 25.3584 28.3414 25.124 28.3414ZM22.8184 27.4401H24.7112L24.8987 25.3003C24.9148 25.1074 25.0554 24.947 25.2446 24.902C26.1929 24.6803 27.0762 24.2855 27.875 23.7247C28.0425 23.6077 28.2659 23.6166 28.4229 23.7482L30.1426 25.1921L31.4802 23.8528L29.9895 22.0754C29.863 21.9258 29.8489 21.7112 29.9534 21.5454C30.4526 20.7559 30.7969 19.896 30.979 18.9874C31.0186 18.7909 31.1826 18.6449 31.3828 18.6268L33.7297 18.4232V16.5286L31.3828 16.325C31.1826 16.3069 31.0186 16.1609 30.979 15.9644C30.7969 15.0559 30.4526 14.1959 29.9534 13.4064C29.8489 13.2406 29.863 13.026 29.9895 12.8765L31.4802 11.0991L30.1426 9.75964L28.4229 11.2036C28.2659 11.3334 28.0425 11.3442 27.875 11.2271C27.0762 10.6682 26.1929 10.2716 25.2446 10.0499C25.0554 10.0049 24.9148 9.84436 24.8987 9.65149L24.7112 7.51172H22.8184L22.6399 9.54333C22.6218 9.7489 22.4688 9.91467 22.2649 9.94897C21.2429 10.1147 20.282 10.4825 19.406 11.0413C19.2402 11.1477 19.0256 11.1333 18.8743 11.0071L17.387 9.75964L16.0493 11.0991L17.2483 12.5286C17.3799 12.6836 17.3889 12.9108 17.2715 13.0765C16.6443 13.9635 16.2207 14.9495 16.0151 16.0095C15.9773 16.2061 15.8132 16.3538 15.6133 16.3718L13.7996 16.5286V18.4232L15.6133 18.5819C15.8132 18.598 15.9773 18.746 16.0151 18.9424C16.2207 20.0023 16.6443 20.9884 17.2715 21.8752C17.3889 22.043 17.3799 22.2683 17.2483 22.4233L16.0493 23.8528L17.387 25.1921L18.8743 23.9447C19.0256 23.8185 19.2402 23.8041 19.406 23.9105C20.282 24.4694 21.2429 24.837 22.2649 25.0028C22.4688 25.0371 22.6218 25.203 22.6399 25.4084L22.8184 27.4401Z" fill="#3B82F6"/>
<path d="M25.124 28.4664H22.4055C22.1041 28.4664 21.8577 28.2405 21.8323 27.941L21.6565 25.9315C20.7987 25.7442 19.9791 25.4293 19.2174 24.9944L17.7307 26.2415C17.6281 26.3286 17.4967 26.3768 17.3613 26.3768C17.2084 26.3768 17.064 26.3174 16.9548 26.2095L15.0327 24.2855C14.8228 24.0781 14.8074 23.7369 14.9982 23.5093L16.1848 22.096C15.6887 21.3129 15.3253 20.4623 15.1036 19.5656L13.3002 19.4076C13.006 19.3826 12.7754 19.1315 12.7754 18.8361V16.1157C12.7754 15.8204 13.006 15.5694 13.3004 15.5442L15.1036 15.3862C15.3253 14.4896 15.6886 13.6392 16.1847 12.8558L14.9983 11.4427C14.8074 11.215 14.8228 10.8738 15.0332 10.6657L16.9543 8.74298C17.064 8.63446 17.2084 8.57501 17.3615 8.57501C17.4967 8.57501 17.6281 8.62317 17.7312 8.71069L19.2174 9.95734C19.9794 9.5224 20.7991 9.20752 21.6565 9.02026L21.8323 7.01062C21.8577 6.7113 22.1041 6.48535 22.4055 6.48535H25.124C25.4254 6.48535 25.6719 6.7113 25.6973 7.01093L25.8846 9.15778C26.662 9.37933 27.4043 9.71021 28.0935 10.1423L29.7991 8.71033C29.9017 8.62317 30.033 8.57501 30.1682 8.57501C30.3212 8.57501 30.4656 8.63446 30.5747 8.74243L32.4968 10.6663C32.7067 10.874 32.722 11.2152 32.5314 11.4426L31.0371 13.2217C31.415 13.8898 31.701 14.6014 31.8882 15.3393L34.2291 15.5442C34.5236 15.5693 34.7544 15.8204 34.7544 16.1157V18.8361C34.7544 19.1315 34.5236 19.3826 34.2289 19.4077L31.8882 19.6125C31.701 20.3503 31.415 21.0619 31.0371 21.73L32.5312 23.5092C32.722 23.7367 32.7067 24.0779 32.4963 24.286L30.5752 26.2089C30.4656 26.3174 30.3213 26.3768 30.1683 26.3768C30.0331 26.3768 29.9017 26.3286 29.7986 26.2411L28.0934 24.8113C27.4027 25.2427 26.6604 25.5729 25.8846 25.794L25.6973 27.9413C25.6719 28.2405 25.4254 28.4664 25.124 28.4664ZM19.1912 24.6901L19.2672 24.7345C20.0537 25.1942 20.9053 25.5211 21.7983 25.7061L21.8894 25.725L22.0813 27.9196C22.0957 28.0889 22.2351 28.2164 22.4055 28.2164H25.124C25.2944 28.2164 25.4338 28.0889 25.4482 27.9199L25.6506 25.5994L25.7345 25.5764C26.5458 25.3541 27.3203 25.0093 28.0365 24.5515L28.1138 24.5021L29.9597 26.05C30.0183 26.0997 30.0923 26.1268 30.1683 26.1268C30.255 26.1268 30.3369 26.0931 30.3989 26.0317L32.3201 24.1088C32.4391 23.991 32.4475 23.7984 32.3397 23.6699L30.7332 21.7569L30.7771 21.681C31.1799 20.9854 31.4792 20.2403 31.6669 19.4663L31.688 19.379L34.2074 19.1586C34.374 19.1444 34.5044 19.0027 34.5044 18.8361V16.1157C34.5044 15.9492 34.374 15.8075 34.2076 15.7933L31.688 15.5728L31.6669 15.4855C31.4792 14.7114 31.1799 13.9663 30.7771 13.2708L30.7332 13.1949L32.3398 11.2819C32.4475 11.1534 32.4391 10.9608 32.3206 10.8435L30.3984 8.91968C30.3368 8.85883 30.2549 8.82501 30.1682 8.82501C30.0922 8.82501 30.0183 8.85211 29.9602 8.90137L28.1136 10.4518L28.0363 10.4021C27.3219 9.9436 26.5475 9.59821 25.7345 9.37543L25.6506 9.35242L25.4482 7.03235C25.4338 6.86292 25.2944 6.73535 25.124 6.73535H22.4055C22.2351 6.73535 22.0957 6.86292 22.0813 7.03204L21.8894 9.22681L21.7983 9.24567C20.9056 9.43066 20.054 9.75751 19.2672 10.2173L19.1912 10.2617L17.5701 8.90179C17.5115 8.85211 17.4376 8.82501 17.3615 8.82501C17.2747 8.82501 17.1926 8.85883 17.1306 8.92017L15.2095 10.843C15.0903 10.9608 15.0819 11.1534 15.1898 11.282L16.4948 12.8362L16.4445 12.9138C15.9219 13.7199 15.5455 14.6006 15.3258 15.5317L15.3051 15.6196L13.3219 15.7932C13.1555 15.8075 13.0254 15.9492 13.0254 16.1157V18.8361C13.0254 19.0027 13.1555 19.1444 13.3217 19.1585L15.3051 19.3322L15.3258 19.4201C15.5455 20.3513 15.922 21.2321 16.4445 22.038L16.4948 22.1155L15.1897 23.67C15.0819 23.7985 15.0903 23.991 15.209 24.1082L17.1311 26.0322C17.1926 26.0931 17.2745 26.1268 17.3613 26.1268C17.4375 26.1268 17.5115 26.0997 17.5696 26.0504L19.1912 24.6901ZM24.8257 27.5651H22.7039L22.5154 25.4194C22.5023 25.2714 22.3909 25.1508 22.2441 25.1261C21.2076 24.9579 20.2299 24.5844 19.3387 24.0159C19.2216 23.9407 19.0612 23.9515 18.9543 24.0407L17.3795 25.3616L15.88 23.8601L17.1525 22.343C17.2476 22.2311 17.2542 22.0684 17.1691 21.947C16.5305 21.044 16.1008 20.041 15.8925 18.9662C15.8651 18.8248 15.7462 18.718 15.6033 18.7065L13.6746 18.5378V16.4139L15.6025 16.2473C15.7458 16.2343 15.8652 16.1268 15.8923 15.9859C16.1008 14.911 16.5305 13.908 17.1694 13.0044C17.2549 12.8838 17.248 12.7214 17.153 12.6094L15.88 11.0918L17.3795 9.59021L18.9546 10.9113C19.061 11 19.2219 11.0109 19.3385 10.9361C20.2301 10.3674 21.2079 9.99377 22.2449 9.82556C22.3909 9.80103 22.5023 9.68042 22.5154 9.53241L22.7039 7.38672H24.8257L25.0232 9.64056C25.0349 9.78003 25.1355 9.89545 25.2736 9.92834C26.2332 10.1526 27.1327 10.5552 27.9467 11.1246C28.0642 11.207 28.2317 11.1995 28.3433 11.1072L30.15 9.59021L31.6495 11.0918L30.0853 12.9568C29.9934 13.0654 29.983 13.2191 30.0591 13.3397C30.5654 14.1404 30.9163 15.0153 31.1016 15.9398C31.1302 16.0825 31.2478 16.1873 31.394 16.2004L33.8547 16.4139V18.5378L31.3936 18.7513C31.2478 18.7645 31.1302 18.8693 31.1016 19.0121C30.9163 19.9364 30.5656 20.8113 30.0591 21.6122C29.983 21.7327 29.9935 21.8865 30.085 21.9948L31.6495 23.8602L30.15 25.3616L28.3425 23.8439C28.2322 23.7516 28.0651 23.7443 27.9467 23.8272C27.1368 24.3957 26.2372 24.7983 25.2731 25.0237C25.1355 25.0565 25.0348 25.1719 25.0232 25.3107L24.8257 27.5651ZM22.9329 27.3151H24.5967L24.7742 25.2894C24.7947 25.0431 24.9722 24.8383 25.2157 24.7804C26.149 24.5622 27.0194 24.1726 27.8032 23.6224C27.9011 23.554 28.0155 23.5178 28.134 23.5178C28.2686 23.5178 28.3997 23.5656 28.5032 23.6523L30.1351 25.0227L31.3109 23.8454L29.8937 22.1558C29.7318 21.9642 29.7133 21.692 29.8477 21.4788C30.3378 20.7036 30.6771 19.8572 30.8564 18.9629C30.9072 18.7106 31.1143 18.5256 31.3716 18.5023L33.6047 18.3086V16.6432L31.3721 16.4495C31.1143 16.4262 30.9072 16.2412 30.8564 15.989C30.6771 15.0945 30.3378 14.2481 29.8478 13.4732C29.7131 13.2598 29.7318 12.9875 29.894 12.7957L31.3109 11.1064L30.1351 9.92908L28.5032 11.2993C28.3984 11.386 28.2671 11.4334 28.1328 11.4334C28.0144 11.4334 27.9005 11.3975 27.8033 11.3295C27.0156 10.7784 26.1451 10.3888 25.2162 10.1716C24.9722 10.1136 24.7947 9.90875 24.7742 9.66187L24.5967 7.63672H22.9329L22.7644 9.55426C22.7415 9.81567 22.5446 10.0287 22.2856 10.0723C21.2817 10.2351 20.3357 10.5966 19.4733 11.1467C19.3809 11.2059 19.2738 11.2374 19.1639 11.2374C19.0294 11.2374 18.8981 11.1897 18.7942 11.1031L17.3944 9.92908L16.2186 11.1064L17.3441 12.4482C17.5126 12.6468 17.5249 12.9351 17.3735 13.1488C16.7552 14.0231 16.3395 14.9937 16.1378 16.0333C16.0898 16.2829 15.8787 16.4733 15.6245 16.4963L13.9246 16.6432V18.3087L15.6241 18.4574C15.8779 18.4778 16.0895 18.6675 16.1378 18.9187C16.3395 19.9583 16.7552 20.9288 17.3735 21.803C17.524 22.0181 17.5116 22.3062 17.3436 22.5042L16.2186 23.8455L17.3944 25.0227L18.7939 23.8489C18.8981 23.7621 19.0294 23.7144 19.1639 23.7144C19.2738 23.7144 19.3809 23.7458 19.4735 23.8054C20.3354 24.3552 21.2815 24.7167 22.2849 24.8794C22.5446 24.9231 22.7415 25.1361 22.7644 25.3975L22.9329 27.3151Z" fill="#3B82F6"/>
<path d="M23.7651 22.865C20.7942 22.865 18.377 20.4476 18.377 17.4768C18.377 14.5043 20.7942 12.0869 23.7651 12.0869C26.7375 12.0869 29.155 14.5043 29.155 17.4768C29.155 20.4476 26.7375 22.865 23.7651 22.865ZM23.7651 12.9882C21.29 12.9882 19.2764 15.0018 19.2764 17.4768C19.2764 19.9501 21.29 21.9636 23.7651 21.9636C26.24 21.9636 28.2537 19.9501 28.2537 17.4768C28.2537 15.0018 26.24 12.9882 23.7651 12.9882Z" fill="#3B82F6"/>
<path d="M23.7651 22.99C20.7252 22.99 18.252 20.5168 18.252 17.4768C18.252 14.4359 20.7252 11.9619 23.7651 11.9619C26.806 11.9619 29.28 14.4359 29.28 17.4768C29.28 20.5168 26.806 22.99 23.7651 22.99ZM23.7651 12.2119C20.863 12.2119 18.502 14.5737 18.502 17.4768C18.502 20.3789 20.863 22.74 23.7651 22.74C26.6682 22.74 29.03 20.3789 29.03 17.4768C29.03 14.5737 26.6682 12.2119 23.7651 12.2119ZM23.7651 22.0886C21.2211 22.0886 19.1514 20.0198 19.1514 17.4768C19.1514 14.9329 21.2211 12.8632 23.7651 12.8632C26.3091 12.8632 28.3787 14.9329 28.3787 17.4768C28.3787 20.0198 26.3091 22.0886 23.7651 22.0886ZM23.7651 13.1132C21.359 13.1132 19.4014 15.0707 19.4014 17.4768C19.4014 19.8819 21.359 21.8386 23.7651 21.8386C26.1711 21.8386 28.1287 19.8819 28.1287 17.4768C28.1287 15.0707 26.1711 13.1132 23.7651 13.1132Z" fill="#3B82F6"/>
<path d="M23.7651 20.9252C23.5161 20.9252 23.3145 20.7233 23.3145 20.4745V14.4446C23.3145 14.1958 23.5161 13.9939 23.7651 13.9939C24.0137 13.9939 24.2158 14.1958 24.2158 14.4446V20.4745C24.2158 20.7233 24.0137 20.9252 23.7651 20.9252Z" fill="#3B82F6"/>
<path d="M23.7651 21.0502C23.4478 21.0502 23.1895 20.7919 23.1895 20.4745V14.4446C23.1895 14.1271 23.4478 13.8689 23.7651 13.8689C24.0825 13.8689 24.3408 14.1271 24.3408 14.4446V20.4745C24.3408 20.7919 24.0825 21.0502 23.7651 21.0502ZM23.7651 14.1189C23.5856 14.1189 23.4395 14.265 23.4395 14.4446V20.4745C23.4395 20.6541 23.5856 20.8002 23.7651 20.8002C23.9447 20.8002 24.0908 20.6541 24.0908 20.4745V14.4446C24.0908 14.265 23.9447 14.1189 23.7651 14.1189Z" fill="#3B82F6"/>
<path d="M23.7661 33.8593H6.42627C6.30737 33.8593 6.1936 33.8107 6.10889 33.726L0.364014 27.9808C0.279297 27.8961 0.232422 27.7826 0.232422 27.6619V0.760742C0.232422 0.511963 0.432617 0.310059 0.681152 0.310059H23.7661C24.0146 0.310059 24.2168 0.511963 24.2168 0.760742V4.5896C24.2168 4.83838 24.0146 5.04028 23.7661 5.04028C23.5171 5.04028 23.3154 4.83838 23.3154 4.5896V1.21143H1.13184V27.4761L6.61377 32.958H23.3154V29.5419C23.3154 29.2932 23.5171 29.0931 23.7661 29.0931C24.0146 29.0931 24.2168 29.2932 24.2168 29.5419V33.4087C24.2168 33.6575 24.0146 33.8593 23.7661 33.8593Z" fill="#3B82F6"/>
<path d="M23.7661 33.9843H6.42627C6.27417 33.9843 6.13013 33.9239 6.02051 33.8143L0.275635 28.0692C0.167114 27.9608 0.107422 27.8161 0.107422 27.6619V0.760742C0.107422 0.443298 0.364746 0.185059 0.681152 0.185059H23.7661C24.0835 0.185059 24.3418 0.443298 24.3418 0.760742V4.5896C24.3418 4.90704 24.0835 5.16528 23.7661 5.16528C23.4487 5.16528 23.1904 4.90704 23.1904 4.5896V1.33643H1.25684V27.4243L6.66553 32.833H23.1904V29.5419C23.1904 29.2255 23.4487 28.9681 23.7661 28.9681C24.0835 28.9681 24.3418 29.2255 24.3418 29.5419V33.4087C24.3418 33.7261 24.0835 33.9843 23.7661 33.9843ZM0.681152 0.435059C0.502686 0.435059 0.357422 0.581177 0.357422 0.760742V27.6619C0.357422 27.7493 0.391113 27.8312 0.452393 27.8925L6.19727 33.6376C6.25964 33.6999 6.34094 33.7343 6.42627 33.7343H23.7661C23.9457 33.7343 24.0918 33.5882 24.0918 33.4087V29.5419C24.0918 29.3633 23.9457 29.2181 23.7661 29.2181C23.5865 29.2181 23.4404 29.3633 23.4404 29.5419V33.083H6.56201L1.00684 27.5278V1.08643H23.4404V4.5896C23.4404 4.76917 23.5865 4.91528 23.7661 4.91528C23.9457 4.91528 24.0918 4.76917 24.0918 4.5896V0.760742C24.0918 0.581177 23.9457 0.435059 23.7661 0.435059H0.681152Z" fill="#3B82F6"/>
<path d="M6.4267 33.8593C6.30976 33.8593 6.19428 33.8125 6.10761 33.726L0.362739 27.9808C0.232856 27.8529 0.195014 27.6582 0.265327 27.4905C0.33393 27.323 0.497993 27.2129 0.679877 27.2129H6.43403C6.55317 27.2129 6.6684 27.2598 6.75312 27.3445C6.83784 27.4292 6.88471 27.5447 6.88471 27.6636L6.87568 33.4087C6.87568 33.5907 6.76557 33.7548 6.59809 33.8251C6.54218 33.8467 6.48456 33.8593 6.4267 33.8593ZM1.76704 28.1124L5.97797 32.3235L5.98334 28.1124H1.76704Z" fill="#3B82F6"/>
<path d="M6.42728 33.9843C6.2764 33.9843 6.12797 33.9224 6.01981 33.8144L0.274939 28.0692C0.108679 27.9055 0.0596067 27.6591 0.150671 27.4421C0.238684 27.2273 0.446692 27.0879 0.680456 27.0879H6.43461C6.58671 27.0879 6.73514 27.1492 6.84208 27.2561C6.94901 27.363 7.01029 27.5115 7.01029 27.6636L7.00126 33.4089C7.00126 33.6413 6.86222 33.85 6.64701 33.9403C6.57059 33.9699 6.49784 33.9843 6.42728 33.9843ZM0.680456 27.3379C0.54862 27.3379 0.431311 27.4164 0.381628 27.5378C0.329992 27.661 0.357336 27.7996 0.451086 27.8918L6.19657 33.6376C6.25809 33.699 6.3422 33.7343 6.42728 33.7343C6.46683 33.7343 6.50931 33.7256 6.55363 33.7085C6.6724 33.6586 6.75126 33.5403 6.75126 33.4087L6.76029 27.6634C6.76029 27.5773 6.72562 27.4932 6.66532 27.4329C6.60489 27.3725 6.52091 27.3379 6.43461 27.3379H0.680456ZM6.10319 32.6249L1.46586 27.9874H6.10905L6.10319 32.6249ZM2.06937 28.2374L5.85392 32.0221L5.8588 28.2374H2.06937Z" fill="#3B82F6"/>
</svg>
