<svg width="31" height="34" viewBox="0 0 31 34" fill="none" xmlns="http://www.w3.org/2000/svg">
<path d="M23.5163 21.4146C23.5163 21.1992 23.3412 21.0239 23.1258 21.0239L13.0766 21.0239C12.8607 21.0239 12.6855 21.1992 12.6855 21.4146L12.6855 28.4618C12.6855 28.6769 12.8607 28.8522 13.0766 28.8522L23.1258 28.8522C23.1757 28.8522 23.2248 28.8412 23.2704 28.8234C23.2866 28.8168 23.2998 28.8054 23.3148 28.7963C23.3381 28.7837 23.3628 28.7736 23.3831 28.7556C23.3868 28.7527 23.388 28.7484 23.3916 28.7449C23.4101 28.7273 23.4228 28.7058 23.4378 28.6848C23.4522 28.6645 23.469 28.6457 23.4792 28.6231C23.4893 28.6014 23.4918 28.5768 23.4978 28.5533C23.5032 28.5313 23.514 28.5101 23.5157 28.487C23.5157 28.4827 23.514 28.4785 23.514 28.4741C23.514 28.4701 23.5163 28.4659 23.5163 28.4618L23.5163 21.4146ZM22.7347 21.8051L22.7347 27.4227L20.4008 24.7599C20.255 24.5938 19.9575 24.5938 19.8123 24.7599L18.597 26.1468L16.0393 23.2283C15.8941 23.0624 15.5966 23.0624 15.4514 23.2283L13.4671 25.4922L13.4671 21.8051L22.7347 21.8051ZM13.4671 28.071L13.4671 26.6782L15.7454 24.079L18.0775 26.7401L16.9109 28.071L13.4671 28.071ZM20.1062 25.6105L22.2633 28.071L17.9498 28.071L20.1062 25.6105Z" fill="#3B82F6"/>
<path d="M13.077 20.9181L23.1262 20.9181C23.3999 20.9181 23.6225 21.1407 23.6225 21.4145L23.6225 28.4618C23.6225 28.4673 23.6221 28.4725 23.6215 28.4771C23.6218 28.4802 23.622 28.4835 23.622 28.4869L23.6216 28.4951C23.6195 28.523 23.6116 28.5463 23.6058 28.5632C23.6041 28.5684 23.6022 28.5733 23.6009 28.5785C23.5993 28.5851 23.5981 28.591 23.5969 28.5966C23.5928 28.6169 23.5877 28.6419 23.5753 28.6679C23.5637 28.6941 23.5475 28.7154 23.5345 28.7325C23.5311 28.737 23.5276 28.7416 23.5244 28.7462L23.5153 28.7593C23.5042 28.7754 23.4908 28.7952 23.4722 28.8144C23.4674 28.821 23.4611 28.8284 23.4524 28.836C23.4279 28.8576 23.4014 28.8712 23.38 28.882L23.3677 28.8885C23.3651 28.8901 23.3627 28.8918 23.3602 28.8936C23.3483 28.9016 23.332 28.9127 23.3108 28.9215C23.2481 28.9457 23.1865 28.9581 23.1262 28.9581L13.077 28.9581C12.803 28.9581 12.5801 28.7354 12.5801 28.4618L12.5801 21.4145C12.5801 21.1407 12.803 20.9181 13.077 20.9181ZM23.4109 28.4508L23.4109 21.4145C23.4109 21.2575 23.2832 21.1298 23.1262 21.1298L13.077 21.1298C12.9197 21.1298 12.7917 21.2575 12.7917 21.4145L12.7917 28.4618C12.7917 28.6187 12.9197 28.7464 13.077 28.7464L23.1262 28.7464C23.1601 28.7464 23.1958 28.739 23.2324 28.7249C23.2324 28.7249 23.2369 28.7214 23.2405 28.7189C23.247 28.7147 23.2536 28.71 23.2603 28.7058L23.2649 28.7032C23.2713 28.6999 23.2777 28.6966 23.2841 28.6934C23.2931 28.6887 23.3017 28.6843 23.3078 28.6805C23.3106 28.6771 23.3139 28.6733 23.3178 28.6694C23.3252 28.6624 23.3322 28.6521 23.3405 28.6402L23.3519 28.6235C23.3565 28.6171 23.3612 28.6108 23.366 28.6046C23.3728 28.5956 23.3806 28.5851 23.3832 28.5796C23.3854 28.5746 23.3879 28.5629 23.3895 28.5544C23.3914 28.5452 23.3933 28.5362 23.3956 28.5272C23.3982 28.5169 23.4018 28.5059 23.4055 28.4949C23.4066 28.4916 23.408 28.4879 23.409 28.4846C23.4087 28.4813 23.4086 28.478 23.4086 28.4741C23.4086 28.4649 23.4097 28.457 23.4109 28.4508ZM13.3617 21.6993L22.8409 21.6993L22.8409 27.7039L20.3216 24.8295C20.273 24.7742 20.1926 24.7411 20.1067 24.7411C20.0208 24.7411 19.9407 24.7742 19.8923 24.8295L18.5974 26.3074L18.5178 26.2165L15.9601 23.2979C15.9116 23.2426 15.8315 23.2098 15.7457 23.2098C15.6599 23.2098 15.5798 23.2426 15.5314 23.2979L13.3617 25.7735L13.3617 21.6993ZM22.6293 21.9108L13.5734 21.9108L13.5734 25.2111L15.3722 23.1587C15.4614 23.0565 15.5976 22.9981 15.7457 22.9981C15.8939 22.9981 16.0301 23.0565 16.1193 23.1587L18.5974 25.9862L19.7331 24.6902C19.8223 24.5881 19.9585 24.5295 20.1067 24.5295C20.2548 24.5295 20.3911 24.5879 20.4807 24.69L22.6293 27.1414L22.6293 21.9108ZM15.7458 23.9184L15.8253 24.0093L18.2186 26.7401L16.9592 28.1769L13.3617 28.1769L13.3617 26.6383L15.7458 23.9184ZM17.9372 26.7401L15.7458 24.2396L13.5734 26.718L13.5734 27.9652L16.8633 27.9652L17.9372 26.7401ZM20.1066 25.4499L22.4971 28.1769L17.7168 28.1769L20.1066 25.4499ZM22.0302 27.9652L20.1066 25.7711L18.1836 27.9652L22.0302 27.9652Z" fill="#3B82F6"/>
<path d="M21.2616 24.4294C21.7967 24.4294 22.2315 23.9946 22.2315 23.4595C22.2315 22.9243 21.7967 22.4889 21.2616 22.4889C20.7265 22.4889 20.291 22.9243 20.291 23.4595C20.291 23.9946 20.7265 24.4294 21.2616 24.4294ZM21.2616 23.6484C21.1573 23.6484 21.0727 23.5639 21.0727 23.4595C21.0727 23.3548 21.1573 23.2705 21.2616 23.2705C21.366 23.2705 21.4506 23.3548 21.4506 23.4595C21.4506 23.5639 21.366 23.6484 21.2616 23.6484Z" fill="#3B82F6"/>
<path d="M21.2618 24.5354C20.6684 24.5354 20.1855 24.053 20.1855 23.4597C20.1855 22.866 20.6684 22.3832 21.2618 22.3832C21.8551 22.3832 22.3377 22.866 22.3377 23.4597C22.3377 24.053 21.8551 24.5354 21.2618 24.5354ZM21.2618 22.5949C20.785 22.5949 20.3971 22.9829 20.3971 23.4597C20.3971 23.9361 20.785 24.3238 21.2618 24.3238C21.7383 24.3238 22.126 23.9361 22.126 23.4597C22.126 22.9829 21.7383 22.5949 21.2618 22.5949ZM21.2618 23.7544C21.0994 23.7544 20.9671 23.6221 20.9671 23.4597C20.9671 23.2971 21.0994 23.165 21.2618 23.165C21.4244 23.165 21.5566 23.2971 21.5566 23.4597C21.5566 23.6221 21.4244 23.7544 21.2618 23.7544Z" fill="#3B82F6"/>
<path d="M29.726 31.2904L10.042 31.2904C9.82969 31.2904 9.6582 31.1184 9.6582 30.9066L9.6582 7.96372C9.6582 7.8616 9.69834 7.76418 9.77029 7.69235L14.6693 2.79505C14.7413 2.72322 14.839 2.6825 14.941 2.6825L29.726 2.6825C29.9377 2.6825 30.1093 2.85402 30.1093 3.06643L30.1093 30.9066C30.1093 31.1184 29.9377 31.2904 29.726 31.2904ZM10.4253 30.5227L29.3421 30.5227L29.3421 3.45024L15.1 3.45024L10.4253 8.12265L10.4253 30.5227Z" fill="#3B82F6"/>
<path d="M29.7264 31.3964L10.0424 31.3964C9.77239 31.3964 9.55273 31.1766 9.55273 30.9067L9.55273 7.96377C9.55273 7.8327 9.60358 7.7097 9.69585 7.61762L14.5949 2.72033C14.6862 2.62908 14.8125 2.57666 14.9414 2.57666L29.7264 2.57666C29.9961 2.57666 30.2155 2.79644 30.2155 3.06648L30.2155 30.9067C30.2155 31.1766 29.9961 31.3964 29.7264 31.3964ZM14.9414 2.78828C14.8682 2.78828 14.7964 2.81802 14.7445 2.86989L9.8455 7.76718C9.79313 7.81959 9.76435 7.88939 9.76435 7.96377L9.76435 30.9067C9.76435 31.0601 9.88909 31.1847 10.0424 31.1847L29.7264 31.1847C29.8794 31.1847 30.0039 31.0601 30.0039 30.9067L30.0039 3.06648C30.0039 2.91332 29.8794 2.78828 29.7264 2.78828L14.9414 2.78828ZM29.4483 30.6285L10.3199 30.6285L10.3199 8.07877L15.0565 3.34441L29.4483 3.34441L29.4483 30.6285ZM10.5315 30.417L29.2367 30.417L29.2367 3.55615L15.1441 3.55615L10.5315 8.16641L10.5315 30.417Z" fill="#3B82F6"/>
<path d="M10.0424 8.34773C9.94405 8.34773 9.84567 8.31061 9.77066 8.23489C9.62072 8.08514 9.62072 7.84264 9.77066 7.69269L14.6702 2.79285C14.8202 2.64294 15.0631 2.64294 15.2125 2.79285C15.3625 2.94292 15.3625 3.18604 15.2125 3.3358L10.3135 8.23489C10.2386 8.31061 10.1402 8.34773 10.0424 8.34773Z" fill="#3B82F6"/>
<path d="M10.0427 8.4536C9.91124 8.4536 9.78805 8.40232 9.69585 8.30953C9.60366 8.21745 9.55273 8.09438 9.55273 7.96377C9.55273 7.83352 9.60362 7.71041 9.69613 7.61782L14.5958 2.71813C14.6882 2.6255 14.8112 2.57446 14.9419 2.57446C15.0727 2.57446 15.1956 2.6255 15.2878 2.71833C15.3802 2.81072 15.4311 2.9336 15.4311 3.06448C15.4311 3.19525 15.3802 3.31836 15.2877 3.41063L10.3887 8.30973C10.2968 8.40232 10.1739 8.4536 10.0427 8.4536ZM14.9419 2.78612C14.8677 2.78612 14.7979 2.81535 14.7454 2.86789L9.84578 7.76749C9.79328 7.81991 9.76441 7.88986 9.76441 7.96377C9.76441 8.03792 9.79325 8.10764 9.84578 8.16017C9.89825 8.2131 9.9681 8.2419 10.0427 8.2419C10.117 8.2419 10.1866 8.2131 10.2387 8.16049L15.1381 3.26108C15.1906 3.20847 15.2195 3.13863 15.2195 3.06448C15.2195 2.99002 15.1906 2.92018 15.138 2.86789C15.0856 2.81516 15.016 2.78612 14.9419 2.78612Z" fill="#3B82F6"/>
<path d="M14.941 8.35444L10.0415 8.34761C9.8291 8.34722 9.6576 8.17487 9.6582 7.96313C9.6582 7.75178 9.82969 7.57959 10.042 7.57959L14.5571 7.58641L14.5571 3.06395C14.5571 2.85209 14.7292 2.68018 14.941 2.68018C15.1534 2.68018 15.3249 2.85209 15.3249 3.06395L15.3249 7.97105C15.3249 8.07235 15.2841 8.17071 15.2122 8.24215C15.1407 8.31422 15.0424 8.35444 14.941 8.35444Z" fill="#3B82F6"/>
<path d="M14.9414 8.46022L10.0417 8.45355C9.91057 8.45328 9.78758 8.40208 9.69521 8.30922C9.60299 8.21647 9.5524 8.09359 9.55274 7.96279C9.55274 7.69342 9.7724 7.47379 10.0424 7.47379L14.4517 7.4805L14.4517 3.06401C14.4517 2.79412 14.6713 2.57434 14.9414 2.57434C15.2114 2.57434 15.4311 2.79412 15.4311 3.06401L15.4311 7.97095C15.4311 8.10014 15.3786 8.2264 15.2871 8.31738C15.197 8.40812 15.0708 8.46022 14.9414 8.46022ZM10.0423 7.68553C9.88909 7.68553 9.76435 7.8099 9.76435 7.96306C9.76416 8.03757 9.7928 8.1074 9.84517 8.15993C9.89766 8.21259 9.96757 8.24166 10.0421 8.24181L14.9415 8.24864C15.0149 8.24864 15.0864 8.21914 15.1375 8.16755C15.1898 8.11584 15.2195 8.04412 15.2195 7.97095L15.2195 3.06401C15.2195 2.91057 15.0947 2.78596 14.9414 2.78596C14.788 2.78596 14.6633 2.91057 14.6633 3.06401L14.6633 7.69247L10.0423 7.68553Z" fill="#3B82F6"/>
<path d="M26.744 8.73317L18.4835 8.73317C18.2712 8.73317 18.0996 8.5618 18.0996 8.34939C18.0996 8.13698 18.2712 7.96558 18.4835 7.96558L26.744 7.96558C26.9557 7.96558 27.1273 8.13698 27.1273 8.34939C27.1273 8.5618 26.9557 8.73317 26.744 8.73317Z" fill="#3B82F6"/>
<path d="M26.7443 8.83903L18.4838 8.83903C18.2138 8.83903 17.9941 8.61945 17.9941 8.34937C17.9941 8.07952 18.2138 7.85974 18.4838 7.85974L26.7443 7.85974C27.014 7.85974 27.2334 8.07952 27.2334 8.34937C27.2334 8.61945 27.014 8.83903 26.7443 8.83903ZM18.4838 8.07144C18.3304 8.07144 18.2057 8.19601 18.2057 8.34937C18.2057 8.50261 18.3304 8.62757 18.4838 8.62757L26.7443 8.62757C26.8973 8.62757 27.0218 8.50261 27.0218 8.34937C27.0218 8.19601 26.8973 8.07144 26.7443 8.07144L18.4838 8.07144Z" fill="#3B82F6"/>
<path d="M26.746 12.1876L13.0245 12.1876C12.8121 12.1876 12.6406 12.0161 12.6406 11.8043C12.6406 11.5917 12.8121 11.4203 13.0245 11.4203L26.746 11.4203C26.9578 11.4203 27.1294 11.5917 27.1294 11.8043C27.1294 12.0161 26.9578 12.1876 26.746 12.1876Z" fill="#3B82F6"/>
<path d="M26.7463 12.2934L13.0248 12.2934C12.7548 12.2934 12.5352 12.074 12.5352 11.8043C12.5352 11.5342 12.7548 11.3145 13.0248 11.3145L26.7463 11.3145C27.0161 11.3145 27.2355 11.5342 27.2355 11.8043C27.2355 12.074 27.0161 12.2934 26.7463 12.2934ZM13.0248 11.5262C12.8715 11.5262 12.7468 11.651 12.7468 11.8043C12.7468 11.9573 12.8715 12.0818 13.0248 12.0818L26.7463 12.0818C26.8993 12.0818 27.0239 11.9573 27.0239 11.8043C27.0239 11.651 26.8993 11.5262 26.7463 11.5262L13.0248 11.5262Z" fill="#3B82F6"/>
<path d="M26.746 15.6418L13.0245 15.6418C12.8121 15.6418 12.6406 15.4696 12.6406 15.258C12.6406 15.0458 12.8121 14.8741 13.0245 14.8741L26.746 14.8741C26.9578 14.8741 27.1294 15.0458 27.1294 15.258C27.1294 15.4696 26.9578 15.6418 26.746 15.6418Z" fill="#3B82F6"/>
<path d="M26.7463 15.7476L13.0248 15.7476C12.7548 15.7476 12.5352 15.5281 12.5352 15.2581C12.5352 14.9879 12.7548 14.7684 13.0248 14.7684L26.7463 14.7684C27.0161 14.7684 27.2355 14.9879 27.2355 15.2581C27.2355 15.5281 27.0161 15.7476 26.7463 15.7476ZM13.0248 14.9799C12.8715 14.9799 12.7468 15.1048 12.7468 15.2581C12.7468 15.4114 12.8715 15.536 13.0248 15.536L26.7463 15.536C26.8993 15.536 27.0239 15.4114 27.0239 15.2581C27.0239 15.1048 26.8993 14.9799 26.7463 14.9799L13.0248 14.9799Z" fill="#3B82F6"/>
<path d="M26.746 19.0957L13.0245 19.0957C12.8121 19.0957 12.6406 18.9242 12.6406 18.7124C12.6406 18.5 12.8121 18.3286 13.0245 18.3286L26.746 18.3286C26.9578 18.3286 27.1294 18.5 27.1294 18.7124C27.1294 18.9242 26.9578 19.0957 26.746 19.0957Z" fill="#3B82F6"/>
<path d="M26.7463 19.2016L13.0248 19.2016C12.7548 19.2016 12.5352 18.9821 12.5352 18.7125C12.5352 18.4426 12.7548 18.2229 13.0248 18.2229L26.7463 18.2229C27.0161 18.2229 27.2355 18.4426 27.2355 18.7125C27.2355 18.9821 27.0161 19.2016 26.7463 19.2016ZM13.0248 18.4345C12.8715 18.4345 12.7468 18.559 12.7468 18.7125C12.7468 18.8655 12.8715 18.9899 13.0248 18.9899L26.7463 18.9899C26.8993 18.9899 27.0239 18.8655 27.0239 18.7125C27.0239 18.559 26.8993 18.4345 26.7463 18.4345L13.0248 18.4345Z" fill="#3B82F6"/>
<path d="M7.45694 33.3057C7.23948 33.3057 7.04568 33.1598 6.98574 32.9509L0.666201 10.9116C0.665074 10.9084 0.664116 10.905 0.663159 10.9016L0.662426 10.899L0.66175 10.8967C0.644737 10.8374 0.63899 10.7767 0.644737 10.7165C0.650821 10.6493 0.670764 10.5847 0.704116 10.5246L0.864169 10.2362L4.05571 4.47815C4.1174 4.35803 4.22698 4.26785 4.35632 4.23073C4.3708 4.22661 4.38613 4.22302 4.40325 4.21974L18.5692 0.157683C18.6132 0.14507 18.6585 0.138672 18.7038 0.138672C18.921 0.138672 19.1145 0.284673 19.1745 0.493716L19.7717 2.57659H18.7536L18.3686 1.23404L5.09766 5.03946L6.31454 9.28337C6.3502 9.40751 6.33454 9.54331 6.27167 9.65592C6.2102 9.76809 6.10339 9.85291 5.97871 9.88863L1.73807 11.0983L7.79158 32.2104L10.6305 31.3964L14.1837 31.3964L7.59147 33.2868C7.54753 33.2993 7.50229 33.3057 7.45694 33.3057ZM4.34692 5.97489L2.13276 9.96714L5.23788 9.08185L4.34692 5.97489ZM9.55363 30.1041C9.39211 30.0545 9.26778 29.9283 9.22152 29.7667L7.27903 22.9924C7.24252 22.8651 7.25796 22.731 7.32241 22.6149C7.3868 22.4988 7.49249 22.4148 7.61986 22.3783L9.55363 21.8237V22.8564L8.37039 23.1957L9.28017 26.368L9.55363 25.7878V30.1041ZM6.96117 20.7617C6.74388 20.7618 6.55036 20.6161 6.49054 20.4076C6.41611 20.148 6.5667 19.8762 6.82619 19.8018L9.55363 19.0197V20.038L7.09593 20.7427C7.05193 20.7553 7.00658 20.7617 6.96117 20.7617ZM6.00953 17.4415C5.79196 17.4415 5.59827 17.2957 5.53844 17.0869C5.46402 16.8273 5.61461 16.5555 5.8741 16.4811L9.55363 15.426V16.4448L6.14406 17.4226C6.10006 17.4351 6.05483 17.4415 6.00953 17.4415ZM5.05699 14.1211C4.83975 14.1211 4.64623 13.9755 4.58635 13.7669C4.55035 13.6414 4.5655 13.5091 4.62894 13.3945C4.69249 13.2799 4.79654 13.197 4.922 13.1611L9.55363 11.833V12.8514L5.19197 14.1021C5.14786 14.1147 5.10251 14.1211 5.05699 14.1211ZM9.35408 9.29532C9.13674 9.29534 8.94316 9.14947 8.88333 8.9406C8.84733 8.81509 8.86243 8.6829 8.92592 8.5684C8.98936 8.4539 9.09347 8.371 9.21899 8.33498L9.55363 8.23903V9.25773L9.48895 9.27628C9.44496 9.28891 9.3996 9.29531 9.35408 9.29532Z" fill="#3B82F6"/>
</svg>
