<svg width="30" height="31" viewBox="0 0 30 31" fill="none" xmlns="http://www.w3.org/2000/svg">
<path d="M26.3982 21.4226C26.2856 21.4226 26.1719 21.3828 26.0803 21.301C25.8862 21.1259 25.8711 20.8254 26.0461 20.6294C27.9258 18.5502 28.9587 15.8603 28.9587 13.0563C28.9587 6.82239 23.887 1.75073 17.6533 1.75073C11.4192 1.75073 6.34766 6.82239 6.34766 13.0563C6.34766 15.0557 6.87622 17.0208 7.87671 18.7384C8.01001 18.9648 7.93408 19.2559 7.70801 19.3871C7.47949 19.5185 7.19092 19.4424 7.05713 19.216C5.97266 17.3536 5.39844 15.223 5.39844 13.0563C5.39844 6.29724 10.8962 0.799561 17.6533 0.799561C24.4126 0.799561 29.9099 6.29724 29.9099 13.0563C29.9099 16.0961 28.7874 19.0125 26.7522 21.2667C26.6584 21.3695 26.5276 21.4226 26.3982 21.4226Z" fill="#3B82F6"/>
<path d="M21.5752 22.8247C21.4819 22.8247 21.3867 22.7962 21.3047 22.7391C21.0879 22.5907 21.0344 22.2939 21.1851 22.079C22.6953 19.9046 23.5613 16.6174 23.5613 13.0563C23.5613 6.82239 20.9114 1.75073 17.6528 1.75073C14.3958 1.75073 11.7461 6.82239 11.7461 13.0563C11.7461 15.1051 12.0383 17.1158 12.5984 18.8679C12.6763 19.1171 12.5391 19.3853 12.2898 19.4651C12.0366 19.5432 11.7722 19.4062 11.6926 19.1551C11.1047 17.3116 10.7949 15.202 10.7949 13.0563C10.7949 6.18311 13.8081 0.799561 17.6528 0.799561C21.4993 0.799561 24.5105 6.18311 24.5105 13.0563C24.5105 16.8057 23.5837 20.2926 21.9646 22.6211C21.8738 22.7524 21.7251 22.8247 21.5752 22.8247Z" fill="#3B82F6"/>
<path d="M26.3976 21.4225C26.285 21.4225 26.1713 21.3827 26.0799 21.3008C24.1376 19.5449 20.9872 18.4987 17.6527 18.4987C15.7694 18.4987 13.9242 18.8279 12.3185 19.4538C12.0751 19.5488 11.7989 19.429 11.7045 19.1835C11.609 18.9382 11.7306 18.6643 11.9742 18.569C13.6901 17.9015 15.6529 17.5476 17.6527 17.5476C21.2157 17.5476 24.6036 18.6871 26.7171 20.595C26.9115 20.772 26.9264 21.0726 26.7513 21.2667C26.6578 21.3713 26.527 21.4225 26.3976 21.4225Z" fill="#3B82F6"/>
<path d="M17.6523 8.56279C14.0913 8.56279 10.7009 7.42339 8.58956 5.51537C8.39596 5.33855 8.38033 5.03789 8.55538 4.84392C8.73018 4.64983 9.03292 4.63463 9.22701 4.80962C11.1696 6.56536 14.3198 7.61174 17.6523 7.61174C20.987 7.61174 24.1374 6.56536 26.0798 4.80962C26.2736 4.63463 26.5742 4.64983 26.7514 4.84392C26.9265 5.03789 26.9111 5.33855 26.7168 5.51537C24.6035 7.42339 21.2153 8.56279 17.6523 8.56279Z" fill="#3B82F6"/>
<path d="M29.4341 13.5299H5.87378C5.61157 13.5299 5.39844 13.3168 5.39844 13.0562C5.39844 12.7936 5.61157 12.5806 5.87378 12.5806H29.4341C29.6965 12.5806 29.9099 12.7936 29.9099 13.0562C29.9099 13.3168 29.6965 13.5299 29.4341 13.5299Z" fill="#3B82F6"/>
<path d="M17.6536 20.2756C17.3904 20.2756 17.1797 20.0626 17.1797 19.8V1.27509C17.1797 1.01257 17.3904 0.799561 17.6536 0.799561C17.9158 0.799561 18.1289 1.01257 18.1289 1.27509V19.8C18.1289 20.0626 17.9158 20.2756 17.6536 20.2756Z" fill="#3B82F6"/>
<path d="M18.033 29.2354C17.877 29.2354 17.7437 29.2201 17.6355 29.1878C16.3496 28.796 9.85864 28.6781 7.46777 28.6647C7.20483 28.6629 6.99414 28.4497 6.99414 28.1872C6.99561 27.9265 7.20923 27.7155 7.46948 27.7155H7.47339C7.8291 27.7174 16.2317 27.7686 17.9114 28.2785C18.5562 28.4763 22.0068 27.3502 28.2488 24.3864C28.3132 24.3559 28.3359 24.3008 28.3435 24.2723C28.3518 24.2418 28.3589 24.1809 28.3152 24.1201C27.748 23.3305 26.719 23.0243 25.8137 23.3781L20.7705 25.3413C20.219 25.5564 19.6062 25.5753 19.0452 25.3928L16.3916 24.5348C16.1404 24.4529 16.0032 24.1867 16.0857 23.9356C16.1653 23.6863 16.4314 23.5513 16.6826 23.6311L19.3364 24.4892C19.6919 24.6032 20.0781 24.5918 20.4265 24.4568L25.4675 22.4936C26.78 21.9819 28.2676 22.4251 29.0879 23.5665C29.2834 23.8403 29.3481 24.1847 29.2646 24.5101C29.1804 24.8334 28.9597 25.1016 28.6577 25.2444C24.7214 27.1124 19.8477 29.2354 18.033 29.2354Z" fill="#3B82F6"/>
<path d="M19.7909 24.5576H12.379C12.1161 24.5576 11.9054 24.3445 11.9054 24.082C11.9054 23.8196 12.1161 23.6085 12.379 23.6085H19.7218C19.69 22.699 18.9669 21.9762 18.0521 21.9457C16.7279 21.9037 15.7123 21.8315 15.0331 21.7308C14.3197 21.626 13.6593 21.4055 12.961 21.1716C11.9742 20.8405 10.9503 20.4999 9.73643 20.4999C8.15195 20.4999 6.17588 22.3546 5.54966 23.0701C5.37485 23.2679 5.07432 23.2869 4.87827 23.1156C4.68198 22.9426 4.66123 22.6419 4.83481 22.4442C4.93906 22.3262 7.40073 19.5488 9.73643 19.5488C11.1061 19.5488 12.2516 19.9331 13.2621 20.2717C13.9198 20.4904 14.5421 20.6996 15.1698 20.7911C15.805 20.8843 16.8116 20.9564 18.0824 20.9965C19.536 21.0441 20.6732 22.2196 20.6732 23.673C20.6732 24.1619 20.2774 24.5576 19.7909 24.5576Z" fill="#3B82F6"/>
<path d="M4.75478 31.0027C4.69375 31.0027 4.63466 30.9913 4.57607 30.9684C4.45986 30.9209 4.3666 30.8295 4.31704 30.7135L0.988179 22.8436C0.887349 22.6019 0.999409 22.3225 1.24111 22.2216L4.38173 20.8918C4.49819 20.8424 4.62685 20.8424 4.74526 20.89C4.86123 20.9375 4.95449 21.0289 5.00356 21.1448L8.33266 29.0147C8.43569 29.2565 8.32363 29.5341 8.08168 29.6367L4.94082 30.9646C4.88222 30.9893 4.81752 31.0027 4.75478 31.0027ZM2.04775 22.9103L5.00795 29.9052L7.27358 28.9463L4.31533 21.9514L2.04775 22.9103Z" fill="#3B82F6"/>
</svg>
