<svg width="31" height="32" viewBox="0 0 31 32" fill="none" xmlns="http://www.w3.org/2000/svg">
<path d="M11.4727 31.1725C10.9255 31.1725 10.4063 31.0764 9.91642 30.8823C7.79093 30.0413 7.05729 27.6903 7.02568 27.5904C6.95195 27.3466 7.09037 27.0878 7.33439 27.0139C7.57634 26.9418 7.83537 27.0785 7.90922 27.3224C7.91667 27.341 8.55229 29.3538 10.2621 30.0265C11.3672 30.4627 12.7054 30.2573 14.2415 29.4221V3.9104C14.2415 2.64056 13.2083 1.60913 11.9403 1.60913C10.6723 1.60913 9.6392 2.64056 9.6392 3.9104C9.6392 4.13013 9.6707 4.34839 9.73161 4.55902C9.80363 4.80298 9.66325 5.05804 9.41935 5.13019C9.17326 5.20227 8.91838 5.06183 8.84623 4.81787C8.75944 4.52399 8.71696 4.21893 8.71696 3.9104C8.71696 2.13226 10.1624 0.68689 11.9403 0.68689C13.7185 0.68689 15.1639 2.13226 15.1639 3.9104V29.692C15.1639 29.8564 15.0771 30.0099 14.9328 30.0911C13.6869 30.8121 12.5282 31.1725 11.4727 31.1725Z" fill="#3B82F6"/>
<path d="M7.99438 10.6288C5.96313 10.6288 4.31055 8.97644 4.31055 6.94348C4.31055 4.91205 5.96313 3.25964 7.99438 3.25964C8.45654 3.25964 8.90747 3.34473 9.33423 3.51123C9.57104 3.60352 9.68933 3.87152 9.59485 4.10992C9.50269 4.34656 9.2345 4.46478 8.99792 4.37054C8.67834 4.2467 8.33997 4.18207 7.99438 4.18207C6.47156 4.18207 5.23303 5.42224 5.23303 6.94348C5.23303 8.46631 6.47156 9.70471 7.99438 9.70471C8.24927 9.70471 8.45654 9.91162 8.45654 10.1667C8.45654 10.4217 8.24927 10.6288 7.99438 10.6288Z" fill="#3B82F6"/>
<path d="M5.09985 14.8281C3.2074 14.8281 1.34961 12.9723 1.34961 11.0798C1.34961 9.19263 2.88562 7.65857 4.77075 7.65857C5.02612 7.65857 5.23279 7.86383 5.23279 8.11884C5.23279 8.37396 5.02612 8.58087 4.77075 8.58087C3.39392 8.58087 2.27393 9.70099 2.27393 11.0798C2.27393 12.4531 3.72668 13.9057 5.09985 13.9057C5.35486 13.9057 5.56177 14.1128 5.56177 14.3679C5.56177 14.6229 5.35486 14.8281 5.09985 14.8281Z" fill="#3B82F6"/>
<path d="M4.88367 20.0754C4.46777 20.0754 4.14087 20.0403 4.01697 20.0255C2.06873 20.0034 0.560547 17.8574 0.560547 16.011C0.560547 14.6581 1.35535 13.416 2.58459 12.8467C2.81555 12.7396 3.09082 12.8394 3.19836 13.0704C3.30542 13.3015 3.20349 13.5768 2.97253 13.6841C2.06873 14.1017 1.48462 15.0167 1.48462 16.011C1.48462 17.4119 2.62671 19.1013 4.04822 19.1013C4.0686 19.1013 4.08911 19.1032 4.10925 19.1069C4.84106 19.2029 6.17371 19.1808 6.64343 18.7114C6.82251 18.5302 7.1145 18.5302 7.29578 18.7114C7.47522 18.8906 7.47522 19.1827 7.29578 19.3638C6.70422 19.9553 5.64709 20.0754 4.88367 20.0754Z" fill="#3B82F6"/>
<path d="M3.99425 24.9585C3.91661 24.9585 3.83702 24.9382 3.76525 24.8956C2.36412 24.088 1.53429 23.077 1.29747 21.8904C0.950062 20.1566 2.02599 18.7242 2.07213 18.6651C2.2257 18.4619 2.51574 18.4248 2.71911 18.5782C2.92052 18.7335 2.95934 19.0218 2.80577 19.225C2.79088 19.2437 1.93541 20.4025 2.20324 21.7184C2.38829 22.6277 3.06994 23.4281 4.22521 24.0972C4.44713 24.2247 4.52257 24.5056 4.39537 24.7275C4.31017 24.8753 4.1549 24.9585 3.99425 24.9585Z" fill="#3B82F6"/>
<path d="M8.32367 29.9563C8.29084 29.9563 8.25727 29.9525 8.22394 29.9452C5.96369 29.4461 4.49604 28.4536 3.86237 27.001C2.88068 24.7442 4.31305 22.2618 4.37433 22.1584C4.50336 21.9384 4.78424 21.8645 5.00446 21.9939C5.22419 22.1231 5.2984 22.4042 5.17072 22.6242C5.15754 22.6463 3.91376 24.8144 4.71051 26.6367C5.22077 27.8012 6.46979 28.6125 8.42365 29.0452C8.67121 29.0987 8.83039 29.3464 8.77485 29.5941C8.72687 29.8102 8.53632 29.9563 8.32367 29.9563Z" fill="#3B82F6"/>
<path d="M7.46729 21.275C7.26404 21.275 7.07752 21.1381 7.02198 20.9331C6.61707 19.4194 6.7688 18.168 7.47107 17.2144C8.65772 15.6007 10.97 15.4898 11.0663 15.4842C11.3175 15.4565 11.5355 15.6728 11.5466 15.926C11.5575 16.181 11.3601 16.3955 11.1049 16.4067C11.0864 16.4084 9.13086 16.5083 8.21033 17.7651C7.68543 18.4803 7.58558 19.4674 7.91285 20.6945C7.97925 20.9404 7.83326 21.1937 7.58777 21.2584C7.54676 21.2694 7.50794 21.275 7.46729 21.275Z" fill="#3B82F6"/>
<path d="M10.3616 13.2498C10.2025 13.2498 10.0472 13.1684 9.96234 13.0205C9.83478 12.7987 9.9107 12.5179 10.1306 12.3903C13.4279 10.4865 15.0007 12.4217 15.0652 12.5049C15.2225 12.7046 15.1873 12.9947 14.9876 13.1519C14.7881 13.3089 14.5001 13.2757 14.3427 13.0779C14.2892 13.0132 13.16 11.7065 10.5927 13.1888C10.5186 13.2312 10.441 13.2498 10.3616 13.2498Z" fill="#3B82F6"/>
<path d="M11.9029 25.6904C10.9122 25.6904 9.91049 25.3576 9.30063 24.2597C9.17673 24.0379 9.25607 23.7571 9.4797 23.6332C9.70163 23.5076 9.98447 23.5889 10.1064 23.8124C11.193 25.7661 14.4571 24.1046 14.4906 24.086C14.716 23.9697 14.9952 24.0584 15.1115 24.2838C15.2297 24.5112 15.1408 24.7884 14.9155 24.9067C14.8158 24.9584 13.3703 25.6904 11.9029 25.6904Z" fill="#3B82F6"/>
<path d="M12.3167 8.89325C12.0433 8.89325 11.7752 8.85821 11.535 8.77313C11.1356 8.6289 10.8345 8.35534 10.6644 7.98211C10.5589 7.74908 10.6624 7.47552 10.8935 7.37024C11.1247 7.263 11.4 7.36664 11.5054 7.59936C11.572 7.74737 11.681 7.84344 11.8455 7.90442C12.5034 8.14105 13.823 7.7066 14.4997 7.37579C14.729 7.263 15.004 7.35913 15.1169 7.58838C15.2277 7.81756 15.1336 8.09302 14.9044 8.20569C14.7325 8.28888 13.4552 8.89325 12.3167 8.89325Z" fill="#3B82F6"/>
<path d="M12.869 20.8312C12.3126 20.8312 11.7154 20.7295 11.1849 20.4247C10.9632 20.297 10.8875 20.0143 11.015 19.7925C11.1427 19.5726 11.4234 19.4969 11.6451 19.6242C12.5936 20.1714 14.0497 19.7889 14.5321 19.5967C14.7689 19.5005 15.0367 19.615 15.131 19.8517C15.2271 20.0884 15.1126 20.3581 14.8761 20.4523C14.8187 20.4745 13.9151 20.8312 12.869 20.8312Z" fill="#3B82F6"/>
<path d="M16.6776 31.5255H15.4708C15.2174 31.5255 15.0105 31.3203 15.0105 31.0651C15.0105 30.8101 15.2174 30.603 15.4708 30.603H16.2561L16.5427 27.3187C16.5593 27.1191 16.7035 26.9547 16.8977 26.9084C18.2966 26.5814 19.6052 25.9954 20.7864 25.1673C20.9583 25.0472 21.1875 25.0582 21.3481 25.1932L23.9822 27.4019L26.1779 25.2079L23.8953 22.4893C23.7657 22.3358 23.751 22.1159 23.8582 21.9458C24.5956 20.7776 25.1079 19.5062 25.3774 18.1624C25.4182 17.9628 25.5861 17.8113 25.7897 17.7944L29.3771 17.4803V14.3771L25.7897 14.0629C25.5861 14.0462 25.4182 13.8948 25.3774 13.6951C25.1079 12.3513 24.5956 11.0798 23.8582 9.91156C23.751 9.74164 23.7657 9.52356 23.8953 9.36835L26.1779 6.65125L23.9822 4.45563L21.3481 6.66602C21.1875 6.79913 20.9583 6.81024 20.7864 6.69C19.6071 5.86212 18.2985 5.27618 16.8977 4.94891C16.7035 4.90271 16.5593 4.73834 16.5427 4.54059L16.2561 1.25433H15.3821C15.127 1.25433 14.9199 1.04919 14.9199 0.794067C14.9199 0.539062 15.127 0.332031 15.3821 0.332031H16.6776C16.918 0.332031 17.1177 0.515076 17.1379 0.753479L17.4335 4.13202C18.7126 4.46857 19.9156 5.00629 21.0228 5.73456L23.7123 3.47595C23.8953 3.32245 24.1652 3.33362 24.3351 3.50366L27.1276 6.29639C27.2977 6.46643 27.309 6.73639 27.1555 6.91937L24.8156 9.7066C25.4606 10.7914 25.9283 11.9541 26.2092 13.1739L29.8781 13.4936C30.1165 13.514 30.2996 13.7136 30.2996 13.9537V17.9036C30.2996 18.1439 30.1165 18.3435 29.8781 18.3638L26.2092 18.6837C25.9283 19.9034 25.4606 21.0677 24.8156 22.1509L27.1555 24.9382C27.309 25.121 27.2977 25.3909 27.1276 25.5612L24.3351 28.3538C24.1652 28.5238 23.8953 28.535 23.7123 28.3816L21.0228 26.1229C19.9156 26.853 18.7126 27.3908 17.4335 27.7272L17.1379 31.1041C17.1177 31.3425 16.918 31.5255 16.6776 31.5255Z" fill="#3B82F6"/>
<path d="M16.1494 23.4209C15.935 23.4209 15.7429 23.2712 15.6982 23.0531C15.6467 22.8036 15.8073 22.5596 16.0568 22.5077C19.164 21.8719 21.4184 19.1051 21.4184 15.9298C21.4184 12.6971 19.1174 9.92277 15.9477 9.32762C15.6965 9.28141 15.5319 9.03935 15.5781 8.78978C15.6262 8.5402 15.8666 8.37767 16.1179 8.42021C19.7238 9.09666 22.341 12.2536 22.341 15.9298C22.341 19.5414 19.7758 22.689 16.2419 23.4116C16.2101 23.419 16.1806 23.4209 16.1494 23.4209Z" fill="#3B82F6"/>
</svg>
