<svg width="25" height="31" viewBox="0 0 25 31" fill="none" xmlns="http://www.w3.org/2000/svg">
<path d="M18.0348 30.6997H6.82284C6.712 30.6997 6.60946 30.6383 6.55624 30.5393C6.50448 30.4405 6.51083 30.321 6.57333 30.2295L12.1798 21.958C12.2916 21.7928 12.566 21.7928 12.6793 21.958L18.2848 30.2295C18.3473 30.321 18.3536 30.4405 18.3009 30.5393C18.2486 30.6383 18.1475 30.6997 18.0348 30.6997ZM7.39071 30.0966H17.4669L12.4298 22.6638L7.39071 30.0966Z" fill="#3B82F6"/>
<path d="M18.0353 30.7997H6.82337C6.67518 30.7997 6.53943 30.718 6.46863 30.5867C6.39881 30.4535 6.40784 30.2954 6.49134 30.1731L12.0975 21.9019C12.1686 21.7969 12.2929 21.7341 12.4296 21.7341C12.566 21.7341 12.6903 21.7966 12.7623 21.9015L18.368 30.1733C18.4518 30.296 18.4601 30.4543 18.3895 30.5864C18.3202 30.7178 18.1845 30.7997 18.0353 30.7997ZM12.4296 21.9341C12.3593 21.9341 12.297 21.964 12.2631 22.014L6.65662 30.2856C6.61463 30.347 6.61048 30.4263 6.64539 30.4929C6.68055 30.5585 6.74891 30.5997 6.82337 30.5997H18.0353C18.1112 30.5997 18.1776 30.5597 18.213 30.4927C18.2484 30.4261 18.2445 30.347 18.2028 30.2859L12.5971 22.0142C12.5629 21.9642 12.5001 21.9341 12.4296 21.9341ZM17.6559 30.1967H7.20252L7.30848 30.0405L12.4303 22.4856L17.6559 30.1967ZM7.57996 29.9967H17.2789L12.4303 22.842L7.57996 29.9967Z" fill="#3B82F6"/>
<path d="M6.82306 30.6996C6.80841 30.6996 6.79522 30.6984 6.78058 30.6962C6.66583 30.6807 6.57184 30.6007 6.53619 30.491L3.0711 19.8276C3.03766 19.7225 3.06305 19.6082 3.13873 19.5275C3.21539 19.4479 3.32916 19.4153 3.43463 19.4429L12.5054 21.8362C12.6009 21.8604 12.6771 21.9304 12.7115 22.0206C12.7454 22.1126 12.7337 22.2149 12.679 22.2957L7.07257 30.5671C7.01568 30.6503 6.92169 30.6996 6.82306 30.6996ZM3.81573 20.1665L6.91949 29.7191L11.941 22.3102L3.81573 20.1665Z" fill="#3B82F6"/>
<path d="M6.82329 30.7996C6.80449 30.7996 6.78691 30.7982 6.76592 30.7951C6.6143 30.7746 6.4893 30.6698 6.44121 30.5219L2.97612 19.8585C2.93169 19.7184 2.96611 19.5656 3.06596 19.4591C3.16704 19.3539 3.32158 19.3095 3.46025 19.3462L12.5311 21.7395C12.6558 21.771 12.7586 21.8629 12.8052 21.985C12.8506 22.1082 12.8343 22.2449 12.762 22.3517L7.15556 30.6233C7.07988 30.7338 6.95586 30.7996 6.82329 30.7996ZM3.35967 19.5332C3.304 19.5332 3.2498 19.5564 3.21098 19.5968C3.16142 19.6496 3.14409 19.7268 3.16655 19.7974L6.63164 30.4601C6.65556 30.5343 6.71806 30.5868 6.79424 30.5971C6.80522 30.5988 6.81377 30.5996 6.82329 30.5996C6.88969 30.5996 6.95219 30.5663 6.99028 30.5106L12.5965 22.2395C12.6326 22.1861 12.6407 22.1171 12.618 22.0553C12.595 21.995 12.5435 21.949 12.481 21.9331L3.40947 19.5396C3.39336 19.5354 3.37651 19.5332 3.35967 19.5332ZM6.88774 29.9445L3.66411 20.0231L12.1031 22.2495L12.024 22.3664L6.88774 29.9445ZM3.96782 20.31L6.95171 29.4938L11.7793 22.3709L3.96782 20.31Z" fill="#3B82F6"/>
<path d="M12.4304 22.4283C12.3643 22.4283 12.2993 22.4068 12.2458 22.3654C12.1729 22.3091 12.1289 22.2208 12.1289 22.1268V13.1438C12.1289 13.0304 12.1929 12.9266 12.2932 12.8762C12.3943 12.8239 12.5164 12.8337 12.6067 12.9002L21.678 19.4913C21.772 19.5587 21.8186 19.6756 21.7974 19.7903C21.7754 19.9049 21.6912 19.9966 21.5776 20.0255L12.5063 22.4187C12.4812 22.4247 12.4561 22.4283 12.4304 22.4283ZM12.7319 13.7362V21.7359L20.8093 19.6057L12.7319 13.7362Z" fill="#3B82F6"/>
<path d="M12.4309 22.5283C12.3423 22.5283 12.2549 22.4985 12.1851 22.4446C12.0876 22.3692 12.0293 22.2505 12.0293 22.1268V13.1438C12.0293 12.9939 12.1155 12.8539 12.2488 12.7868C12.3777 12.7198 12.5483 12.7328 12.6665 12.8197L21.7373 19.4104C21.8618 19.4997 21.9243 19.6561 21.8962 19.8084C21.8665 19.9638 21.7542 20.0838 21.6028 20.1224L12.5325 22.5154C12.4949 22.5243 12.4626 22.5283 12.4309 22.5283ZM12.4312 12.9427C12.3994 12.9427 12.3677 12.9504 12.3396 12.9651C12.2722 12.9989 12.2295 13.0688 12.2295 13.1438V22.1268C12.2295 22.1889 12.2585 22.2485 12.3074 22.2864C12.343 22.3138 12.3857 22.3283 12.4309 22.3283C12.4468 22.3283 12.4641 22.326 12.4836 22.3214L21.5525 19.9288C21.6287 19.9094 21.6848 19.8492 21.6997 19.7715C21.7136 19.6955 21.6826 19.6173 21.6201 19.5726L12.5483 12.9812C12.5146 12.9563 12.4731 12.9427 12.4312 12.9427ZM12.6323 21.8657V13.5399L12.7913 13.6553L21.0391 19.6487L12.6323 21.8657ZM12.8325 13.9325V21.6062L20.5806 19.5627L12.8325 13.9325Z" fill="#3B82F6"/>
<path d="M18.0359 30.6996C17.9368 30.6996 17.8428 30.6503 17.7864 30.5671L12.1809 22.2957C12.1458 22.2451 12.1289 22.1871 12.1289 22.127C12.1289 22.0919 12.1355 22.0559 12.1482 22.0206C12.1824 21.9304 12.2595 21.8604 12.3533 21.8362L21.4246 19.4429C21.5305 19.4153 21.6438 19.4479 21.7202 19.5275C21.7729 19.5841 21.802 19.6588 21.802 19.7349C21.802 19.7661 21.7974 19.7975 21.7876 19.8276L18.3232 30.491C18.2871 30.6007 18.1931 30.6807 18.0786 30.6962C18.0637 30.6984 18.0505 30.6996 18.0359 30.6996ZM12.918 22.3102L17.9392 29.7191L21.0437 20.1665L12.918 22.3102Z" fill="#3B82F6"/>
<path d="M18.0364 30.7996C17.9033 30.7996 17.7791 30.7337 17.7041 30.6233L12.0986 22.3518C12.0535 22.287 12.0293 22.209 12.0293 22.127C12.0293 22.0805 12.0378 22.0332 12.0547 21.9869C12.1013 21.8636 12.2036 21.7716 12.3289 21.7394L21.3997 19.3462C21.5398 19.31 21.6931 19.3543 21.7927 19.4583C21.864 19.5346 21.9026 19.6325 21.9026 19.7349C21.9026 19.7774 21.896 19.819 21.8833 19.8584L18.4189 30.5219C18.3701 30.6701 18.2451 30.7747 18.0925 30.7953C18.0728 30.7983 18.0549 30.7996 18.0364 30.7996ZM21.5005 19.5332C21.4834 19.5332 21.4666 19.5354 21.4502 19.5397L12.3792 21.9329C12.3171 21.9489 12.2649 21.996 12.2422 22.0561C12.2339 22.0793 12.2295 22.1035 12.2295 22.127C12.2295 22.1685 12.241 22.2061 12.2634 22.2386L17.8696 30.511C17.9128 30.5744 17.9861 30.6086 18.0645 30.5973C18.1418 30.5868 18.2043 30.5342 18.2288 30.4598L21.6929 19.7968C21.6992 19.7774 21.7024 19.7565 21.7024 19.7349C21.7024 19.6839 21.6824 19.6332 21.6475 19.5956C21.6099 19.5564 21.5559 19.5332 21.5005 19.5332ZM17.9717 29.9445L17.8569 29.7753L12.7566 22.2495L21.196 20.0231L17.9717 29.9445ZM13.0803 22.3709L17.9077 29.4938L20.8923 20.31L13.0803 22.3709Z" fill="#3B82F6"/>
<path d="M12.43 22.4284C12.4036 22.4284 12.3777 22.4249 12.3523 22.4188L3.28152 20.0257C3.16873 19.9967 3.08328 19.905 3.06179 19.7904C3.04031 19.6756 3.08718 19.5588 3.18093 19.4914L12.2527 12.9001C12.3435 12.8338 12.4656 12.8254 12.5657 12.8761C12.6673 12.9266 12.7312 13.0302 12.7312 13.1438V22.1267C12.7312 22.2209 12.6878 22.3089 12.6131 22.3657C12.5603 22.4066 12.4944 22.4284 12.43 22.4284ZM4.04958 19.6059L12.1282 21.736V13.7363L4.04958 19.6059Z" fill="#3B82F6"/>
<path d="M12.4303 22.5284C12.3976 22.5284 12.3637 22.5243 12.3293 22.5161L3.25651 20.1224C3.10734 20.0841 2.99235 19.9609 2.96378 19.8088C2.93546 19.6566 2.99772 19.5002 3.12296 19.4103L12.1943 12.8192C12.2621 12.7697 12.3434 12.7434 12.4289 12.7434C12.4919 12.7434 12.5551 12.7584 12.6112 12.7869C12.747 12.8544 12.8317 12.9913 12.8317 13.1438V22.1267C12.8317 22.2531 12.7741 22.3693 12.674 22.4453C12.6051 22.4988 12.5182 22.5284 12.4303 22.5284ZM12.4289 12.9435C12.3859 12.9435 12.3456 12.9564 12.3119 12.981L3.24015 19.5724C3.17716 19.6176 3.14615 19.6958 3.16056 19.772C3.17472 19.848 3.23209 19.9097 3.3068 19.929L12.3781 22.3221C12.4379 22.3362 12.5041 22.3237 12.5522 22.2867C12.6029 22.2482 12.6315 22.1901 12.6315 22.1267V13.1438C12.6315 13.0676 12.5895 12.9994 12.5216 12.9656C12.4926 12.951 12.4609 12.9435 12.4289 12.9435ZM12.2287 21.8658L3.82072 19.6489L3.99113 19.525L12.2287 13.54V21.8658ZM4.27921 19.563L12.0285 21.6063V13.9326L4.27921 19.563Z" fill="#3B82F6"/>
<path d="M15.9966 12.156C15.9277 12.156 15.8574 12.1345 15.7983 12.0913L12.428 9.64258L9.05786 12.0913C8.93896 12.1776 8.78002 12.1776 8.66113 12.0913C8.54248 12.0049 8.49414 11.8527 8.53833 11.7136L9.82543 7.75098L6.45532 5.30237C6.33691 5.21704 6.28808 5.06494 6.33276 4.92578C6.37841 4.78687 6.50781 4.69263 6.6538 4.69263H10.8198L12.1069 0.72998C12.1531 0.590942 12.2825 0.496582 12.428 0.496582C12.5737 0.496582 12.7031 0.590942 12.7493 0.72998L14.0364 4.69263H18.2026C18.3484 4.69263 18.4778 4.78687 18.5234 4.92578C18.5681 5.06494 18.5195 5.21704 18.4006 5.30237L15.0305 7.75098L16.3176 11.7136C16.3635 11.8527 16.3137 12.0049 16.1951 12.0913C16.1357 12.1345 16.0666 12.156 15.9966 12.156ZM12.428 8.88831C12.498 8.88831 12.5669 8.90991 12.6265 8.95178L15.356 10.9352L14.3132 7.72693C14.2681 7.58777 14.3171 7.4353 14.4355 7.35034L17.1638 5.36707H13.7908C13.6453 5.36707 13.5154 5.27246 13.4712 5.13379L12.428 1.92664L11.3865 5.13379C11.3408 5.27246 11.2114 5.36707 11.0652 5.36707H7.69213L10.4206 7.35034C10.5391 7.4353 10.5876 7.58777 10.5432 7.72693L9.5017 10.9352L12.2297 8.95178C12.2893 8.90991 12.3596 8.88831 12.428 8.88831Z" fill="#3B82F6"/>
<path d="M3.2583 13.5914C3.22754 13.5914 3.19654 13.5875 3.16504 13.5794C3.02515 13.5389 2.92627 13.4134 2.92115 13.2664L2.82569 10.5885L0.248295 9.85288C0.108402 9.81235 0.00976922 9.68564 0.00415398 9.54013C-0.00146125 9.39414 0.0888708 9.26059 0.225345 9.21079L2.74292 8.29184L2.64698 5.61386C2.64185 5.46835 2.73072 5.33579 2.86866 5.28598C3.00611 5.23618 3.15992 5.27915 3.25025 5.39389L4.90186 7.50546L7.41944 6.58652C7.55591 6.53671 7.70972 6.57993 7.79956 6.69467C7.8899 6.8104 7.89576 6.96982 7.81446 7.09116L6.31836 9.31479L7.96949 11.4247C8.06031 11.5394 8.06568 11.7 7.98316 11.8214C7.90235 11.9427 7.75147 11.9969 7.61084 11.9564L5.03516 11.221L3.53785 13.4432C3.47437 13.5377 3.36914 13.5914 3.2583 13.5914ZM1.43311 9.48886L3.24634 10.0081C3.38648 10.0472 3.48633 10.1742 3.49048 10.3197L3.55762 12.2047L4.61158 10.6395C4.69385 10.5194 4.84522 10.4642 4.98413 10.5045L6.79859 11.0228L5.6355 9.5372C5.54566 9.42246 5.5398 9.26206 5.62085 9.14072L6.67432 7.57553L4.90308 8.22324C4.76538 8.27304 4.61158 8.22861 4.52124 8.11386L3.35791 6.62851L3.42554 8.51328C3.43116 8.65878 3.34204 8.79257 3.20459 8.84238L1.43311 9.48886Z" fill="#3B82F6"/>
<path d="M21.5992 13.5914C21.4883 13.5914 21.3833 13.5377 21.3199 13.4432L19.8221 11.221L17.2464 11.9564C17.106 11.9969 16.9549 11.9427 16.8741 11.8214C16.792 11.7 16.7984 11.5394 16.8877 11.4247L18.5389 9.31479L17.0428 7.09116C16.962 6.96982 16.9671 6.8104 17.0579 6.69467C17.148 6.57993 17.3015 6.53671 17.4378 6.58652L19.9556 7.50546L21.607 5.39389C21.6973 5.27915 21.8511 5.23618 21.989 5.28598C22.126 5.33579 22.2159 5.46835 22.2098 5.61386L22.1143 8.29184L24.6319 9.21079C24.7696 9.26059 24.8587 9.39414 24.8531 9.54013C24.8477 9.68564 24.7493 9.81235 24.6089 9.85288L22.032 10.5885L21.9361 13.2664C21.9309 13.4134 21.8326 13.5389 21.6922 13.5794C21.6607 13.5875 21.6297 13.5914 21.5992 13.5914ZM19.9649 10.4911C20.0757 10.4911 20.1822 10.5453 20.2456 10.6395L21.2996 12.2047L21.3665 10.3197C21.3724 10.1742 21.4707 10.0472 21.6109 10.0081L23.4241 9.48886L21.6531 8.84238C21.5154 8.79257 21.4265 8.65878 21.4317 8.51328L21.4991 6.62851L20.336 8.11386C20.2456 8.22861 20.0906 8.27304 19.9544 8.22324L18.1829 7.57553L19.2354 9.14072C19.3177 9.26206 19.312 9.42124 19.2217 9.5372L18.0601 11.0228L19.8733 10.5045C19.9043 10.4952 19.9339 10.4911 19.9649 10.4911Z" fill="#3B82F6"/>
</svg>
