<svg width="29" height="30" viewBox="0 0 29 30" fill="none" xmlns="http://www.w3.org/2000/svg">
<path d="M14.9072 24.9374C9.69238 24.9374 5.45117 20.6963 5.45117 15.4833C5.45117 10.2704 9.69238 6.02759 14.9072 6.02759C20.1201 6.02759 24.3613 10.2704 24.3613 15.4833C24.3613 20.6963 20.1201 24.9374 14.9072 24.9374ZM14.9072 6.88916C10.168 6.88916 6.31104 10.7443 6.31104 15.4833C6.31104 20.2224 10.168 24.0774 14.9072 24.0774C19.6445 24.0774 23.5015 20.2224 23.5015 15.4833C23.5015 10.7443 19.6445 6.88916 14.9072 6.88916Z" fill="#3B82F6"/>
<path d="M11.6451 23.0504C11.0093 23.0504 10.5472 22.6505 10.4249 21.9802C10.3111 21.3512 10.3697 20.6429 10.428 19.957C10.48 19.3505 10.5489 18.5183 10.3628 18.3303C10.1666 18.1356 8.46587 16.3658 9.04619 14.5544C9.27032 13.8566 7.76934 12.3763 6.6856 11.5974C6.49224 11.4578 6.44781 11.1889 6.58697 10.9959C6.72491 10.8029 6.99395 10.7581 7.18706 10.8978C7.72124 11.282 10.3594 13.2741 9.8648 14.8182C9.52007 15.8953 10.4371 17.1896 10.9712 17.7219C11.44 18.1924 11.3694 19.0437 11.2847 20.0294C11.233 20.6586 11.1778 21.3099 11.271 21.8268C11.3226 22.1061 11.4554 22.2094 11.712 22.187C12.1053 22.1525 12.4756 21.8337 12.4756 21.6614C12.4756 20.8205 13.0047 20.3363 13.3921 19.9812C13.4666 19.914 13.5372 19.8485 13.6041 19.7814C13.6099 19.7573 13.5923 19.6538 13.5801 19.578C13.5201 19.2126 13.418 18.6043 14.1182 17.9047C15.0313 16.9896 15.8326 15.4696 15.4278 15.0663C15.3191 14.9578 15.2945 14.9302 14.866 15.3179C14.5713 15.5834 14.2076 15.9125 13.73 15.9125C13.001 15.9125 12.8189 15.2955 12.6998 14.8854C12.605 14.5683 12.5081 14.2391 12.2393 13.9703C11.9087 13.6395 11.4747 13.4585 11.0123 13.2673C10.5406 13.0725 10.0508 12.8692 9.67168 12.4901C9.38042 12.1988 9.40288 11.9161 9.44463 11.7749C9.59405 11.2407 10.3663 11.058 11.1119 10.8806C11.2935 10.8374 11.543 10.7788 11.607 10.7461C11.764 10.6566 11.9498 10.6237 12.1463 10.5893C12.5564 10.5169 12.9825 10.4411 13.2408 9.85693C13.5337 9.20026 12.7061 7.64587 12.2584 6.99622C12.1241 6.80145 12.1741 6.53265 12.3707 6.39819C12.565 6.26373 12.834 6.31372 12.9683 6.50842C13.1356 6.75317 14.5933 8.93323 14.0281 10.2067C13.5821 11.2097 12.7769 11.351 12.2962 11.4372C12.1998 11.4526 12.0691 11.4768 12.0311 11.4958C11.8882 11.5784 11.6744 11.6318 11.3111 11.718C11.0914 11.7698 10.6453 11.8766 10.3975 11.9816C10.659 12.1902 10.9937 12.3281 11.3418 12.4729C11.8362 12.6779 12.396 12.9105 12.8477 13.3621C13.272 13.786 13.418 14.2823 13.525 14.6441C13.5679 14.7889 13.6319 15.0095 13.6802 15.0474C13.6802 15.0474 13.6954 15.0526 13.73 15.0526C13.8765 15.0526 14.0958 14.8544 14.2886 14.6803C14.6507 14.3529 15.3223 13.7446 16.0362 14.4581C17.0735 15.4955 15.6019 17.6375 14.7264 18.5129C14.3384 18.899 14.378 19.1368 14.4278 19.4366C14.4693 19.6882 14.5333 20.0691 14.2125 20.3897C14.1368 20.4655 14.0557 20.5396 13.9734 20.6154C13.6319 20.9291 13.3355 21.1996 13.3355 21.6614C13.3355 22.3937 12.5203 22.978 11.7879 23.0452C11.7393 23.0486 11.6915 23.0504 11.6451 23.0504Z" fill="#3B82F6"/>
<path d="M21.3476 22.2318C21.2939 22.2318 21.2407 22.2214 21.1872 22.2007C20.9663 22.1111 20.8593 21.8613 20.9489 21.6406C21.3745 20.586 21.1196 20.2207 20.684 19.7846C20.2514 19.3521 20.499 18.7903 20.6801 18.3784C20.9472 17.7684 21.0302 17.465 20.684 17.1204C20.3562 16.7913 19.9807 16.7276 19.5839 16.6604C18.9516 16.5535 18.1643 16.4207 17.9355 15.1352C17.7627 14.1668 18.1181 13.2655 18.8867 12.726C19.4878 12.3056 20.1963 12.2177 20.6941 12.5054C21.1748 12.7846 22.7548 12.8466 23.6391 12.8208C23.8652 12.8173 24.0752 13 24.082 13.2378C24.0888 13.4757 23.9028 13.6738 23.665 13.6807C23.4062 13.6894 21.1108 13.741 20.2631 13.2517C20.0927 13.1517 19.7341 13.1828 19.3808 13.4292C19.1464 13.5945 18.6193 14.0755 18.7829 14.9836C18.9052 15.6729 19.1464 15.7143 19.727 15.8125C20.1909 15.8917 20.7695 15.9899 21.2922 16.5103C22.0903 17.31 21.7002 18.1958 21.4677 18.7249C21.3969 18.8834 21.2922 19.1229 21.3025 19.2005C21.9672 19.8519 22.302 20.5843 21.747 21.9629C21.6797 22.1301 21.518 22.2318 21.3476 22.2318Z" fill="#3B82F6"/>
<path d="M17.6586 10.9372C17.5605 10.9372 17.4606 10.9236 17.3585 10.8907C17.0363 10.789 16.7794 10.5288 16.5763 10.0929C16.0558 8.97789 17.757 7.37523 18.2907 6.91173C18.4701 6.75487 18.7423 6.77391 18.8976 6.95482C19.0529 7.13231 19.0353 7.40453 18.8563 7.56139C18.0119 8.29717 17.1881 9.36748 17.3568 9.72923C17.4882 10.0102 17.5895 10.0618 17.619 10.0704C17.7531 10.1101 18.0895 9.91869 18.3581 9.76366C18.5045 9.67931 18.6183 9.5913 18.7306 9.50524C19.1542 9.17955 19.5368 8.9641 20.2711 9.38799C20.7672 9.67253 21.705 9.62584 22.0251 9.58446C22.2575 9.55181 22.4772 9.71898 22.508 9.95323C22.5387 10.1894 22.3737 10.4049 22.1393 10.4375C21.9928 10.4565 20.6774 10.6151 19.8405 10.1326C19.5487 9.96361 19.547 9.96361 19.2543 10.1877C19.1337 10.2807 18.984 10.3962 18.7887 10.5099C18.424 10.7202 18.048 10.9372 17.6586 10.9372Z" fill="#3B82F6"/>
<path d="M1.40007 15.1955H1.38078C1.14347 15.1852 0.958903 14.9835 0.969157 14.7456C1.15202 10.5805 3.21842 6.75142 6.64201 4.2405C10.0148 1.76754 14.2817 0.973103 18.3488 2.06398C18.5795 2.12435 18.714 2.36031 18.654 2.58956C18.5917 2.82052 18.3556 2.95662 18.1264 2.89461C14.311 1.8727 10.3112 2.61538 7.15104 4.93496C3.93864 7.2889 2.00016 10.8786 1.82926 14.7835C1.81901 15.0145 1.62931 15.1955 1.40007 15.1955Z" fill="#3B82F6"/>
<path d="M14.8059 29.2059C13.0881 29.2059 11.3591 28.8871 9.71555 28.2444C5.60398 26.6347 2.58811 23.2554 1.44016 18.9714C1.37961 18.742 1.51584 18.506 1.74509 18.444C1.97409 18.3836 2.21066 18.5182 2.27097 18.749C3.34763 22.766 6.176 25.935 10.029 27.4429C13.8684 28.9457 18.2046 28.5528 21.6299 26.3918C21.832 26.266 22.0971 26.3263 22.2248 26.5262C22.3508 26.7278 22.292 26.9933 22.0903 27.1207C19.9018 28.5011 17.3669 29.2059 14.8059 29.2059Z" fill="#3B82F6"/>
<path d="M24.2336 25.2854C24.1233 25.2854 24.0132 25.244 23.9307 25.1596C23.7615 24.9923 23.7615 24.7202 23.9307 24.5512C26.7461 21.7355 28.0994 17.8666 27.6406 13.9358C27.1767 9.94642 24.9868 6.47206 21.6333 4.40083C21.4316 4.27504 21.3694 4.00966 21.4936 3.808C21.6179 3.60634 21.8828 3.54262 22.0864 3.66841C25.6641 5.87758 28.0005 9.58442 28.4954 13.8358C28.9846 18.0287 27.5425 22.1558 24.5386 25.1596C24.4546 25.244 24.344 25.2854 24.2336 25.2854Z" fill="#3B82F6"/>
<path d="M16.0024 4.16464C15.8525 4.16464 15.7055 4.08712 15.6266 3.9457C15.5114 3.73898 15.5854 3.47701 15.7919 3.35989L17.6308 2.32589L16.5746 0.662926C16.4472 0.462975 16.5055 0.197594 16.705 0.0701527C16.9071 -0.0574718 17.1723 0.00106093 17.2997 0.202721L18.6012 2.24831C18.663 2.34823 18.6835 2.46883 18.6547 2.58443C18.6249 2.69808 18.5512 2.79629 18.4477 2.85323L16.2128 4.10946C16.1471 4.1473 16.0746 4.16464 16.0024 4.16464Z" fill="#3B82F6"/>
<path d="M24.2339 25.2855C24.1202 25.2855 24.01 25.2407 23.9309 25.1597C23.8462 25.0769 23.8013 24.9615 23.8028 24.8442L23.8736 22.2817C23.8789 22.0439 24.0684 21.8508 24.315 21.863C24.5528 21.8698 24.7408 22.0663 24.7334 22.3041L24.6768 24.4134L26.6468 24.3599C26.8772 24.3532 27.0806 24.5409 27.0874 24.7788C27.0945 25.0166 26.9065 25.2148 26.6687 25.2199L24.2459 25.2855H24.2339Z" fill="#3B82F6"/>
<path d="M0.701716 21.4218C0.63238 21.4218 0.561824 21.4046 0.49615 21.3701C0.287898 21.2564 0.210017 20.9944 0.324031 20.7859L1.47857 18.6543C1.53521 18.5508 1.62994 18.475 1.74566 18.444C1.85748 18.4129 1.97979 18.4319 2.08135 18.494L4.26666 19.8347C4.46832 19.9588 4.53204 20.2242 4.40777 20.4258C4.28375 20.6291 4.01666 20.6929 3.81524 20.5671L2.01788 19.4642L1.07867 21.1961C1.00103 21.339 0.854548 21.4218 0.701716 21.4218Z" fill="#3B82F6"/>
</svg>
