<svg width="32" height="32" viewBox="0 0 32 32" fill="none" xmlns="http://www.w3.org/2000/svg">
<path d="M16.4297 24.6538C11.4804 24.6538 7.45508 20.6285 7.45508 15.6791C7.45508 10.73 11.4804 6.70459 16.4297 6.70459C21.379 6.70459 25.4046 10.73 25.4046 15.6791C25.4046 20.6285 21.379 24.6538 16.4297 24.6538ZM16.4297 7.60474C11.9784 7.60474 8.35529 11.2279 8.35529 15.6791C8.35529 20.1323 11.9784 23.7535 16.4297 23.7535C20.8828 23.7535 24.504 20.1323 24.504 15.6791C24.504 11.2279 20.8828 7.60474 16.4297 7.60474Z" fill="#3B82F6"/>
<path d="M22.4146 10.1565C22.301 10.1565 22.1873 10.1147 22.1008 10.0283C21.9257 9.85471 21.9166 9.57712 22.0917 9.40036L23.6146 7.8757C23.7896 7.70078 24.0747 7.70078 24.2514 7.8757C24.4265 8.0527 24.4265 8.33749 24.2514 8.51279L22.7431 10.0208C22.6528 10.1114 22.5339 10.1565 22.4146 10.1565Z" fill="#3B82F6"/>
<path d="M24.9363 9.07938C24.4528 9.07938 23.9709 8.89566 23.6029 8.52762C22.8667 7.79288 22.8667 6.59512 23.6029 5.86063C24.3373 5.12442 25.5353 5.12442 26.2715 5.86063C27.0059 6.59512 27.0059 7.79288 26.2715 8.52762C25.9033 8.89566 25.4198 9.07938 24.9363 9.07938ZM24.9363 6.20889C24.6837 6.20889 24.4311 6.3046 24.2397 6.49759C23.8555 6.88211 23.8555 7.50626 24.2397 7.89053C24.6241 8.27676 25.2484 8.27676 25.6346 7.89053C26.0189 7.50626 26.0189 6.88211 25.6346 6.49759C25.4415 6.3046 25.1888 6.20889 24.9363 6.20889Z" fill="#3B82F6"/>
<path d="M8.92523 23.6357C8.80963 23.6357 8.69415 23.5924 8.6059 23.5039C8.43085 23.3271 8.43085 23.0417 8.6059 22.8671L10.1251 21.3494C10.3019 21.1727 10.5871 21.1727 10.762 21.3477C10.9389 21.5228 10.9406 21.8077 10.7639 21.9828L9.24274 23.5039C9.15607 23.5924 9.04059 23.6357 8.92523 23.6357Z" fill="#3B82F6"/>
<path d="M7.92242 26.0731C7.41901 26.0731 6.94452 25.8762 6.58893 25.5209C6.23181 25.1636 6.03516 24.6908 6.03516 24.1858C6.03516 23.6824 6.23181 23.2079 6.58893 22.8523C6.94452 22.495 7.41901 22.2983 7.92242 22.2983C8.42584 22.2983 8.90033 22.495 9.25763 22.8523C9.992 23.5885 9.992 24.7847 9.25763 25.5209C8.90033 25.8762 8.42584 26.0731 7.92242 26.0731ZM7.92242 23.2004C7.65906 23.2004 7.4118 23.3016 7.22589 23.4893C7.03839 23.6749 6.93732 23.9222 6.93732 24.1858C6.93732 24.449 7.03839 24.6963 7.22589 24.8838C7.59778 25.2556 8.24725 25.2556 8.62067 24.8838C9.00494 24.4996 9.00494 23.8735 8.62067 23.4893C8.43304 23.3016 8.18597 23.2004 7.92242 23.2004Z" fill="#3B82F6"/>
<path d="M10.4354 10.1634C10.3254 10.1634 10.2153 10.122 10.1304 10.0372L8.6059 8.51279C8.43085 8.33749 8.43085 8.0527 8.6059 7.8757C8.78278 7.70078 9.06769 7.70078 9.24274 7.8757L10.7512 9.384C10.9262 9.55905 10.9334 9.84958 10.7584 10.0266C10.67 10.1165 10.5527 10.1634 10.4354 10.1634Z" fill="#3B82F6"/>
<path d="M7.92242 9.08118C7.41901 9.08118 6.94452 8.88464 6.58893 8.52734C6.23181 8.17188 6.03516 7.69727 6.03516 7.19397C6.03516 6.69043 6.23181 6.21606 6.58893 5.86047C6.94452 5.5033 7.41901 5.30676 7.92242 5.30676C8.42584 5.30676 8.90033 5.5033 9.25763 5.86047C9.992 6.59497 9.992 7.79272 9.25763 8.52734C8.90033 8.88464 8.42584 9.08118 7.92242 9.08118ZM7.92242 6.20874C7.65906 6.20874 7.4118 6.30994 7.22589 6.49744C7.03839 6.68323 6.93732 6.93054 6.93732 7.19397C6.93732 7.4574 7.03839 7.70459 7.22589 7.8905C7.59778 8.26392 8.24725 8.26392 8.62067 7.8905C9.00494 7.5061 9.00494 6.88208 8.62067 6.49744C8.43304 6.30994 8.18597 6.20874 7.92242 6.20874Z" fill="#3B82F6"/>
<path d="M23.9314 23.6359C23.8178 23.6359 23.7022 23.5925 23.6139 23.504L22.0965 21.9866C21.9196 21.8097 21.9178 21.5229 22.0946 21.3477C22.2715 21.171 22.5547 21.171 22.7298 21.3459L24.2508 22.8672C24.4259 23.0419 24.4259 23.3273 24.2508 23.504C24.1624 23.5925 24.047 23.6359 23.9314 23.6359Z" fill="#3B82F6"/>
<path d="M24.9363 26.0711C24.4528 26.0711 23.9709 25.889 23.6029 25.5207C22.8667 24.7846 22.8667 23.5883 23.6029 22.8524C24.3373 22.1159 25.5353 22.1159 26.2715 22.8524C27.0059 23.5883 27.0059 24.7846 26.2715 25.5207C25.9033 25.8872 25.4198 26.0711 24.9363 26.0711ZM24.9363 23.2003C24.6837 23.2003 24.4311 23.296 24.2397 23.4891C23.8555 23.8734 23.8555 24.4996 24.2397 24.8838C24.6241 25.2682 25.2502 25.2682 25.6346 24.8838C26.0189 24.4996 26.0189 23.8734 25.6346 23.4891C25.4415 23.296 25.1888 23.2003 24.9363 23.2003Z" fill="#3B82F6"/>
<path d="M27.415 16.1389H24.8727C24.6255 16.1389 24.418 15.9388 24.418 15.6898C24.418 15.441 24.6147 15.2386 24.8636 15.2386H27.415C27.6641 15.2386 27.8661 15.441 27.8661 15.6898C27.8661 15.9388 27.6641 16.1389 27.415 16.1389Z" fill="#3B82F6"/>
<path d="M29.4478 18.1725C28.08 18.1725 26.9668 17.0594 26.9668 15.6899C26.9668 14.3223 28.08 13.2089 29.4478 13.2089C30.8172 13.2089 31.9304 14.3223 31.9304 15.6899C31.9304 17.0594 30.8172 18.1725 29.4478 18.1725ZM29.4478 14.1094C28.5762 14.1094 27.8672 14.8185 27.8672 15.6899C27.8672 16.5615 28.5762 17.2704 29.4478 17.2704C30.3193 17.2704 31.0301 16.5615 31.0301 15.6899C31.0301 14.8185 30.3193 14.1094 29.4478 14.1094Z" fill="#3B82F6"/>
<path d="M7.99451 16.1389H5.44324C5.19421 16.1389 4.99219 15.9388 4.99219 15.6898C4.99219 15.441 5.19421 15.2386 5.44324 15.2386H7.98547C8.2345 15.2386 8.44019 15.441 8.44019 15.6898C8.44019 15.9388 8.24353 16.1389 7.99451 16.1389Z" fill="#3B82F6"/>
<path d="M3.41071 18.1725C2.04303 18.1725 0.929688 17.0594 0.929688 15.6899C0.929688 14.3223 2.04303 13.2089 3.41071 13.2089C4.78015 13.2089 5.89355 14.3223 5.89355 15.6899C5.89355 17.0594 4.78015 18.1725 3.41071 18.1725ZM3.41071 14.1094C2.53925 14.1094 1.83014 14.8185 1.83014 15.6899C1.83014 16.5615 2.53925 17.2704 3.41071 17.2704C4.28223 17.2704 4.99139 16.5615 4.99139 15.6899C4.99139 14.8185 4.28223 14.1094 3.41071 14.1094Z" fill="#3B82F6"/>
<path d="M16.4315 7.71216C16.1825 7.71216 15.9805 7.521 15.9805 7.27197V4.72058C15.9805 4.47131 16.1825 4.26941 16.4315 4.26941C16.6788 4.26941 16.8809 4.47131 16.8809 4.72058V7.25024C16.8809 7.49915 16.6788 7.71216 16.4315 7.71216Z" fill="#3B82F6"/>
<path d="M16.4282 5.16956C15.0605 5.16956 13.9473 4.05664 13.9473 2.68872C13.9473 1.32104 15.0605 0.205933 16.4282 0.205933C17.7977 0.205933 18.9109 1.32104 18.9109 2.68872C18.9109 4.05664 17.7977 5.16956 16.4282 5.16956ZM16.4282 1.10815C15.5566 1.10815 14.8476 1.81726 14.8476 2.68872C14.8476 3.5603 15.5566 4.26953 16.4282 4.26953C17.2997 4.26953 18.0106 3.5603 18.0106 2.68872C18.0106 1.81726 17.2997 1.10815 16.4282 1.10815Z" fill="#3B82F6"/>
<path d="M16.4315 27.1425C16.1825 27.1425 15.9805 26.9404 15.9805 26.6913V24.1077C15.9805 23.8588 16.1825 23.6565 16.4315 23.6565C16.6788 23.6565 16.8809 23.8588 16.8809 24.1077V26.6913C16.8809 26.9404 16.6788 27.1425 16.4315 27.1425Z" fill="#3B82F6"/>
<path d="M16.4282 31.2058C15.0605 31.2058 13.9473 30.0925 13.9473 28.7229C13.9473 27.3553 15.0605 26.2421 16.4282 26.2421C17.7977 26.2421 18.9109 27.3553 18.9109 28.7229C18.9109 30.0925 17.7977 31.2058 16.4282 31.2058ZM16.4282 27.1425C15.5566 27.1425 14.8476 27.8516 14.8476 28.7229C14.8476 29.5945 15.5566 30.3054 16.4282 30.3054C17.2997 30.3054 18.0106 29.5945 18.0106 28.7229C18.0106 27.8516 17.2997 27.1425 16.4282 27.1425Z" fill="#3B82F6"/>
</svg>
