<svg width="29" height="30" viewBox="0 0 29 30" fill="none" xmlns="http://www.w3.org/2000/svg">
<path d="M13.7759 29.4827C13.7524 29.4827 13.7287 29.4807 13.7069 29.4768C13.4522 29.4431 7.43756 28.5779 3.58795 22.8245C0.0856342 17.5882 -0.423765 10.1358 2.07697 0.674334C2.14997 0.395769 2.43439 0.225847 2.71112 0.294939C3.07428 0.3799 11.6546 2.49123 17.3 10.0447C17.4202 10.2085 17.44 10.4258 17.3452 10.6074C17.3216 10.6528 14.9099 15.344 14.9099 18.0225C14.9099 18.2617 14.7498 18.471 14.5168 18.5342C14.2838 18.5972 14.0406 18.4968 13.9202 18.2893C13.1163 16.9048 11.4592 14.1929 9.84528 11.9131C12.0595 16.2647 14.8525 23.0869 14.3055 29.001C14.2916 29.145 14.2203 29.2771 14.1059 29.366C14.0129 29.4414 13.8967 29.4827 13.7759 29.4827ZM2.96784 1.46608C0.702089 10.3706 1.20758 17.357 4.47089 22.2334C7.39801 26.6109 11.7592 27.9636 13.29 28.3154C13.7603 19.397 6.52118 8.18605 6.44806 8.07131C6.31378 7.86598 6.33734 7.59548 6.50739 7.41579C6.67511 7.23781 6.94379 7.20046 7.15717 7.32082C9.05316 8.41701 12.4547 13.7879 14.0369 16.405C14.5207 14.0466 15.8067 11.3225 16.253 10.4199C11.6071 4.39186 4.84809 2.02907 2.96784 1.46608Z" fill="#3B82F6"/>
<path d="M20.3196 29.4828C20.1814 29.4828 20.0474 29.4294 19.9463 29.3286C19.7883 29.1727 19.7449 28.9376 19.8357 28.7359C19.8616 28.6767 21.9592 23.9085 21.9946 19.1307C21.2241 22.6878 19.804 27.804 17.8208 28.9476C17.6965 29.0185 17.5505 29.0385 17.4124 28.9989C17.2759 28.9614 17.1592 28.8685 17.0901 28.7422C17.0252 28.6217 10.6631 16.5747 22.9685 5.57883C23.0811 5.478 23.229 5.43247 23.3775 5.44626C23.5274 5.46213 23.6616 5.53915 23.7507 5.65964C24.0015 6.00144 29.8677 14.1158 27.9619 21.4417C27.0613 24.9062 24.5625 27.5945 20.5391 29.4336C20.47 29.4669 20.3948 29.4828 20.3196 29.4828ZM22.1189 15.0815C22.3579 15.0815 22.5696 15.2436 22.6309 15.4765C23.8335 20.0213 22.2236 25.406 21.3269 27.8512C24.3274 26.1941 26.2117 23.9522 26.9346 21.175C28.4614 15.307 24.4439 8.61655 23.229 6.7778C13.4736 15.8537 16.6773 25.2439 17.7439 27.6578C19.6482 25.6432 21.1492 18.3702 21.5938 15.5299C21.6333 15.2832 21.8406 15.0952 22.0916 15.0836L22.1189 15.0815Z" fill="#3B82F6"/>
</svg>
