<svg width="24" height="30" viewBox="0 0 24 30" fill="none" xmlns="http://www.w3.org/2000/svg">
<path d="M23.3981 29.7285H1.46121C1.16878 29.7285 0.929688 29.4893 0.929688 29.1948V11.875C0.929688 11.5801 1.16878 11.3412 1.46121 11.3412C3.25638 11.3412 3.45914 9.49707 3.47623 9.28784V1.05908C3.47623 0.764404 3.71317 0.525391 4.00775 0.525391H7.95239C8.12959 0.525391 8.29393 0.612915 8.39427 0.760254L12.4307 6.71777L16.4672 0.760254C16.5654 0.612915 16.7297 0.525391 16.9069 0.525391H20.8516C21.1462 0.525391 21.3852 0.764404 21.3852 1.05908V9.32837C21.4002 9.49707 21.6029 11.3412 23.3981 11.3412C23.6927 11.3412 23.9296 11.5801 23.9296 11.875V29.1948C23.9296 29.4893 23.6927 29.7285 23.3981 29.7285ZM1.99486 28.6633H22.8645V12.3678C21.0223 12.0819 20.3927 10.3314 20.3201 9.36865V1.5907H17.1908L12.8704 7.96643C12.6719 8.25867 12.1874 8.25867 11.9889 7.96643L7.67065 1.5907H4.5414V9.32837C4.46881 10.3273 3.83698 12.0819 1.99486 12.3678V28.6633Z" fill="#3B82F6"/>
<path d="M23.3978 19.0747H15.4145C15.1199 19.0747 14.8809 18.8358 14.8809 18.5432C14.8809 18.2487 15.1199 18.0094 15.4145 18.0094H23.3978C23.6924 18.0094 23.9293 18.2487 23.9293 18.5432C23.9293 18.8358 23.6924 19.0747 23.3978 19.0747Z" fill="#3B82F6"/>
<path d="M9.44447 19.0747H1.46121C1.16878 19.0747 0.929688 18.8358 0.929688 18.5432C0.929688 18.2487 1.16878 18.0094 1.46121 18.0094H9.44447C9.73906 18.0094 9.9781 18.2487 9.9781 18.5432C9.9781 18.8358 9.73906 19.0747 9.44447 19.0747Z" fill="#3B82F6"/>
<path d="M15.414 20.6736H9.44363C9.14908 20.6736 8.91211 20.4369 8.91211 20.1421V16.9424C8.91211 16.6498 9.14908 16.4109 9.44363 16.4109H15.414C15.7086 16.4109 15.9477 16.6498 15.9477 16.9424V20.1421C15.9477 20.4369 15.7086 20.6736 15.414 20.6736ZM9.97726 19.6084H14.8804V17.4758H9.97726V19.6084Z" fill="#3B82F6"/>
<path d="M23.3978 25.2266H15.4145C15.1199 25.2266 14.8809 24.9873 14.8809 24.6931C14.8809 24.3982 15.1199 24.1593 15.4145 24.1593H23.3978C23.6924 24.1593 23.9293 24.3982 23.9293 24.6931C23.9293 24.9873 23.6924 25.2266 23.3978 25.2266Z" fill="#3B82F6"/>
<path d="M9.44447 25.2266H1.46121C1.16878 25.2266 0.929688 24.9873 0.929688 24.6931C0.929688 24.3982 1.16878 24.1593 1.46121 24.1593H9.44447C9.73906 24.1593 9.9781 24.3982 9.9781 24.6931C9.9781 24.9873 9.73906 25.2266 9.44447 25.2266Z" fill="#3B82F6"/>
<path d="M15.414 26.8252H9.44363C9.14908 26.8252 8.91211 26.5863 8.91211 26.2915V23.094C8.91211 22.7996 9.14908 22.5605 9.44363 22.5605H15.414C15.7086 22.5605 15.9477 22.7996 15.9477 23.094V26.2915C15.9477 26.5863 15.7086 26.8252 15.414 26.8252ZM9.97726 25.7577H14.8804V23.6255H9.97726V25.7577Z" fill="#3B82F6"/>
<path d="M12.4301 29.7285C12.1355 29.7285 11.8965 29.4893 11.8965 29.1947V26.2915C11.8965 25.9969 12.1355 25.7603 12.4301 25.7603C12.7226 25.7603 12.9616 25.9969 12.9616 26.2915V29.1947C12.9616 29.4893 12.7226 29.7285 12.4301 29.7285Z" fill="#3B82F6"/>
<path d="M12.4301 23.6257C12.1355 23.6257 11.8965 23.3887 11.8965 23.0942V20.1421C11.8965 19.8475 12.1355 19.6083 12.4301 19.6083C12.7226 19.6083 12.9616 19.8475 12.9616 20.1421V23.0942C12.9616 23.3887 12.7226 23.6257 12.4301 23.6257Z" fill="#3B82F6"/>
<path d="M12.4301 17.4758C12.1355 17.4758 11.8965 17.2368 11.8965 16.9446V7.66748C11.8965 7.37524 12.1355 7.13599 12.4301 7.13599C12.7226 7.13599 12.9616 7.37524 12.9616 7.66748V16.9446C12.9616 17.2368 12.7226 17.4758 12.4301 17.4758Z" fill="#3B82F6"/>
</svg>
