<svg width="33" height="30" viewBox="0 0 33 30" fill="none" xmlns="http://www.w3.org/2000/svg">
<path d="M16.6826 22.6866C15.6309 22.6866 14.5879 22.3011 13.5815 21.5406C10.7095 19.3702 8.93164 14.7957 8.93164 11.8009L8.93359 11.6593C8.94092 11.4058 9.14453 11.1983 9.40723 11.2149C9.66064 11.2222 9.85938 11.4351 9.85156 11.6888L9.8501 11.8009C9.8501 14.5882 11.5723 18.8724 14.1343 20.8079C15.7891 22.0567 17.478 22.0804 19.1289 20.8831L19.1548 20.8631C21.7642 18.9552 23.5161 14.6361 23.5161 11.8009L23.5146 11.6888C23.5068 11.4351 23.7056 11.2222 23.9585 11.2149C24.2104 11.2003 24.4233 11.4058 24.4326 11.6593L24.4346 11.8009C24.4346 14.8397 22.6348 19.4344 19.7236 21.5828L19.6982 21.6051C18.7197 22.3231 17.7041 22.6866 16.6826 22.6866Z" fill="#3B82F6"/>
<path d="M31.6812 29.7422H1.17798C0.924561 29.7422 0.71875 29.5364 0.71875 29.283V28.0469C0.71875 27.8413 0.856445 27.6597 1.0564 27.6045L13.4097 24.2109L13.4006 21.1553C13.4006 20.9019 13.6064 20.6963 13.8579 20.6943H13.8596C14.113 20.6943 14.3188 20.8999 14.3188 21.1536L14.3276 24.5598C14.3276 24.7654 14.1902 24.9473 13.9902 25.0024L1.63696 28.3977V28.824H31.2219V28.3574L19.3225 24.8811C19.1279 24.8242 18.9939 24.6462 18.9922 24.4441L18.9683 21.2378C18.9666 20.9844 19.1702 20.7769 19.4258 20.7751H19.4275C19.679 20.7751 19.8848 20.9788 19.8865 21.2307L19.9067 24.0952L31.8098 27.5715C32.0061 27.6284 32.1401 27.8081 32.1401 28.0122V29.283C32.1401 29.5364 31.9348 29.7422 31.6812 29.7422Z" fill="#3B82F6"/>
<path d="M23.9771 12.1329H9.39453C9.14111 12.1329 8.93359 11.9274 8.93359 11.674V5.16418C8.93359 4.91077 9.13965 4.7052 9.39258 4.7052C9.646 4.7052 9.85205 4.91077 9.85205 5.16418V11.215H23.5181V5.16418C23.5181 4.91077 23.7236 4.7052 23.9771 4.7052C24.2305 4.7052 24.4365 4.91077 24.4365 5.16418V11.674C24.4365 11.9274 24.2305 12.1329 23.9771 12.1329Z" fill="#3B82F6"/>
<path d="M16.6831 7.6839C16.6411 7.6839 16.5991 7.67828 16.5586 7.66534L5.5332 4.5528C5.33643 4.49786 5.19922 4.31598 5.19922 4.11212C5.19922 3.90631 5.33643 3.72467 5.5332 3.66949L16.5586 0.556946C16.6411 0.533264 16.7261 0.533264 16.8086 0.556946L27.8335 3.66949C28.0303 3.72467 28.168 3.90631 28.168 4.11212C28.168 4.31598 28.0303 4.49786 27.8335 4.5528L16.8086 7.66534C16.7681 7.67828 16.7261 7.6839 16.6831 7.6839ZM7.34717 4.11212L16.6831 6.74713L26.0195 4.11212L16.6831 1.47516L7.34717 4.11212Z" fill="#3B82F6"/>
<path d="M27.7092 8.35706C27.4558 8.35706 27.25 8.15149 27.25 7.89807V4.11145C27.25 3.85803 27.4558 3.65247 27.7092 3.65247C27.9624 3.65247 28.1682 3.85803 28.1682 4.11145V7.89807C28.1682 8.15149 27.9624 8.35706 27.7092 8.35706Z" fill="#3B82F6"/>
<path d="M28.2629 12.1312H27.1077C26.8542 12.1312 26.6484 11.9257 26.6484 11.6722V7.89856C26.6484 7.64514 26.8542 7.43958 27.1077 7.43958H28.2629C28.5161 7.43958 28.7219 7.64514 28.7219 7.89856V11.6722C28.7219 11.9257 28.5161 12.1312 28.2629 12.1312ZM27.5667 11.213H27.804V8.35754H27.5667V11.213Z" fill="#3B82F6"/>
</svg>
