<svg width="36" height="26" viewBox="0 0 36 26" fill="none" xmlns="http://www.w3.org/2000/svg">
<path d="M35.4385 21.0159H1.42188C1.12891 21.0159 0.890625 20.7781 0.890625 20.4849V1.25977C0.890625 0.966309 1.12891 0.728516 1.42188 0.728516H35.4385C35.7319 0.728516 35.9697 0.966309 35.9697 1.25977V20.4849C35.9697 20.7781 35.7319 21.0159 35.4385 21.0159ZM1.95312 19.9536H34.9072V1.79077H1.95312V19.9536Z" fill="#3B82F6"/>
<path d="M5.56201 18.3516C4.33252 18.3516 3.33398 17.3511 3.33398 16.123C3.33398 14.8931 4.33252 13.8945 5.56201 13.8945C6.79053 13.8945 7.79102 14.8931 7.79102 16.123C7.79102 17.3511 6.79053 18.3516 5.56201 18.3516ZM5.56201 14.9543C4.91846 14.9543 4.39404 15.4795 4.39404 16.123C4.39404 16.7646 4.91846 17.2893 5.56201 17.2893C6.20654 17.2893 6.72852 16.7646 6.72852 16.123C6.72852 15.4795 6.20654 14.9543 5.56201 14.9543Z" fill="#3B82F6"/>
<path d="M14.1387 12.3201C12.9111 12.3201 11.9102 11.3193 11.9102 10.0916C11.9102 8.86133 12.9111 7.86255 14.1387 7.86255C15.3691 7.86255 16.3677 8.86133 16.3677 10.0916C16.3677 11.3193 15.3691 12.3201 14.1387 12.3201ZM14.1387 8.9248C13.4971 8.9248 12.9722 9.44775 12.9722 10.0916C12.9722 10.7351 13.4971 11.2578 14.1387 11.2578C14.7827 11.2578 15.3076 10.7351 15.3076 10.0916C15.3076 9.44775 14.7827 8.9248 14.1387 8.9248Z" fill="#3B82F6"/>
<path d="M22.7188 15.3242C21.4907 15.3242 20.4902 14.3235 20.4902 13.0955C20.4902 11.8655 21.4907 10.8647 22.7188 10.8647C23.9468 10.8647 24.9473 11.8655 24.9473 13.0955C24.9473 14.3235 23.9468 15.3242 22.7188 15.3242ZM22.7188 11.927C22.0752 11.927 21.5522 12.4517 21.5522 13.0955C21.5522 13.7371 22.0752 14.262 22.7188 14.262C23.3628 14.262 23.8853 13.7371 23.8853 13.0955C23.8853 12.4517 23.3628 11.927 22.7188 11.927Z" fill="#3B82F6"/>
<path d="M31.2942 7.85201C30.8948 7.85201 30.5017 7.74385 30.1511 7.5334C29.6413 7.22749 29.28 6.74092 29.136 6.16304C28.9914 5.58516 29.0803 4.98579 29.3865 4.47603C29.6926 3.96626 30.1809 3.60518 30.7571 3.46065C31.949 3.16328 33.1618 3.8896 33.4592 5.0815C33.6062 5.65938 33.5168 6.2585 33.2087 6.76875C32.9026 7.28072 32.4162 7.6396 31.8381 7.78389C31.6579 7.83101 31.4748 7.85201 31.2942 7.85201ZM31.2986 4.45479C31.2048 4.45479 31.1096 4.46773 31.0134 4.49117C30.7121 4.56514 30.4573 4.75459 30.2976 5.02217C30.1365 5.28975 30.0896 5.6042 30.1662 5.90596C30.2429 6.20772 30.4294 6.4626 30.697 6.62422C30.9651 6.7834 31.2771 6.83003 31.5813 6.75362C31.885 6.6794 32.1374 6.49019 32.2995 6.22237C32.4587 5.95699 32.5056 5.64253 32.4314 5.34102C32.2971 4.80977 31.821 4.45479 31.2986 4.45479Z" fill="#3B82F6"/>
<path d="M23.9934 12.5156C23.8469 12.5156 23.698 12.4538 23.594 12.3327C23.4006 12.1118 23.4241 11.7761 23.6452 11.583L29.6682 6.33739C29.8894 6.14403 30.2248 6.16722 30.4182 6.38817C30.6111 6.60912 30.5876 6.94505 30.3669 7.13817L24.3415 12.3838C24.2419 12.4731 24.1189 12.5156 23.9934 12.5156Z" fill="#3B82F6"/>
<path d="M21.1188 13.0659C21.0598 13.0659 21.0002 13.0552 20.9426 13.0361L15.5681 11.1516C15.2893 11.0559 15.1447 10.7522 15.2404 10.476C15.3381 10.1999 15.6398 10.0554 15.9162 10.1509L21.2932 12.0332C21.5695 12.1289 21.716 12.4326 21.6184 12.7087C21.5441 12.9277 21.3381 13.0659 21.1188 13.0659Z" fill="#3B82F6"/>
<path d="M6.94892 15.677C6.78339 15.677 6.61737 15.5984 6.51581 15.4516C6.34589 15.2116 6.40302 14.8803 6.64276 14.7121L12.4455 10.6333C12.6852 10.4631 13.0168 10.5207 13.1848 10.7605C13.3547 11.0007 13.2971 11.3322 13.0568 11.5L7.25507 15.5813C7.16181 15.645 7.05536 15.677 6.94892 15.677Z" fill="#3B82F6"/>
<path d="M23.8979 23.4697H12.9629C12.6699 23.4697 12.4316 23.2317 12.4316 22.9387V20.4849C12.4316 20.1917 12.6699 19.9536 12.9629 19.9536H23.8979C24.1909 19.9536 24.4272 20.1917 24.4272 20.4849V22.9387C24.4272 23.2317 24.1909 23.4697 23.8979 23.4697ZM13.4941 22.4075H23.3667V21.0159H13.4941V22.4075Z" fill="#3B82F6"/>
<path d="M31.8042 25.5392H5.05859C4.76465 25.5392 4.52734 25.3011 4.52734 25.0082V22.9388C4.52734 22.6454 4.76465 22.4076 5.05859 22.4076H31.8042C32.0977 22.4076 32.3354 22.6454 32.3354 22.9388V25.0082C32.3354 25.3011 32.0977 25.5392 31.8042 25.5392ZM5.58936 24.4769H31.2734V23.4698H5.58936V24.4769Z" fill="#3B82F6"/>
</svg>
