<svg width="30" height="30" viewBox="0 0 30 30" fill="none" xmlns="http://www.w3.org/2000/svg">
<path d="M11.3517 19.6526C6.79858 19.6526 3.09375 15.9474 3.09375 11.3947C3.09375 6.83997 6.79858 3.13525 11.3517 3.13525C15.9062 3.13525 19.6113 6.83997 19.6113 11.3947C19.6113 11.7848 19.5842 12.178 19.5291 12.5618C19.499 12.7765 19.2986 12.9264 19.0836 12.8965C18.8689 12.8647 18.7189 12.6659 18.7487 12.451C18.798 12.1038 18.8231 11.7484 18.8231 11.3947C18.8231 7.27429 15.4719 3.9231 11.3517 3.9231C7.23303 3.9231 3.88171 7.27429 3.88171 11.3947C3.88171 15.5132 7.23303 18.8644 11.3517 18.8644C11.7213 18.8644 12.0922 18.8376 12.4572 18.7841C12.6704 18.7539 12.8723 18.9008 12.9041 19.1172C12.9355 19.3319 12.7874 19.5325 12.5725 19.5642C12.1697 19.6223 11.7593 19.6526 11.3517 19.6526Z" fill="#3B82F6"/>
<path d="M11.3514 21.8053C5.61267 21.8053 0.941406 17.1354 0.941406 11.395C0.941406 5.65417 5.61267 0.984375 11.3514 0.984375C17.0922 0.984375 21.7634 5.65417 21.7634 11.395C21.7634 11.9081 21.7257 12.4244 21.6517 12.9281C21.6199 13.1428 21.4178 13.2931 21.203 13.2599C20.9882 13.2284 20.84 13.0276 20.8713 12.8131C20.9408 12.347 20.9753 11.8705 20.9753 11.395C20.9753 6.08862 16.6581 1.77234 11.3514 1.77234C6.04712 1.77234 1.72937 6.08862 1.72937 11.395C1.72937 16.701 6.04712 21.0171 11.3514 21.0171C12.0513 21.0171 12.7493 20.9409 13.4253 20.7928C13.6384 20.7456 13.8485 20.8813 13.8959 21.0945C13.9417 21.3062 13.8074 21.5162 13.5942 21.5636C12.863 21.7247 12.108 21.8053 11.3514 21.8053Z" fill="#3B82F6"/>
<path d="M18.3093 22.3123C17.1204 22.3123 15.9296 21.859 15.0247 20.9542C13.2131 19.1428 13.2131 16.1957 15.0247 14.3845C15.901 13.5061 17.0681 13.0232 18.3093 13.0232C19.5507 13.0232 20.7161 13.5061 21.5944 14.3845C22.4707 15.2609 22.9539 16.4279 22.9539 17.6692C22.9539 18.9089 22.4707 20.076 21.5944 20.9542C20.6877 21.859 19.4987 22.3123 18.3093 22.3123ZM18.3093 13.811C17.2783 13.811 16.3101 14.2123 15.582 14.9421C14.077 16.4453 14.077 18.8932 15.582 20.3967C17.0854 21.9003 19.5332 21.9003 21.037 20.3967C22.5403 18.8932 22.5403 16.4453 21.037 14.9421C20.3086 14.2123 19.3392 13.811 18.3093 13.811Z" fill="#3B82F6"/>
<path d="M22.6508 22.4038C22.5498 22.4038 22.4486 22.3661 22.373 22.2888L21.0369 20.9543C20.8835 20.7993 20.8835 20.5499 21.0369 20.3967C21.1917 20.2418 21.4395 20.2418 21.5944 20.3967L22.9287 21.7312C23.0835 21.886 23.0835 22.1355 22.9287 22.2888C22.853 22.3661 22.752 22.4038 22.6508 22.4038Z" fill="#3B82F6"/>
<path d="M28.3072 29.2797C28.0228 29.2797 27.7401 29.1709 27.5238 28.9561L22.1196 23.5504C21.687 23.1192 21.687 22.4165 22.1179 21.9853L22.625 21.4783C23.0562 21.0473 23.7589 21.0473 24.1899 21.4783L29.5957 26.8842C30.0271 27.3152 30.0271 28.0181 29.5957 28.4505L29.0902 28.9561C28.874 29.1709 28.5914 29.2797 28.3072 29.2797ZM23.4066 21.9428C23.3261 21.9428 23.2439 21.9742 23.1808 22.0358L22.6755 22.5413C22.5523 22.6659 22.5523 22.868 22.6755 22.993L28.0811 28.3986C28.2061 28.5233 28.4081 28.5233 28.5328 28.3986L29.0383 27.8935C29.1628 27.7686 29.1628 27.5663 29.0383 27.4416L23.6327 22.0358C23.5708 21.9742 23.4889 21.9428 23.4066 21.9428Z" fill="#3B82F6"/>
<path d="M8.65039 10.733H9.75122C9.66577 10.5564 9.57727 10.3842 9.48572 10.2152C9.39258 10.0477 9.30579 9.87854 9.22681 9.70959C9.14612 9.54077 9.07983 9.36719 9.03101 9.18542C8.97888 9.00403 8.95508 8.81738 8.95508 8.62329C8.95508 8.31982 9.01672 8.03564 9.14331 7.77051C9.26953 7.50513 9.44006 7.27429 9.65637 7.07556C9.86951 6.87805 10.1221 6.7218 10.4146 6.60815C10.7051 6.49597 11.0128 6.4375 11.3414 6.4375C11.8231 6.4375 12.2733 6.55591 12.6934 6.79114C13.1149 7.0282 13.4608 7.35168 13.7306 7.76404L13.1122 8.44653C12.9098 8.1178 12.6444 7.85547 12.316 7.65662C11.9874 7.45911 11.6539 7.35974 11.316 7.35974C11.1235 7.35974 10.9468 7.39636 10.7855 7.46716C10.6259 7.53992 10.4854 7.63293 10.3623 7.75317C10.2406 7.86975 10.1459 8.01367 10.0797 8.18091C10.0116 8.3501 9.97852 8.52686 9.97852 8.71179C9.97852 8.88049 10.0056 9.04626 10.059 9.21069C10.1144 9.37488 10.1824 9.53906 10.2614 9.70349C10.3417 9.86768 10.4302 10.035 10.5265 10.2024C10.6241 10.3713 10.7142 10.5482 10.7997 10.733H13.0598V11.5922H11.0762C11.0936 11.6854 11.1063 11.7755 11.114 11.8639C11.1235 11.954 11.1282 12.0422 11.1282 12.1355C11.1282 12.5491 11.035 12.9409 10.8485 13.3105C10.6638 13.6815 10.345 14.1112 9.89001 14.5991C10.2012 14.5154 10.5123 14.4729 10.8235 14.4729C11.1613 14.4729 11.4662 14.5105 11.7395 14.5879C12.0142 14.6622 12.2986 14.7002 12.5922 14.7002C12.7612 14.7002 12.9269 14.6809 13.0912 14.6433C13.2556 14.6053 13.448 14.5485 13.6678 14.4729L13.944 15.3193C13.7261 15.4297 13.4968 15.5133 13.2556 15.5736C13.017 15.6318 12.7786 15.6604 12.5431 15.6604C12.3491 15.6604 12.1659 15.6445 11.9935 15.6097C11.8197 15.5768 11.6447 15.5402 11.4694 15.5024C11.2925 15.4646 11.1124 15.4297 10.9323 15.3951C10.7509 15.3617 10.5631 15.3445 10.3702 15.3445C10.1584 15.3445 9.92322 15.3666 9.66113 15.4077C9.40051 15.4503 9.15735 15.5057 8.92981 15.5736L8.65039 14.7634C9.19043 14.2501 9.57568 13.7953 9.80652 13.4006C10.0387 13.004 10.1553 12.5996 10.1553 12.1858C10.1553 11.9836 10.1284 11.7866 10.0797 11.5922H8.65039V10.733Z" fill="#3B82F6"/>
</svg>
