<svg width="23" height="30" viewBox="0 0 23 30" fill="none" xmlns="http://www.w3.org/2000/svg">
<path d="M11.5012 25.859C11.4475 25.859 11.3937 25.8455 11.3454 25.8192C3.60447 21.5902 4.20115 14.605 4.2086 14.5347C4.21836 14.4332 4.27513 14.3427 4.36204 14.2895C4.44883 14.2357 4.55528 14.2266 4.65049 14.2632C4.66099 14.2662 5.12315 14.3996 5.82334 13.7001C6.6212 12.9022 6.7556 11.9845 6.75694 11.9754C6.77891 11.8139 6.91709 11.6941 7.07969 11.6941H15.923C16.0862 11.6941 16.2237 11.8139 16.2458 11.9754C16.2463 11.979 16.3179 12.451 16.643 13.005C16.7342 13.1602 16.6824 13.3596 16.5276 13.4507C16.3723 13.5418 16.1723 13.4904 16.0812 13.3351C15.8501 12.9414 15.7261 12.5812 15.6618 12.3459H7.34068C7.23375 12.7415 6.95616 13.4879 6.28355 14.1605C5.69542 14.7487 5.18541 14.9034 4.84556 14.9229C4.84068 16.2894 5.24058 21.6562 11.5012 25.1607C16.1033 22.5874 17.5859 19.0774 18.0163 16.5731C18.0469 16.3958 18.2132 16.2753 18.393 16.3071C18.5696 16.3376 18.6888 16.5059 18.6583 16.6831C18.2823 18.8726 16.8718 22.9707 11.6572 25.8192C11.6089 25.8455 11.5552 25.859 11.5012 25.859Z" fill="#3B82F6"/>
<path d="M11.5013 26.0591C11.4138 26.0591 11.3269 26.0369 11.2499 25.9949C9.46067 25.0175 7.96677 23.8111 6.80943 22.4092C5.88035 21.2838 5.16502 20.0308 4.6832 18.6849C3.84629 16.3469 4.00791 14.5314 4.00986 14.5137C4.02537 14.3527 4.11814 14.2044 4.25779 14.1189C4.38987 14.0371 4.55979 14.0188 4.70872 14.0715C4.71531 14.0726 4.73386 14.0753 4.76231 14.0753C4.88328 14.0753 5.21531 14.025 5.68211 13.5587C6.42417 12.8166 6.55796 11.955 6.55918 11.9464C6.59409 11.6895 6.81809 11.4941 7.07981 11.4941H15.9231C16.1847 11.4941 16.4087 11.6894 16.4441 11.9483C16.4444 11.9503 16.5147 12.3911 16.8157 12.9038C16.9624 13.1536 16.8786 13.4763 16.6291 13.6231C16.5481 13.6707 16.4559 13.6958 16.3624 13.6958C16.1766 13.6958 16.0028 13.5964 15.9088 13.4365C15.711 13.0994 15.5875 12.7841 15.5124 12.5459H7.49058C7.35484 12.9779 7.05552 13.6716 6.42503 14.3019C5.88779 14.8394 5.40318 15.038 5.04734 15.1003C5.06345 15.8308 5.20457 17.3849 6.0062 19.1577C7.07639 21.5247 8.92503 23.4667 11.5013 24.9312C15.9636 22.3984 17.4009 18.9742 17.8193 16.5393C17.863 16.2859 18.0801 16.1021 18.3355 16.1021C18.3663 16.1021 18.3974 16.1048 18.428 16.1102C18.7125 16.1595 18.9046 16.4318 18.8556 16.7171C18.4735 18.9417 17.0428 23.1053 11.7532 25.9948C11.6758 26.0369 11.5888 26.0591 11.5013 26.0591ZM4.53233 14.4412C4.50925 14.4412 4.48692 14.4475 4.46751 14.4595C4.43296 14.4807 4.4116 14.5149 4.40781 14.5539C4.4011 14.6238 3.83079 21.486 11.4415 25.6437C11.4779 25.6637 11.5246 25.6638 11.5617 25.6436C16.7033 22.835 18.0915 18.8028 18.4613 16.6493C18.4731 16.5811 18.4272 16.516 18.3591 16.5042C18.3507 16.5027 18.343 16.5021 18.3355 16.5021C18.2754 16.5021 18.224 16.5462 18.2136 16.6071C17.7773 19.1455 16.2755 22.7203 11.599 25.3353L11.5013 25.39L11.4037 25.3353C8.69993 23.8219 6.76133 21.7989 5.6417 19.3225C4.73569 17.3187 4.64329 15.5777 4.64573 14.9222L4.64634 14.7341L4.83421 14.7233C5.12656 14.7065 5.59068 14.5707 6.14219 14.0191C6.78501 13.3764 7.04807 12.6622 7.14768 12.2937L7.18772 12.1459H15.8147L15.855 12.2933C15.9156 12.5158 16.034 12.8596 16.2538 13.2339C16.2879 13.2921 16.3669 13.3131 16.4265 13.2782C16.4859 13.2433 16.5058 13.1661 16.4707 13.1063C16.124 12.5157 16.0483 12.0069 16.0477 12.002C16.0392 11.9397 15.9868 11.8942 15.9231 11.8942H7.07981C7.01719 11.8942 6.9636 11.9407 6.95518 12.0024C6.94895 12.045 6.79966 13.0068 5.96494 13.8416C5.41294 14.393 4.97446 14.4753 4.76231 14.4753C4.67356 14.4753 4.61582 14.4614 4.59507 14.4554L4.57883 14.4499C4.5637 14.4441 4.54807 14.4412 4.53233 14.4412Z" fill="#3B82F6"/>
<path d="M11.317 21.2246C11.2308 21.2246 11.1478 21.1903 11.0872 21.1292L8.42929 18.4715C8.30222 18.3443 8.30222 18.1383 8.42929 18.0105C8.55661 17.8833 8.76266 17.8833 8.88986 18.0105L11.317 20.4383L17.5594 14.196C17.6866 14.0688 17.8927 14.0688 18.0197 14.196C18.1477 14.3231 18.1477 14.5298 18.0197 14.6569L11.5476 21.1292C11.4864 21.1903 11.4039 21.2246 11.317 21.2246Z" fill="#3B82F6"/>
<path d="M11.3174 21.4247C11.1785 21.4247 11.0428 21.3683 10.9455 21.27L8.28831 18.6129C8.08373 18.4083 8.0836 18.0748 8.28783 17.8695C8.38768 17.7698 8.51964 17.7151 8.66002 17.7151C8.8004 17.7151 8.93236 17.7698 9.03172 17.8692L11.3174 20.1555L17.4183 14.0546C17.5177 13.9553 17.6496 13.9006 17.79 13.9006C17.9304 13.9006 18.0624 13.9554 18.1616 14.0547C18.2611 14.1535 18.3161 14.2857 18.316 14.4265C18.316 14.5673 18.261 14.6995 18.1611 14.7988L11.6893 21.2707C11.5901 21.37 11.458 21.4247 11.3174 21.4247ZM8.66002 18.1151C8.62645 18.1151 8.59483 18.1282 8.57103 18.152C8.52232 18.201 8.5222 18.2811 8.57115 18.3302L11.229 20.9878C11.2764 21.0357 11.3595 21.0347 11.4066 20.9878L17.8786 14.5156C17.9029 14.4915 17.9161 14.46 17.9161 14.4265C17.9161 14.393 17.9029 14.3615 17.8791 14.3379C17.8307 14.2894 17.7488 14.2901 17.7012 14.3375L11.3174 20.7213L8.74876 18.1519C8.72508 18.1282 8.69347 18.1151 8.66002 18.1151Z" fill="#3B82F6"/>
<path d="M22.1412 29.4965H0.716797C0.440674 29.4965 0.216797 29.2726 0.216797 28.9965V1.03125C0.216797 0.755127 0.440674 0.53125 0.716797 0.53125H15.0691C15.203 0.53125 15.3312 0.58493 15.4252 0.680267L22.4973 7.85492C22.5895 7.94846 22.6412 8.07455 22.6412 8.2059V28.9965C22.6412 29.2726 22.4174 29.4965 22.1412 29.4965ZM1.2168 28.4965H21.6412V8.41092L14.8599 1.53125H1.2168V28.4965Z" fill="#3B82F6"/>
<path d="M22.1406 8.91397H15.0684C14.7922 8.91397 14.5684 8.69012 14.5684 8.41397V1.03125H15.5684V7.91397H22.1406V8.91397Z" fill="#3B82F6"/>
</svg>
