<svg width="29" height="34" viewBox="0 0 29 34" fill="none" xmlns="http://www.w3.org/2000/svg">
<path d="M0.613281 33.5815H25.2021C25.4783 33.5815 25.7021 33.3577 25.7021 33.0815V0.98291C25.7021 0.706757 25.4783 0.48291 25.2021 0.48291H8.7301C8.59619 0.48291 8.46802 0.536591 8.37402 0.631927L0.257202 8.867C0.164917 8.96057 0.113281 9.08667 0.113281 9.21802V33.0815C0.113281 33.3577 0.337158 33.5815 0.613281 33.5815ZM24.7021 32.5815H1.11328V9.42303L8.93933 1.48291H24.7021V32.5815Z" fill="#3B82F6"/>
<path d="M4.89453 19.6685C4.89453 19.1162 5.34225 18.6685 5.89453 18.6685H27.747C28.2993 18.6685 28.747 19.1162 28.747 19.6685V26.3791C28.747 26.9314 28.2993 27.3791 27.747 27.3791H5.89453C5.34225 27.3791 4.89453 26.9314 4.89453 26.3791V19.6685Z" fill="#3B82F6"/>
<path d="M0.611328 9.82816H8.72815C9.00427 9.82816 9.22815 9.60428 9.22815 9.32812V0.98291H8.22815V8.82809H0.611328V9.82816Z" fill="#3B82F6"/>
</svg>
