<svg width="801" height="517" viewBox="0 0 801 517" fill="none" xmlns="http://www.w3.org/2000/svg">
<path d="M675.041 83V65.72H681.869C682.037 65.72 682.237 65.728 682.469 65.744C682.701 65.752 682.925 65.776 683.141 65.816C684.077 65.96 684.861 66.28 685.493 66.776C686.133 67.272 686.613 67.9 686.933 68.66C687.253 69.412 687.413 70.248 687.413 71.168C687.413 72.08 687.249 72.916 686.921 73.676C686.601 74.428 686.121 75.056 685.481 75.56C684.849 76.056 684.069 76.376 683.141 76.52C682.925 76.552 682.701 76.576 682.469 76.592C682.237 76.608 682.037 76.616 681.869 76.616H677.177V83H675.041ZM677.177 74.588H681.797C681.949 74.588 682.121 74.58 682.313 74.564C682.513 74.548 682.701 74.52 682.877 74.48C683.429 74.352 683.877 74.12 684.221 73.784C684.573 73.44 684.829 73.04 684.989 72.584C685.149 72.12 685.229 71.648 685.229 71.168C685.229 70.688 685.149 70.22 684.989 69.764C684.829 69.3 684.573 68.896 684.221 68.552C683.877 68.208 683.429 67.976 682.877 67.856C682.701 67.808 682.513 67.78 682.313 67.772C682.121 67.756 681.949 67.748 681.797 67.748H677.177V74.588ZM689.567 83V70.04H691.475V73.172L691.163 72.764C691.315 72.364 691.511 71.996 691.751 71.66C691.999 71.324 692.275 71.048 692.579 70.832C692.915 70.56 693.295 70.352 693.719 70.208C694.143 70.064 694.575 69.98 695.015 69.956C695.455 69.924 695.867 69.952 696.251 70.04V72.044C695.803 71.924 695.311 71.892 694.775 71.948C694.239 72.004 693.743 72.2 693.287 72.536C692.871 72.832 692.547 73.192 692.315 73.616C692.091 74.04 691.935 74.5 691.847 74.996C691.759 75.484 691.715 75.984 691.715 76.496V83H689.567ZM703.662 83.36C702.39 83.36 701.278 83.08 700.326 82.52C699.382 81.952 698.646 81.164 698.118 80.156C697.59 79.14 697.326 77.956 697.326 76.604C697.326 75.188 697.586 73.964 698.106 72.932C698.626 71.892 699.35 71.092 700.278 70.532C701.214 69.964 702.31 69.68 703.566 69.68C704.87 69.68 705.978 69.98 706.89 70.58C707.81 71.18 708.498 72.036 708.954 73.148C709.418 74.26 709.618 75.584 709.554 77.12H707.394V76.352C707.37 74.76 707.046 73.572 706.422 72.788C705.798 71.996 704.87 71.6 703.638 71.6C702.318 71.6 701.314 72.024 700.626 72.872C699.938 73.72 699.594 74.936 699.594 76.52C699.594 78.048 699.938 79.232 700.626 80.072C701.314 80.912 702.294 81.332 703.566 81.332C704.422 81.332 705.166 81.136 705.798 80.744C706.43 80.352 706.926 79.788 707.286 79.052L709.338 79.76C708.834 80.904 708.074 81.792 707.058 82.424C706.05 83.048 704.918 83.36 703.662 83.36ZM698.874 77.12V75.404H708.45V77.12H698.874ZM715.021 83L710.317 70.04H712.477L716.113 80.276L719.737 70.04H721.909L717.205 83H715.021ZM728.986 83.36C727.714 83.36 726.602 83.08 725.65 82.52C724.706 81.952 723.97 81.164 723.442 80.156C722.914 79.14 722.65 77.956 722.65 76.604C722.65 75.188 722.91 73.964 723.43 72.932C723.95 71.892 724.674 71.092 725.602 70.532C726.538 69.964 727.634 69.68 728.89 69.68C730.194 69.68 731.302 69.98 732.214 70.58C733.134 71.18 733.822 72.036 734.278 73.148C734.742 74.26 734.942 75.584 734.878 77.12H732.718V76.352C732.694 74.76 732.37 73.572 731.746 72.788C731.122 71.996 730.194 71.6 728.962 71.6C727.642 71.6 726.638 72.024 725.95 72.872C725.262 73.72 724.918 74.936 724.918 76.52C724.918 78.048 725.262 79.232 725.95 80.072C726.638 80.912 727.618 81.332 728.89 81.332C729.746 81.332 730.49 81.136 731.122 80.744C731.754 80.352 732.25 79.788 732.61 79.052L734.662 79.76C734.158 80.904 733.398 81.792 732.382 82.424C731.374 83.048 730.242 83.36 728.986 83.36ZM724.198 77.12V75.404H733.774V77.12H724.198ZM746.187 83V76.508C746.187 75.892 746.131 75.3 746.019 74.732C745.915 74.164 745.727 73.656 745.455 73.208C745.191 72.752 744.831 72.392 744.375 72.128C743.927 71.864 743.359 71.732 742.671 71.732C742.135 71.732 741.647 71.824 741.207 72.008C740.775 72.184 740.403 72.456 740.091 72.824C739.779 73.192 739.535 73.656 739.359 74.216C739.191 74.768 739.107 75.42 739.107 76.172L737.703 75.74C737.703 74.484 737.927 73.408 738.375 72.512C738.831 71.608 739.467 70.916 740.283 70.436C741.107 69.948 742.075 69.704 743.187 69.704C744.027 69.704 744.743 69.836 745.335 70.1C745.927 70.364 746.419 70.716 746.811 71.156C747.203 71.588 747.511 72.076 747.735 72.62C747.959 73.156 748.115 73.704 748.203 74.264C748.299 74.816 748.347 75.34 748.347 75.836V83H746.187ZM736.947 83V70.04H738.867V73.508H739.107V83H736.947ZM758.462 83C757.694 83.152 756.934 83.212 756.182 83.18C755.438 83.156 754.774 83.008 754.19 82.736C753.606 82.456 753.162 82.024 752.858 81.44C752.602 80.928 752.462 80.412 752.438 79.892C752.422 79.364 752.414 78.768 752.414 78.104V66.44H754.55V78.008C754.55 78.536 754.554 78.988 754.562 79.364C754.578 79.74 754.662 80.064 754.814 80.336C755.102 80.848 755.558 81.148 756.182 81.236C756.814 81.324 757.574 81.3 758.462 81.164V83ZM749.786 71.804V70.04H758.462V71.804H749.786ZM761.094 67.748V65.54H763.23V67.748H761.094ZM761.094 83V70.04H763.23V83H761.094ZM772.11 83.36C770.822 83.36 769.71 83.068 768.774 82.484C767.846 81.9 767.13 81.092 766.626 80.06C766.122 79.028 765.87 77.844 765.87 76.508C765.87 75.148 766.126 73.956 766.638 72.932C767.15 71.908 767.874 71.112 768.81 70.544C769.746 69.968 770.846 69.68 772.11 69.68C773.406 69.68 774.522 69.972 775.458 70.556C776.394 71.132 777.11 71.936 777.606 72.968C778.11 73.992 778.362 75.172 778.362 76.508C778.362 77.86 778.11 79.052 777.606 80.084C777.102 81.108 776.382 81.912 775.446 82.496C774.51 83.072 773.398 83.36 772.11 83.36ZM772.11 81.332C773.454 81.332 774.454 80.884 775.11 79.988C775.766 79.092 776.094 77.932 776.094 76.508C776.094 75.044 775.762 73.88 775.098 73.016C774.434 72.144 773.438 71.708 772.11 71.708C771.206 71.708 770.462 71.912 769.878 72.32C769.294 72.728 768.858 73.292 768.57 74.012C768.282 74.732 768.138 75.564 768.138 76.508C768.138 77.964 768.474 79.132 769.146 80.012C769.818 80.892 770.806 81.332 772.11 81.332ZM789.992 83V76.508C789.992 75.892 789.936 75.3 789.824 74.732C789.72 74.164 789.532 73.656 789.26 73.208C788.996 72.752 788.636 72.392 788.18 72.128C787.732 71.864 787.164 71.732 786.476 71.732C785.94 71.732 785.452 71.824 785.012 72.008C784.58 72.184 784.208 72.456 783.896 72.824C783.584 73.192 783.34 73.656 783.164 74.216C782.996 74.768 782.912 75.42 782.912 76.172L781.508 75.74C781.508 74.484 781.732 73.408 782.18 72.512C782.636 71.608 783.272 70.916 784.088 70.436C784.912 69.948 785.88 69.704 786.992 69.704C787.832 69.704 788.548 69.836 789.14 70.1C789.732 70.364 790.224 70.716 790.616 71.156C791.008 71.588 791.316 72.076 791.54 72.62C791.764 73.156 791.92 73.704 792.008 74.264C792.104 74.816 792.152 75.34 792.152 75.836V83H789.992ZM780.752 83V70.04H782.672V73.508H782.912V83H780.752Z" fill="black"/>
<g clip-path="url(#clip0_573_1872)">
<path d="M47.2783 139.97L73.3633 113.885H490.721L464.636 139.97H47.2783Z" fill="#F8F8F8" stroke="#164B00" stroke-width="0.815" stroke-linecap="round" stroke-linejoin="round"/>
<path d="M536.369 35.6299H27.7148L73.3629 113.885H490.721L536.369 35.6299Z" fill="#165600" stroke="#164B00" stroke-width="0.815" stroke-linecap="round" stroke-linejoin="round"/>
<path d="M73.3629 113.885L47.2779 139.97L1.62988 61.7149L27.7149 35.6299L73.3629 113.885Z" fill="#165600" stroke="#164B00" stroke-width="0.815" stroke-linecap="round" stroke-linejoin="round"/>
<path d="M99.4463 231.266L125.531 205.181H438.549L412.464 231.266H99.4463Z" fill="#F8F8F8" stroke="#164B00" stroke-width="0.815" stroke-linecap="round" stroke-linejoin="round"/>
<path d="M484.199 126.924H79.8838L125.532 205.179H438.55L484.199 126.924Z" fill="#008100" stroke="#164B00" stroke-width="0.815" stroke-linecap="round" stroke-linejoin="round"/>
<path d="M125.533 205.182L99.4459 231.266L53.7979 153.011L79.8839 126.924L125.533 205.182Z" fill="#008100" stroke="#164B00" stroke-width="0.815" stroke-linecap="round" stroke-linejoin="round"/>
<path d="M151.618 322.563L177.703 296.478H386.382L360.297 322.563H151.618Z" fill="#F8F8F8" stroke="#164B00" stroke-width="0.815" stroke-linecap="round" stroke-linejoin="round"/>
<path d="M432.03 218.224H132.054L177.702 296.479H386.381L432.03 218.224Z" fill="#00B415" stroke="#164B00" stroke-width="0.815" stroke-linecap="round" stroke-linejoin="round"/>
<path d="M177.703 296.479L151.618 322.564L105.97 244.309L132.054 218.224L177.703 296.479Z" fill="#00B415" stroke="#164B00" stroke-width="0.815" stroke-linecap="round" stroke-linejoin="round"/>
<path d="M203.787 413.86L229.872 387.775H334.211L308.126 413.86H203.787Z" fill="#F8F8F8" stroke="#164B00" stroke-width="0.815" stroke-linecap="round" stroke-linejoin="round"/>
<path d="M379.86 309.524H184.224L229.872 387.779H334.211L379.86 309.524Z" fill="#A4DB49" stroke="#164B00" stroke-width="0.815" stroke-linecap="round" stroke-linejoin="round"/>
<path d="M229.872 387.776L203.787 413.861L158.139 335.606L184.224 309.524L229.872 387.776Z" fill="#A4DB49" stroke="#164B00" stroke-width="0.815" stroke-linecap="round" stroke-linejoin="round"/>
<path d="M327.69 400.818H236.39L282.046 479.072L327.69 400.818Z" fill="#EF8D08" stroke="#164B00" stroke-width="0.815" stroke-linecap="round" stroke-linejoin="round"/>
<path d="M282.046 479.072L255.961 505.157L210.313 426.902L236.398 400.817L282.046 479.072Z" fill="#EF8D08" stroke="#164B00" stroke-width="0.815" stroke-linecap="round" stroke-linejoin="round"/>
<circle cx="1.63016" cy="61.7151" r="0.4075" fill="#164B00"/>
<path d="M3.25977 61.7153H509.469" stroke="#164B00" stroke-width="0.815" stroke-linecap="round" stroke-linejoin="round"/>
<circle cx="510.284" cy="61.7151" r="0.4075" fill="#164B00"/>
<circle cx="536.369" cy="35.6302" r="0.4075" fill="#164B00"/>
<path d="M535.237 36.7642L510.853 61.1472" stroke="#164B00" stroke-width="0.815" stroke-linecap="round" stroke-linejoin="round"/>
<circle cx="510.284" cy="61.7151" r="0.4075" fill="#164B00"/>
<circle cx="464.636" cy="139.97" r="0.4075" fill="#164B00"/>
<path d="M465.451 138.572L509.877 62.4131" stroke="#164B00" stroke-width="0.815" stroke-linecap="round" stroke-linejoin="round"/>
<circle cx="510.284" cy="61.7151" r="0.4075" fill="#164B00"/>
<circle cx="53.8001" cy="153.012" r="0.4075" fill="#164B00"/>
<path d="M55.4297 153.012H457.3" stroke="#164B00" stroke-width="0.815" stroke-linecap="round" stroke-linejoin="round"/>
<circle cx="458.116" cy="153.012" r="0.4075" fill="#164B00"/>
<circle cx="484.199" cy="126.927" r="0.4075" fill="#164B00"/>
<path d="M483.066 128.061L458.682 152.444" stroke="#164B00" stroke-width="0.815" stroke-linecap="round" stroke-linejoin="round"/>
<circle cx="458.115" cy="153.012" r="0.4075" fill="#164B00"/>
<circle cx="412.466" cy="231.266" r="0.4075" fill="#164B00"/>
<path d="M413.281 229.869L457.707 153.71" stroke="#164B00" stroke-width="0.815" stroke-linecap="round" stroke-linejoin="round"/>
<circle cx="458.116" cy="153.012" r="0.4075" fill="#164B00"/>
<circle cx="360.297" cy="322.563" r="0.4075" fill="#164B00"/>
<path d="M361.112 321.166L405.538 245.007" stroke="#164B00" stroke-width="0.815" stroke-linecap="round" stroke-linejoin="round"/>
<circle cx="405.945" cy="244.309" r="0.4075" fill="#164B00"/>
<circle cx="105.969" cy="244.309" r="0.4075" fill="#164B00"/>
<path d="M107.6 244.309H405.13" stroke="#164B00" stroke-width="0.815" stroke-linecap="round" stroke-linejoin="round"/>
<circle cx="405.945" cy="244.309" r="0.4075" fill="#164B00"/>
<circle cx="432.03" cy="218.224" r="0.4075" fill="#164B00"/>
<path d="M430.896 219.358L406.512 243.741" stroke="#164B00" stroke-width="0.815" stroke-linecap="round" stroke-linejoin="round"/>
<circle cx="405.945" cy="244.309" r="0.4075" fill="#164B00"/>
<circle cx="158.139" cy="335.606" r="0.4075" fill="#164B00"/>
<path d="M159.769 335.606H352.96" stroke="#164B00" stroke-width="0.815" stroke-linecap="round" stroke-linejoin="round"/>
<circle cx="353.775" cy="335.606" r="0.4075" fill="#164B00"/>
<circle cx="379.86" cy="309.521" r="0.4075" fill="#164B00"/>
<path d="M378.726 310.655L354.342 335.038" stroke="#164B00" stroke-width="0.815" stroke-linecap="round" stroke-linejoin="round"/>
<circle cx="353.775" cy="335.606" r="0.4075" fill="#164B00"/>
<circle cx="308.127" cy="413.86" r="0.4075" fill="#164B00"/>
<path d="M308.942 412.463L353.368 336.304" stroke="#164B00" stroke-width="0.815" stroke-linecap="round" stroke-linejoin="round"/>
<circle cx="353.775" cy="335.606" r="0.4075" fill="#164B00"/>
<circle cx="210.309" cy="426.903" r="0.4075" fill="#164B00"/>
<path d="M211.938 426.903H300.79" stroke="#164B00" stroke-width="0.815" stroke-linecap="round" stroke-linejoin="round"/>
<circle cx="301.606" cy="426.903" r="0.4075" fill="#164B00"/>
<circle cx="327.69" cy="400.818" r="0.4075" fill="#164B00"/>
<path d="M326.557 401.952L302.173 426.335" stroke="#164B00" stroke-width="0.815" stroke-linecap="round" stroke-linejoin="round"/>
<circle cx="301.606" cy="426.903" r="0.4075" fill="#164B00"/>
<circle cx="255.957" cy="505.157" r="0.4075" fill="#164B00"/>
<path d="M256.772 503.76L301.198 427.601" stroke="#164B00" stroke-width="0.815" stroke-linecap="round" stroke-linejoin="round"/>
<circle cx="301.607" cy="426.903" r="0.4075" fill="#164B00"/>
<path d="M484.2 128.557C485.101 128.557 485.83 127.827 485.83 126.927C485.83 126.027 485.101 125.297 484.2 125.297C483.3 125.297 482.57 126.027 482.57 126.927C482.57 127.827 483.3 128.557 484.2 128.557Z" fill="#164B00"/>
<path d="M27.714 37.26C28.6142 37.26 29.344 36.5302 29.344 35.63C29.344 34.7298 28.6142 34 27.714 34C26.8138 34 26.084 34.7298 26.084 35.63C26.084 36.5302 26.8138 37.26 27.714 37.26Z" fill="#164B00"/>
<path d="M1.63 63.345C2.53022 63.345 3.26 62.6152 3.26 61.715C3.26 60.8147 2.53022 60.085 1.63 60.085C0.729776 60.085 0 60.8147 0 61.715C0 62.6152 0.729776 63.345 1.63 63.345Z" fill="#164B00"/>
<path d="M73.3624 115.515C74.2626 115.515 74.9924 114.785 74.9924 113.885C74.9924 112.985 74.2626 112.255 73.3624 112.255C72.4622 112.255 71.7324 112.985 71.7324 113.885C71.7324 114.785 72.4622 115.515 73.3624 115.515Z" fill="#164B00"/>
<path d="M47.2784 141.6C48.1787 141.6 48.9084 140.87 48.9084 139.97C48.9084 139.07 48.1787 138.34 47.2784 138.34C46.3782 138.34 45.6484 139.07 45.6484 139.97C45.6484 140.87 46.3782 141.6 47.2784 141.6Z" fill="#164B00"/>
<path d="M79.8839 128.557C80.7841 128.557 81.5139 127.827 81.5139 126.927C81.5139 126.027 80.7841 125.297 79.8839 125.297C78.9837 125.297 78.2539 126.027 78.2539 126.927C78.2539 127.827 78.9837 128.557 79.8839 128.557Z" fill="#164B00"/>
<path d="M53.7999 154.642C54.7001 154.642 55.4299 153.912 55.4299 153.012C55.4299 152.112 54.7001 151.382 53.7999 151.382C52.8997 151.382 52.1699 152.112 52.1699 153.012C52.1699 153.912 52.8997 154.642 53.7999 154.642Z" fill="#164B00"/>
<path d="M125.532 206.812C126.433 206.812 127.162 206.082 127.162 205.182C127.162 204.282 126.433 203.552 125.532 203.552C124.632 203.552 123.902 204.282 123.902 205.182C123.902 206.082 124.632 206.812 125.532 206.812Z" fill="#164B00"/>
<path d="M99.4484 232.896C100.349 232.896 101.078 232.166 101.078 231.266C101.078 230.366 100.349 229.636 99.4484 229.636C98.5481 229.636 97.8184 230.366 97.8184 231.266C97.8184 232.166 98.5481 232.896 99.4484 232.896Z" fill="#164B00"/>
<path d="M132.054 219.854C132.954 219.854 133.684 219.124 133.684 218.224C133.684 217.324 132.954 216.594 132.054 216.594C131.154 216.594 130.424 217.324 130.424 218.224C130.424 219.124 131.154 219.854 132.054 219.854Z" fill="#164B00"/>
<path d="M105.97 245.939C106.87 245.939 107.6 245.209 107.6 244.309C107.6 243.409 106.87 242.679 105.97 242.679C105.07 242.679 104.34 243.409 104.34 244.309C104.34 245.209 105.07 245.939 105.97 245.939Z" fill="#164B00"/>
<path d="M177.702 298.109C178.602 298.109 179.332 297.379 179.332 296.479C179.332 295.579 178.602 294.849 177.702 294.849C176.802 294.849 176.072 295.579 176.072 296.479C176.072 297.379 176.802 298.109 177.702 298.109Z" fill="#164B00"/>
<path d="M151.618 324.193C152.519 324.193 153.248 323.463 153.248 322.563C153.248 321.663 152.519 320.933 151.618 320.933C150.718 320.933 149.988 321.663 149.988 322.563C149.988 323.463 150.718 324.193 151.618 324.193Z" fill="#164B00"/>
<path d="M184.224 311.151C185.124 311.151 185.854 310.421 185.854 309.521C185.854 308.621 185.124 307.891 184.224 307.891C183.324 307.891 182.594 308.621 182.594 309.521C182.594 310.421 183.324 311.151 184.224 311.151Z" fill="#164B00"/>
<path d="M158.138 337.236C159.038 337.236 159.768 336.506 159.768 335.606C159.768 334.706 159.038 333.976 158.138 333.976C157.238 333.976 156.508 334.706 156.508 335.606C156.508 336.506 157.238 337.236 158.138 337.236Z" fill="#164B00"/>
<path d="M229.872 389.406C230.772 389.406 231.502 388.676 231.502 387.776C231.502 386.876 230.772 386.146 229.872 386.146C228.972 386.146 228.242 386.876 228.242 387.776C228.242 388.676 228.972 389.406 229.872 389.406Z" fill="#164B00"/>
<path d="M203.786 415.49C204.686 415.49 205.416 414.76 205.416 413.86C205.416 412.96 204.686 412.23 203.786 412.23C202.886 412.23 202.156 412.96 202.156 413.86C202.156 414.76 202.886 415.49 203.786 415.49Z" fill="#164B00"/>
<path d="M236.394 402.448C237.294 402.448 238.024 401.718 238.024 400.818C238.024 399.918 237.294 399.188 236.394 399.188C235.493 399.188 234.764 399.918 234.764 400.818C234.764 401.718 235.493 402.448 236.394 402.448Z" fill="#164B00"/>
<path d="M210.308 428.533C211.208 428.533 211.938 427.803 211.938 426.903C211.938 426.003 211.208 425.273 210.308 425.273C209.408 425.273 208.678 426.003 208.678 426.903C208.678 427.803 209.408 428.533 210.308 428.533Z" fill="#164B00"/>
<path d="M282.042 480.702C282.942 480.702 283.672 479.972 283.672 479.072C283.672 478.172 282.942 477.442 282.042 477.442C281.142 477.442 280.412 478.172 280.412 479.072C280.412 479.972 281.142 480.702 282.042 480.702Z" fill="#164B00"/>
<path d="M327.691 402.448C328.591 402.448 329.321 401.718 329.321 400.818C329.321 399.918 328.591 399.188 327.691 399.188C326.79 399.188 326.061 399.918 326.061 400.818C326.061 401.718 326.79 402.448 327.691 402.448Z" fill="#164B00"/>
<path d="M334.212 389.406C335.112 389.406 335.842 388.676 335.842 387.776C335.842 386.876 335.112 386.146 334.212 386.146C333.312 386.146 332.582 386.876 332.582 387.776C332.582 388.676 333.312 389.406 334.212 389.406Z" fill="#164B00"/>
<path d="M379.86 311.151C380.761 311.151 381.49 310.421 381.49 309.521C381.49 308.621 380.761 307.891 379.86 307.891C378.96 307.891 378.23 308.621 378.23 309.521C378.23 310.421 378.96 311.151 379.86 311.151Z" fill="#164B00"/>
<path d="M386.382 298.109C387.282 298.109 388.012 297.379 388.012 296.479C388.012 295.579 387.282 294.849 386.382 294.849C385.482 294.849 384.752 295.579 384.752 296.479C384.752 297.379 385.482 298.109 386.382 298.109Z" fill="#164B00"/>
<path d="M432.03 219.854C432.931 219.854 433.66 219.124 433.66 218.224C433.66 217.324 432.931 216.594 432.03 216.594C431.13 216.594 430.4 217.324 430.4 218.224C430.4 219.124 431.13 219.854 432.03 219.854Z" fill="#164B00"/>
<path d="M438.55 206.812C439.45 206.812 440.18 206.082 440.18 205.182C440.18 204.282 439.45 203.552 438.55 203.552C437.65 203.552 436.92 204.282 436.92 205.182C436.92 206.082 437.65 206.812 438.55 206.812Z" fill="#164B00"/>
<path d="M490.72 115.515C491.62 115.515 492.35 114.785 492.35 113.885C492.35 112.985 491.62 112.255 490.72 112.255C489.82 112.255 489.09 112.985 489.09 113.885C489.09 114.785 489.82 115.515 490.72 115.515Z" fill="#164B00"/>
<path d="M536.368 37.26C537.269 37.26 537.998 36.5302 537.998 35.63C537.998 34.7298 537.269 34 536.368 34C535.468 34 534.738 34.7298 534.738 35.63C534.738 36.5302 535.468 37.26 536.368 37.26Z" fill="#164B00"/>
<path d="M255.956 506.787C256.856 506.787 257.586 506.057 257.586 505.157C257.586 504.257 256.856 503.527 255.956 503.527C255.056 503.527 254.326 504.257 254.326 505.157C254.326 506.057 255.056 506.787 255.956 506.787Z" fill="#164B00"/>
</g>
<path d="M675.041 263V245.72H681.869C682.037 245.72 682.237 245.728 682.469 245.744C682.701 245.752 682.925 245.776 683.141 245.816C684.077 245.96 684.861 246.28 685.493 246.776C686.133 247.272 686.613 247.9 686.933 248.66C687.253 249.412 687.413 250.248 687.413 251.168C687.413 252.504 687.065 253.664 686.369 254.648C685.673 255.624 684.653 256.236 683.309 256.484L682.493 256.616H677.177V263H675.041ZM685.325 263L681.917 255.968L684.029 255.32L687.773 263H685.325ZM677.177 254.588H681.797C681.949 254.588 682.121 254.58 682.313 254.564C682.513 254.548 682.701 254.52 682.877 254.48C683.429 254.352 683.877 254.12 684.221 253.784C684.573 253.44 684.829 253.04 684.989 252.584C685.149 252.12 685.229 251.648 685.229 251.168C685.229 250.688 685.149 250.22 684.989 249.764C684.829 249.3 684.573 248.896 684.221 248.552C683.877 248.208 683.429 247.976 682.877 247.856C682.701 247.808 682.513 247.78 682.313 247.772C682.121 247.756 681.949 247.748 681.797 247.748H677.177V254.588ZM695.792 263.36C694.52 263.36 693.408 263.08 692.456 262.52C691.512 261.952 690.776 261.164 690.248 260.156C689.72 259.14 689.456 257.956 689.456 256.604C689.456 255.188 689.716 253.964 690.236 252.932C690.756 251.892 691.48 251.092 692.408 250.532C693.344 249.964 694.44 249.68 695.696 249.68C697 249.68 698.108 249.98 699.02 250.58C699.94 251.18 700.628 252.036 701.084 253.148C701.548 254.26 701.748 255.584 701.684 257.12H699.524V256.352C699.5 254.76 699.176 253.572 698.552 252.788C697.928 251.996 697 251.6 695.768 251.6C694.448 251.6 693.444 252.024 692.756 252.872C692.068 253.72 691.724 254.936 691.724 256.52C691.724 258.048 692.068 259.232 692.756 260.072C693.444 260.912 694.424 261.332 695.696 261.332C696.552 261.332 697.296 261.136 697.928 260.744C698.56 260.352 699.056 259.788 699.416 259.052L701.468 259.76C700.964 260.904 700.204 261.792 699.188 262.424C698.18 263.048 697.048 263.36 695.792 263.36ZM691.004 257.12V255.404H700.58V257.12H691.004ZM709.576 263.36C708.264 263.36 707.148 263.068 706.228 262.484C705.316 261.892 704.62 261.08 704.14 260.048C703.66 259.016 703.412 257.84 703.396 256.52C703.412 255.168 703.664 253.98 704.152 252.956C704.648 251.924 705.356 251.12 706.276 250.544C707.196 249.968 708.304 249.68 709.6 249.68C710.968 249.68 712.144 250.016 713.128 250.688C714.12 251.36 714.784 252.28 715.12 253.448L713.008 254.084C712.736 253.332 712.292 252.748 711.676 252.332C711.068 251.916 710.368 251.708 709.576 251.708C708.688 251.708 707.956 251.916 707.38 252.332C706.804 252.74 706.376 253.308 706.096 254.036C705.816 254.756 705.672 255.584 705.664 256.52C705.68 257.96 706.012 259.124 706.66 260.012C707.316 260.892 708.288 261.332 709.576 261.332C710.424 261.332 711.128 261.14 711.688 260.756C712.248 260.364 712.672 259.8 712.96 259.064L715.12 259.628C714.672 260.836 713.972 261.76 713.02 262.4C712.068 263.04 710.92 263.36 709.576 263.36ZM718.66 268.76L721.168 261.944L721.204 263.96L715.54 250.04H717.784L722.224 261.236H721.456L725.62 250.04H727.792L720.736 268.76H718.66ZM729.774 263V245.36H731.91V263H729.774ZM735.511 247.748V245.54H737.647V247.748H735.511ZM735.511 263V250.04H737.647V263H735.511ZM750.236 263V256.508C750.236 255.892 750.18 255.3 750.068 254.732C749.964 254.164 749.776 253.656 749.504 253.208C749.24 252.752 748.88 252.392 748.424 252.128C747.976 251.864 747.408 251.732 746.72 251.732C746.184 251.732 745.696 251.824 745.256 252.008C744.824 252.184 744.452 252.456 744.14 252.824C743.828 253.192 743.584 253.656 743.408 254.216C743.24 254.768 743.156 255.42 743.156 256.172L741.752 255.74C741.752 254.484 741.976 253.408 742.424 252.512C742.88 251.608 743.516 250.916 744.332 250.436C745.156 249.948 746.124 249.704 747.236 249.704C748.076 249.704 748.792 249.836 749.384 250.1C749.976 250.364 750.468 250.716 750.86 251.156C751.252 251.588 751.56 252.076 751.784 252.62C752.008 253.156 752.164 253.704 752.252 254.264C752.348 254.816 752.396 255.34 752.396 255.836V263H750.236ZM740.996 263V250.04H742.916V253.508H743.156V263H740.996ZM760.519 269.12C759.839 269.12 759.175 269.016 758.527 268.808C757.879 268.6 757.283 268.284 756.739 267.86C756.203 267.444 755.755 266.916 755.395 266.276L757.351 265.244C757.671 265.876 758.123 266.336 758.707 266.624C759.299 266.912 759.907 267.056 760.531 267.056C761.355 267.056 762.039 266.904 762.583 266.6C763.127 266.304 763.527 265.86 763.783 265.268C764.047 264.676 764.175 263.94 764.167 263.06V259.52H764.419V250.04H766.315V263.084C766.315 263.436 766.303 263.776 766.279 264.104C766.263 264.432 766.223 264.756 766.159 265.076C765.991 265.996 765.659 266.752 765.163 267.344C764.667 267.944 764.027 268.388 763.243 268.676C762.459 268.972 761.551 269.12 760.519 269.12ZM760.363 263.36C759.155 263.36 758.119 263.06 757.255 262.46C756.391 261.852 755.723 261.032 755.251 260C754.787 258.968 754.555 257.804 754.555 256.508C754.555 255.212 754.787 254.048 755.251 253.016C755.723 251.984 756.391 251.172 757.255 250.58C758.119 249.98 759.151 249.68 760.351 249.68C761.575 249.68 762.603 249.976 763.435 250.568C764.267 251.16 764.895 251.972 765.319 253.004C765.751 254.036 765.967 255.204 765.967 256.508C765.967 257.796 765.751 258.96 765.319 260C764.895 261.032 764.267 261.852 763.435 262.46C762.603 263.06 761.579 263.36 760.363 263.36ZM760.627 261.404C761.499 261.404 762.215 261.196 762.775 260.78C763.335 260.356 763.747 259.776 764.011 259.04C764.283 258.296 764.419 257.452 764.419 256.508C764.419 255.548 764.283 254.704 764.011 253.976C763.747 253.24 763.339 252.668 762.787 252.26C762.235 251.844 761.535 251.636 760.687 251.636C759.807 251.636 759.079 251.852 758.503 252.284C757.935 252.716 757.511 253.3 757.231 254.036C756.959 254.772 756.823 255.596 756.823 256.508C756.823 257.428 756.963 258.26 757.243 259.004C757.523 259.74 757.943 260.324 758.503 260.756C759.071 261.188 759.779 261.404 760.627 261.404Z" fill="black"/>
<path d="M675.041 356V338.72H681.869C682.037 338.72 682.237 338.728 682.469 338.744C682.701 338.752 682.925 338.776 683.141 338.816C684.077 338.96 684.861 339.28 685.493 339.776C686.133 340.272 686.613 340.9 686.933 341.66C687.253 342.412 687.413 343.248 687.413 344.168C687.413 345.504 687.065 346.664 686.369 347.648C685.673 348.624 684.653 349.236 683.309 349.484L682.493 349.616H677.177V356H675.041ZM685.325 356L681.917 348.968L684.029 348.32L687.773 356H685.325ZM677.177 347.588H681.797C681.949 347.588 682.121 347.58 682.313 347.564C682.513 347.548 682.701 347.52 682.877 347.48C683.429 347.352 683.877 347.12 684.221 346.784C684.573 346.44 684.829 346.04 684.989 345.584C685.149 345.12 685.229 344.648 685.229 344.168C685.229 343.688 685.149 343.22 684.989 342.764C684.829 342.3 684.573 341.896 684.221 341.552C683.877 341.208 683.429 340.976 682.877 340.856C682.701 340.808 682.513 340.78 682.313 340.772C682.121 340.756 681.949 340.748 681.797 340.748H677.177V347.588ZM695.792 356.36C694.52 356.36 693.408 356.08 692.456 355.52C691.512 354.952 690.776 354.164 690.248 353.156C689.72 352.14 689.456 350.956 689.456 349.604C689.456 348.188 689.716 346.964 690.236 345.932C690.756 344.892 691.48 344.092 692.408 343.532C693.344 342.964 694.44 342.68 695.696 342.68C697 342.68 698.108 342.98 699.02 343.58C699.94 344.18 700.628 345.036 701.084 346.148C701.548 347.26 701.748 348.584 701.684 350.12H699.524V349.352C699.5 347.76 699.176 346.572 698.552 345.788C697.928 344.996 697 344.6 695.768 344.6C694.448 344.6 693.444 345.024 692.756 345.872C692.068 346.72 691.724 347.936 691.724 349.52C691.724 351.048 692.068 352.232 692.756 353.072C693.444 353.912 694.424 354.332 695.696 354.332C696.552 354.332 697.296 354.136 697.928 353.744C698.56 353.352 699.056 352.788 699.416 352.052L701.468 352.76C700.964 353.904 700.204 354.792 699.188 355.424C698.18 356.048 697.048 356.36 695.792 356.36ZM691.004 350.12V348.404H700.58V350.12H691.004ZM709.576 356.36C708.264 356.36 707.148 356.068 706.228 355.484C705.316 354.892 704.62 354.08 704.14 353.048C703.66 352.016 703.412 350.84 703.396 349.52C703.412 348.168 703.664 346.98 704.152 345.956C704.648 344.924 705.356 344.12 706.276 343.544C707.196 342.968 708.304 342.68 709.6 342.68C710.968 342.68 712.144 343.016 713.128 343.688C714.12 344.36 714.784 345.28 715.12 346.448L713.008 347.084C712.736 346.332 712.292 345.748 711.676 345.332C711.068 344.916 710.368 344.708 709.576 344.708C708.688 344.708 707.956 344.916 707.38 345.332C706.804 345.74 706.376 346.308 706.096 347.036C705.816 347.756 705.672 348.584 705.664 349.52C705.68 350.96 706.012 352.124 706.66 353.012C707.316 353.892 708.288 354.332 709.576 354.332C710.424 354.332 711.128 354.14 711.688 353.756C712.248 353.364 712.672 352.8 712.96 352.064L715.12 352.628C714.672 353.836 713.972 354.76 713.02 355.4C712.068 356.04 710.92 356.36 709.576 356.36ZM722.498 356.36C721.21 356.36 720.098 356.068 719.162 355.484C718.234 354.9 717.518 354.092 717.014 353.06C716.51 352.028 716.258 350.844 716.258 349.508C716.258 348.148 716.514 346.956 717.026 345.932C717.538 344.908 718.262 344.112 719.198 343.544C720.134 342.968 721.234 342.68 722.498 342.68C723.794 342.68 724.91 342.972 725.846 343.556C726.782 344.132 727.498 344.936 727.994 345.968C728.498 346.992 728.75 348.172 728.75 349.508C728.75 350.86 728.498 352.052 727.994 353.084C727.49 354.108 726.77 354.912 725.834 355.496C724.898 356.072 723.786 356.36 722.498 356.36ZM722.498 354.332C723.842 354.332 724.842 353.884 725.498 352.988C726.154 352.092 726.482 350.932 726.482 349.508C726.482 348.044 726.15 346.88 725.486 346.016C724.822 345.144 723.826 344.708 722.498 344.708C721.594 344.708 720.85 344.912 720.266 345.32C719.682 345.728 719.246 346.292 718.958 347.012C718.67 347.732 718.526 348.564 718.526 349.508C718.526 350.964 718.862 352.132 719.534 353.012C720.206 353.892 721.194 354.332 722.498 354.332ZM734.187 356L729.483 343.04H731.643L735.279 353.276L738.903 343.04H741.075L736.371 356H734.187ZM748.153 356.36C746.881 356.36 745.769 356.08 744.817 355.52C743.873 354.952 743.137 354.164 742.609 353.156C742.081 352.14 741.817 350.956 741.817 349.604C741.817 348.188 742.077 346.964 742.597 345.932C743.117 344.892 743.841 344.092 744.769 343.532C745.705 342.964 746.801 342.68 748.057 342.68C749.361 342.68 750.469 342.98 751.381 343.58C752.301 344.18 752.989 345.036 753.445 346.148C753.909 347.26 754.109 348.584 754.045 350.12H751.885V349.352C751.861 347.76 751.537 346.572 750.913 345.788C750.289 344.996 749.361 344.6 748.129 344.6C746.809 344.6 745.805 345.024 745.117 345.872C744.429 346.72 744.085 347.936 744.085 349.52C744.085 351.048 744.429 352.232 745.117 353.072C745.805 353.912 746.785 354.332 748.057 354.332C748.913 354.332 749.657 354.136 750.289 353.744C750.921 353.352 751.417 352.788 751.777 352.052L753.829 352.76C753.325 353.904 752.565 354.792 751.549 355.424C750.541 356.048 749.409 356.36 748.153 356.36ZM743.365 350.12V348.404H752.941V350.12H743.365ZM756.476 356V343.04H758.384V346.172L758.072 345.764C758.224 345.364 758.42 344.996 758.66 344.66C758.908 344.324 759.184 344.048 759.488 343.832C759.824 343.56 760.204 343.352 760.628 343.208C761.052 343.064 761.484 342.98 761.924 342.956C762.364 342.924 762.776 342.952 763.16 343.04V345.044C762.712 344.924 762.22 344.892 761.684 344.948C761.148 345.004 760.652 345.2 760.196 345.536C759.78 345.832 759.456 346.192 759.224 346.616C759 347.04 758.844 347.5 758.756 347.996C758.668 348.484 758.624 348.984 758.624 349.496V356H756.476ZM766.755 361.76L769.263 354.944L769.299 356.96L763.635 343.04H765.879L770.319 354.236H769.551L773.715 343.04H775.887L768.831 361.76H766.755Z" fill="black"/>
<path d="M675.041 446V428.72H680.369C680.545 428.72 680.853 428.724 681.293 428.732C681.733 428.74 682.153 428.772 682.553 428.828C683.889 429.004 685.005 429.492 685.901 430.292C686.805 431.084 687.485 432.092 687.941 433.316C688.397 434.54 688.625 435.888 688.625 437.36C688.625 438.832 688.397 440.18 687.941 441.404C687.485 442.628 686.805 443.64 685.901 444.44C685.005 445.232 683.889 445.716 682.553 445.892C682.153 445.94 681.729 445.972 681.281 445.988C680.841 445.996 680.537 446 680.369 446H675.041ZM677.237 443.96H680.369C680.673 443.96 681.013 443.952 681.389 443.936C681.765 443.912 682.093 443.876 682.373 443.828C683.317 443.652 684.081 443.256 684.665 442.64C685.249 442.024 685.677 441.256 685.949 440.336C686.221 439.416 686.357 438.424 686.357 437.36C686.357 436.272 686.217 435.268 685.937 434.348C685.665 433.428 685.237 432.664 684.653 432.056C684.069 431.448 683.309 431.06 682.373 430.892C682.093 430.836 681.761 430.8 681.377 430.784C680.993 430.768 680.657 430.76 680.369 430.76H677.237V443.96ZM691.377 430.748V428.54H693.513V430.748H691.377ZM691.377 446V433.04H693.513V446H691.377ZM701.77 446.348C700.226 446.348 698.958 446.012 697.966 445.34C696.982 444.66 696.378 443.712 696.154 442.496L698.338 442.148C698.514 442.852 698.918 443.412 699.55 443.828C700.182 444.236 700.966 444.44 701.902 444.44C702.79 444.44 703.486 444.256 703.99 443.888C704.494 443.52 704.746 443.02 704.746 442.388C704.746 442.02 704.662 441.724 704.494 441.5C704.326 441.268 703.978 441.052 703.45 440.852C702.93 440.652 702.142 440.412 701.086 440.132C699.942 439.828 699.042 439.512 698.386 439.184C697.73 438.856 697.262 438.476 696.982 438.044C696.702 437.612 696.562 437.088 696.562 436.472C696.562 435.712 696.77 435.048 697.186 434.48C697.602 433.904 698.182 433.46 698.926 433.148C699.678 432.836 700.55 432.68 701.542 432.68C702.526 432.68 703.406 432.836 704.182 433.148C704.958 433.46 705.582 433.904 706.054 434.48C706.534 435.048 706.818 435.712 706.906 436.472L704.722 436.868C704.618 436.172 704.282 435.624 703.714 435.224C703.154 434.824 702.43 434.612 701.542 434.588C700.702 434.556 700.018 434.704 699.49 435.032C698.97 435.36 698.71 435.804 698.71 436.364C698.71 436.676 698.806 436.944 698.998 437.168C699.198 437.392 699.562 437.604 700.09 437.804C700.626 438.004 701.402 438.232 702.418 438.488C703.562 438.776 704.462 439.092 705.118 439.436C705.782 439.772 706.254 440.172 706.534 440.636C706.814 441.092 706.954 441.656 706.954 442.328C706.954 443.576 706.494 444.56 705.574 445.28C704.654 445.992 703.386 446.348 701.77 446.348ZM715.312 446.36C714.096 446.36 713.072 446.06 712.24 445.46C711.408 444.852 710.776 444.032 710.344 443C709.92 441.96 709.708 440.796 709.708 439.508C709.708 438.204 709.92 437.036 710.344 436.004C710.776 434.972 711.408 434.16 712.24 433.568C713.08 432.976 714.108 432.68 715.324 432.68C716.524 432.68 717.556 432.98 718.42 433.58C719.292 434.172 719.96 434.984 720.424 436.016C720.888 437.048 721.12 438.212 721.12 439.508C721.12 440.804 720.888 441.968 720.424 443C719.96 444.032 719.292 444.852 718.42 445.46C717.556 446.06 716.52 446.36 715.312 446.36ZM709.348 451.76V433.04H711.256V442.58H711.496V451.76H709.348ZM715.048 444.404C715.904 444.404 716.612 444.188 717.172 443.756C717.732 443.324 718.152 442.74 718.432 442.004C718.712 441.26 718.852 440.428 718.852 439.508C718.852 438.596 718.712 437.772 718.432 437.036C718.16 436.3 717.736 435.716 717.16 435.284C716.592 434.852 715.868 434.636 714.988 434.636C714.148 434.636 713.452 434.844 712.9 435.26C712.348 435.668 711.936 436.24 711.664 436.976C711.392 437.704 711.256 438.548 711.256 439.508C711.256 440.452 711.388 441.296 711.652 442.04C711.924 442.776 712.34 443.356 712.9 443.78C713.46 444.196 714.176 444.404 715.048 444.404ZM729.031 446.36C727.743 446.36 726.631 446.068 725.695 445.484C724.767 444.9 724.051 444.092 723.547 443.06C723.043 442.028 722.791 440.844 722.791 439.508C722.791 438.148 723.047 436.956 723.559 435.932C724.071 434.908 724.795 434.112 725.731 433.544C726.667 432.968 727.767 432.68 729.031 432.68C730.327 432.68 731.443 432.972 732.379 433.556C733.315 434.132 734.031 434.936 734.527 435.968C735.031 436.992 735.283 438.172 735.283 439.508C735.283 440.86 735.031 442.052 734.527 443.084C734.023 444.108 733.303 444.912 732.367 445.496C731.431 446.072 730.319 446.36 729.031 446.36ZM729.031 444.332C730.375 444.332 731.375 443.884 732.031 442.988C732.687 442.092 733.015 440.932 733.015 439.508C733.015 438.044 732.683 436.88 732.019 436.016C731.355 435.144 730.359 434.708 729.031 434.708C728.127 434.708 727.383 434.912 726.799 435.32C726.215 435.728 725.779 436.292 725.491 437.012C725.203 437.732 725.059 438.564 725.059 439.508C725.059 440.964 725.395 442.132 726.067 443.012C726.739 443.892 727.727 444.332 729.031 444.332ZM742.394 446.348C740.85 446.348 739.582 446.012 738.59 445.34C737.606 444.66 737.002 443.712 736.778 442.496L738.962 442.148C739.138 442.852 739.542 443.412 740.174 443.828C740.806 444.236 741.59 444.44 742.526 444.44C743.414 444.44 744.11 444.256 744.614 443.888C745.118 443.52 745.37 443.02 745.37 442.388C745.37 442.02 745.286 441.724 745.118 441.5C744.95 441.268 744.602 441.052 744.074 440.852C743.554 440.652 742.766 440.412 741.71 440.132C740.566 439.828 739.666 439.512 739.01 439.184C738.354 438.856 737.886 438.476 737.606 438.044C737.326 437.612 737.186 437.088 737.186 436.472C737.186 435.712 737.394 435.048 737.81 434.48C738.226 433.904 738.806 433.46 739.55 433.148C740.302 432.836 741.174 432.68 742.166 432.68C743.15 432.68 744.03 432.836 744.806 433.148C745.582 433.46 746.206 433.904 746.678 434.48C747.158 435.048 747.442 435.712 747.53 436.472L745.346 436.868C745.242 436.172 744.906 435.624 744.338 435.224C743.778 434.824 743.054 434.612 742.166 434.588C741.326 434.556 740.642 434.704 740.114 435.032C739.594 435.36 739.334 435.804 739.334 436.364C739.334 436.676 739.43 436.944 739.622 437.168C739.822 437.392 740.186 437.604 740.714 437.804C741.25 438.004 742.026 438.232 743.042 438.488C744.186 438.776 745.086 439.092 745.742 439.436C746.406 439.772 746.878 440.172 747.158 440.636C747.438 441.092 747.578 441.656 747.578 442.328C747.578 443.576 747.118 444.56 746.198 445.28C745.278 445.992 744.01 446.348 742.394 446.348ZM753.668 446.36C752.7 446.36 751.888 446.184 751.232 445.832C750.584 445.472 750.092 445 749.756 444.416C749.428 443.832 749.264 443.192 749.264 442.496C749.264 441.816 749.392 441.228 749.648 440.732C749.912 440.228 750.28 439.812 750.752 439.484C751.224 439.148 751.788 438.884 752.444 438.692C753.06 438.524 753.748 438.38 754.508 438.26C755.276 438.132 756.052 438.016 756.836 437.912C757.62 437.808 758.352 437.708 759.032 437.612L758.264 438.056C758.288 436.904 758.056 436.052 757.568 435.5C757.088 434.948 756.256 434.672 755.072 434.672C754.288 434.672 753.6 434.852 753.008 435.212C752.424 435.564 752.012 436.14 751.772 436.94L749.744 436.328C750.056 435.192 750.66 434.3 751.556 433.652C752.452 433.004 753.632 432.68 755.096 432.68C756.272 432.68 757.28 432.892 758.12 433.316C758.968 433.732 759.576 434.364 759.944 435.212C760.128 435.612 760.244 436.048 760.292 436.52C760.34 436.984 760.364 437.472 760.364 437.984V446H758.468V442.892L758.912 443.18C758.424 444.228 757.74 445.02 756.86 445.556C755.988 446.092 754.924 446.36 753.668 446.36ZM753.992 444.572C754.76 444.572 755.424 444.436 755.984 444.164C756.552 443.884 757.008 443.52 757.352 443.072C757.696 442.616 757.92 442.12 758.024 441.584C758.144 441.184 758.208 440.74 758.216 440.252C758.232 439.756 758.24 439.376 758.24 439.112L758.984 439.436C758.288 439.532 757.604 439.624 756.932 439.712C756.26 439.8 755.624 439.896 755.024 440C754.424 440.096 753.884 440.212 753.404 440.348C753.052 440.46 752.72 440.604 752.408 440.78C752.104 440.956 751.856 441.184 751.664 441.464C751.48 441.736 751.388 442.076 751.388 442.484C751.388 442.836 751.476 443.172 751.652 443.492C751.836 443.812 752.116 444.072 752.492 444.272C752.876 444.472 753.376 444.572 753.992 444.572ZM763.484 446V428.36H765.62V446H763.484Z" fill="black"/>
<path d="M675.041 173V155.72H681.869C682.037 155.72 682.237 155.728 682.469 155.744C682.701 155.752 682.925 155.776 683.141 155.816C684.077 155.96 684.861 156.28 685.493 156.776C686.133 157.272 686.613 157.9 686.933 158.66C687.253 159.412 687.413 160.248 687.413 161.168C687.413 162.504 687.065 163.664 686.369 164.648C685.673 165.624 684.653 166.236 683.309 166.484L682.493 166.616H677.177V173H675.041ZM685.325 173L681.917 165.968L684.029 165.32L687.773 173H685.325ZM677.177 164.588H681.797C681.949 164.588 682.121 164.58 682.313 164.564C682.513 164.548 682.701 164.52 682.877 164.48C683.429 164.352 683.877 164.12 684.221 163.784C684.573 163.44 684.829 163.04 684.989 162.584C685.149 162.12 685.229 161.648 685.229 161.168C685.229 160.688 685.149 160.22 684.989 159.764C684.829 159.3 684.573 158.896 684.221 158.552C683.877 158.208 683.429 157.976 682.877 157.856C682.701 157.808 682.513 157.78 682.313 157.772C682.121 157.756 681.949 157.748 681.797 157.748H677.177V164.588ZM695.792 173.36C694.52 173.36 693.408 173.08 692.456 172.52C691.512 171.952 690.776 171.164 690.248 170.156C689.72 169.14 689.456 167.956 689.456 166.604C689.456 165.188 689.716 163.964 690.236 162.932C690.756 161.892 691.48 161.092 692.408 160.532C693.344 159.964 694.44 159.68 695.696 159.68C697 159.68 698.108 159.98 699.02 160.58C699.94 161.18 700.628 162.036 701.084 163.148C701.548 164.26 701.748 165.584 701.684 167.12H699.524V166.352C699.5 164.76 699.176 163.572 698.552 162.788C697.928 161.996 697 161.6 695.768 161.6C694.448 161.6 693.444 162.024 692.756 162.872C692.068 163.72 691.724 164.936 691.724 166.52C691.724 168.048 692.068 169.232 692.756 170.072C693.444 170.912 694.424 171.332 695.696 171.332C696.552 171.332 697.296 171.136 697.928 170.744C698.56 170.352 699.056 169.788 699.416 169.052L701.468 169.76C700.964 170.904 700.204 171.792 699.188 172.424C698.18 173.048 697.048 173.36 695.792 173.36ZM691.004 167.12V165.404H700.58V167.12H691.004ZM709.204 173.36C707.996 173.36 706.96 173.06 706.096 172.46C705.232 171.852 704.564 171.032 704.092 170C703.628 168.968 703.396 167.804 703.396 166.508C703.396 165.212 703.628 164.048 704.092 163.016C704.564 161.984 705.232 161.172 706.096 160.58C706.96 159.98 707.992 159.68 709.192 159.68C710.416 159.68 711.444 159.976 712.276 160.568C713.108 161.16 713.736 161.972 714.16 163.004C714.592 164.036 714.808 165.204 714.808 166.508C714.808 167.796 714.592 168.96 714.16 170C713.736 171.032 713.108 171.852 712.276 172.46C711.444 173.06 710.42 173.36 709.204 173.36ZM709.468 171.404C710.34 171.404 711.056 171.196 711.616 170.78C712.176 170.356 712.588 169.776 712.852 169.04C713.124 168.296 713.26 167.452 713.26 166.508C713.26 165.548 713.124 164.704 712.852 163.976C712.588 163.24 712.18 162.668 711.628 162.26C711.076 161.844 710.376 161.636 709.528 161.636C708.648 161.636 707.92 161.852 707.344 162.284C706.776 162.716 706.352 163.3 706.072 164.036C705.8 164.772 705.664 165.596 705.664 166.508C705.664 167.428 705.804 168.26 706.084 169.004C706.364 169.74 706.784 170.324 707.344 170.756C707.912 171.188 708.62 171.404 709.468 171.404ZM713.26 173V163.46H713.02V155.72H715.168V173H713.26ZM723.21 173.336C722.378 173.336 721.662 173.204 721.062 172.94C720.47 172.676 719.978 172.324 719.586 171.884C719.194 171.444 718.886 170.956 718.662 170.42C718.438 169.884 718.278 169.336 718.182 168.776C718.094 168.216 718.05 167.692 718.05 167.204V160.04H720.21V166.532C720.21 167.14 720.266 167.728 720.378 168.296C720.49 168.864 720.678 169.376 720.942 169.832C721.214 170.288 721.574 170.648 722.022 170.912C722.478 171.176 723.046 171.308 723.726 171.308C724.262 171.308 724.75 171.216 725.19 171.032C725.63 170.848 726.006 170.576 726.318 170.216C726.63 169.848 726.87 169.384 727.038 168.824C727.206 168.264 727.29 167.612 727.29 166.868L728.694 167.3C728.694 168.548 728.466 169.624 728.01 170.528C727.562 171.432 726.926 172.128 726.102 172.616C725.286 173.096 724.322 173.336 723.21 173.336ZM727.53 173V169.532H727.29V160.04H729.438V173H727.53ZM738.018 173.36C736.706 173.36 735.59 173.068 734.67 172.484C733.758 171.892 733.062 171.08 732.582 170.048C732.102 169.016 731.854 167.84 731.838 166.52C731.854 165.168 732.106 163.98 732.594 162.956C733.09 161.924 733.798 161.12 734.718 160.544C735.638 159.968 736.746 159.68 738.042 159.68C739.41 159.68 740.586 160.016 741.57 160.688C742.562 161.36 743.226 162.28 743.562 163.448L741.45 164.084C741.178 163.332 740.734 162.748 740.118 162.332C739.51 161.916 738.81 161.708 738.018 161.708C737.13 161.708 736.398 161.916 735.822 162.332C735.246 162.74 734.818 163.308 734.538 164.036C734.258 164.756 734.114 165.584 734.106 166.52C734.122 167.96 734.454 169.124 735.102 170.012C735.758 170.892 736.73 171.332 738.018 171.332C738.866 171.332 739.57 171.14 740.13 170.756C740.69 170.364 741.114 169.8 741.402 169.064L743.562 169.628C743.114 170.836 742.414 171.76 741.462 172.4C740.51 173.04 739.362 173.36 738.018 173.36ZM753.007 173C752.239 173.152 751.479 173.212 750.727 173.18C749.983 173.156 749.319 173.008 748.735 172.736C748.151 172.456 747.707 172.024 747.403 171.44C747.147 170.928 747.007 170.412 746.983 169.892C746.967 169.364 746.959 168.768 746.959 168.104V156.44H749.095V168.008C749.095 168.536 749.099 168.988 749.107 169.364C749.123 169.74 749.207 170.064 749.359 170.336C749.647 170.848 750.103 171.148 750.727 171.236C751.359 171.324 752.119 171.3 753.007 171.164V173ZM744.331 161.804V160.04H753.007V161.804H744.331ZM755.638 157.748V155.54H757.774V157.748H755.638ZM755.638 173V160.04H757.774V173H755.638ZM766.655 173.36C765.367 173.36 764.255 173.068 763.319 172.484C762.391 171.9 761.675 171.092 761.171 170.06C760.667 169.028 760.415 167.844 760.415 166.508C760.415 165.148 760.671 163.956 761.183 162.932C761.695 161.908 762.419 161.112 763.355 160.544C764.291 159.968 765.391 159.68 766.655 159.68C767.951 159.68 769.067 159.972 770.003 160.556C770.939 161.132 771.655 161.936 772.151 162.968C772.655 163.992 772.907 165.172 772.907 166.508C772.907 167.86 772.655 169.052 772.151 170.084C771.647 171.108 770.927 171.912 769.991 172.496C769.055 173.072 767.943 173.36 766.655 173.36ZM766.655 171.332C767.999 171.332 768.999 170.884 769.655 169.988C770.311 169.092 770.639 167.932 770.639 166.508C770.639 165.044 770.307 163.88 769.643 163.016C768.979 162.144 767.983 161.708 766.655 161.708C765.751 161.708 765.007 161.912 764.423 162.32C763.839 162.728 763.403 163.292 763.115 164.012C762.827 164.732 762.683 165.564 762.683 166.508C762.683 167.964 763.019 169.132 763.691 170.012C764.363 170.892 765.351 171.332 766.655 171.332ZM784.537 173V166.508C784.537 165.892 784.481 165.3 784.369 164.732C784.265 164.164 784.077 163.656 783.805 163.208C783.541 162.752 783.181 162.392 782.725 162.128C782.277 161.864 781.709 161.732 781.021 161.732C780.485 161.732 779.997 161.824 779.557 162.008C779.125 162.184 778.753 162.456 778.441 162.824C778.129 163.192 777.885 163.656 777.709 164.216C777.541 164.768 777.457 165.42 777.457 166.172L776.053 165.74C776.053 164.484 776.277 163.408 776.725 162.512C777.181 161.608 777.817 160.916 778.633 160.436C779.457 159.948 780.425 159.704 781.537 159.704C782.377 159.704 783.093 159.836 783.685 160.1C784.277 160.364 784.769 160.716 785.161 161.156C785.553 161.588 785.861 162.076 786.085 162.62C786.309 163.156 786.465 163.704 786.553 164.264C786.649 164.816 786.697 165.34 786.697 165.836V173H784.537ZM775.297 173V160.04H777.217V163.508H777.457V173H775.297Z" fill="black"/>
<path d="M674.561 513V502.2H675.896V511.732H680.906V513H674.561ZM682.025 513V502.2H688.85V503.467H683.36V506.85H687.95V508.117H683.36V511.732H688.85V513H682.025ZM689.753 513L693.368 502.2H695.228L698.843 513H697.455L694.073 502.98H694.493L691.14 513H689.753ZM691.493 510.472V509.22H697.103V510.472H691.493ZM703.575 513.225C702.81 513.225 702.12 513.095 701.505 512.835C700.895 512.575 700.39 512.205 699.99 511.725C699.595 511.24 699.338 510.667 699.218 510.007L700.598 509.79C700.773 510.47 701.135 511.002 701.685 511.387C702.24 511.767 702.893 511.957 703.643 511.957C704.128 511.957 704.565 511.882 704.955 511.732C705.35 511.577 705.663 511.357 705.893 511.073C706.123 510.787 706.238 510.45 706.238 510.06C706.238 509.82 706.195 509.615 706.11 509.445C706.03 509.27 705.918 509.122 705.773 509.002C705.633 508.877 705.473 508.772 705.293 508.687C705.113 508.602 704.925 508.532 704.73 508.477L701.978 507.66C701.678 507.57 701.388 507.457 701.108 507.322C700.828 507.182 700.578 507.01 700.358 506.805C700.138 506.595 699.963 506.345 699.833 506.055C699.703 505.76 699.638 505.412 699.638 505.012C699.638 504.372 699.803 503.827 700.133 503.377C700.468 502.922 700.92 502.575 701.49 502.335C702.06 502.095 702.703 501.977 703.418 501.982C704.143 501.987 704.79 502.117 705.36 502.372C705.935 502.622 706.41 502.982 706.785 503.452C707.165 503.922 707.42 504.485 707.55 505.14L706.133 505.387C706.058 504.947 705.89 504.57 705.63 504.255C705.375 503.935 705.055 503.69 704.67 503.52C704.285 503.345 703.863 503.255 703.403 503.25C702.963 503.245 702.565 503.315 702.21 503.46C701.855 503.605 701.573 503.807 701.363 504.067C701.153 504.322 701.048 504.617 701.048 504.952C701.048 505.282 701.143 505.55 701.333 505.755C701.523 505.955 701.755 506.115 702.03 506.235C702.31 506.35 702.583 506.445 702.848 506.52L704.903 507.112C705.138 507.177 705.408 507.267 705.713 507.382C706.023 507.497 706.323 507.66 706.613 507.87C706.903 508.075 707.143 508.35 707.333 508.695C707.523 509.035 707.618 509.465 707.618 509.985C707.618 510.505 707.513 510.967 707.303 511.372C707.098 511.777 706.81 512.117 706.44 512.392C706.07 512.662 705.64 512.867 705.15 513.008C704.66 513.153 704.135 513.225 703.575 513.225ZM711.823 513V503.467H708.141V502.2H716.841V503.467H713.158V513H711.823ZM720.284 513V502.2H724.551C724.656 502.2 724.781 502.205 724.926 502.215C725.071 502.22 725.211 502.235 725.346 502.26C725.931 502.35 726.421 502.55 726.816 502.86C727.216 503.17 727.516 503.562 727.716 504.037C727.916 504.507 728.016 505.03 728.016 505.605C728.016 506.175 727.914 506.697 727.709 507.172C727.509 507.642 727.209 508.035 726.809 508.35C726.414 508.66 725.926 508.86 725.346 508.95C725.211 508.97 725.071 508.985 724.926 508.995C724.781 509.005 724.656 509.01 724.551 509.01H721.619V513H720.284ZM721.619 507.742H724.506C724.601 507.742 724.709 507.737 724.829 507.727C724.954 507.717 725.071 507.7 725.181 507.675C725.526 507.595 725.806 507.45 726.021 507.24C726.241 507.025 726.401 506.775 726.501 506.49C726.601 506.2 726.651 505.905 726.651 505.605C726.651 505.305 726.601 505.012 726.501 504.727C726.401 504.437 726.241 504.185 726.021 503.97C725.806 503.755 725.526 503.61 725.181 503.535C725.071 503.505 724.954 503.487 724.829 503.482C724.709 503.472 724.601 503.467 724.506 503.467H721.619V507.742ZM729.362 513V502.2H733.63C733.735 502.2 733.86 502.205 734.005 502.215C734.15 502.22 734.29 502.235 734.425 502.26C735.01 502.35 735.5 502.55 735.895 502.86C736.295 503.17 736.595 503.562 736.795 504.037C736.995 504.507 737.095 505.03 737.095 505.605C737.095 506.44 736.877 507.165 736.442 507.78C736.007 508.39 735.37 508.772 734.53 508.927L734.02 509.01H730.697V513H729.362ZM735.79 513L733.66 508.605L734.98 508.2L737.32 513H735.79ZM730.697 507.742H733.585C733.68 507.742 733.787 507.737 733.907 507.727C734.032 507.717 734.15 507.7 734.26 507.675C734.605 507.595 734.885 507.45 735.1 507.24C735.32 507.025 735.48 506.775 735.58 506.49C735.68 506.2 735.73 505.905 735.73 505.605C735.73 505.305 735.68 505.012 735.58 504.727C735.48 504.437 735.32 504.185 735.1 503.97C734.885 503.755 734.605 503.61 734.26 503.535C734.15 503.505 734.032 503.487 733.907 503.482C733.787 503.472 733.68 503.467 733.585 503.467H730.697V507.742ZM738.822 513V502.2H745.647V503.467H740.157V506.85H744.747V508.117H740.157V511.732H745.647V513H738.822ZM747.3 513V502.2H753.6V503.535H748.635V506.932H752.7V508.267H748.635V513H747.3ZM754.796 513V502.2H761.621V503.467H756.131V506.85H760.721V508.117H756.131V511.732H761.621V513H754.796ZM763.274 513V502.2H767.542C767.647 502.2 767.772 502.205 767.917 502.215C768.062 502.22 768.202 502.235 768.337 502.26C768.922 502.35 769.412 502.55 769.807 502.86C770.207 503.17 770.507 503.562 770.707 504.037C770.907 504.507 771.007 505.03 771.007 505.605C771.007 506.44 770.789 507.165 770.354 507.78C769.919 508.39 769.282 508.772 768.442 508.927L767.932 509.01H764.609V513H763.274ZM769.702 513L767.572 508.605L768.892 508.2L771.232 513H769.702ZM764.609 507.742H767.497C767.592 507.742 767.699 507.737 767.819 507.727C767.944 507.717 768.062 507.7 768.172 507.675C768.517 507.595 768.797 507.45 769.012 507.24C769.232 507.025 769.392 506.775 769.492 506.49C769.592 506.2 769.642 505.905 769.642 505.605C769.642 505.305 769.592 505.012 769.492 504.727C769.392 504.437 769.232 504.185 769.012 503.97C768.797 503.755 768.517 503.61 768.172 503.535C768.062 503.505 767.944 503.487 767.819 503.482C767.699 503.472 767.592 503.467 767.497 503.467H764.609V507.742ZM772.733 513V502.2H777.001C777.106 502.2 777.231 502.205 777.376 502.215C777.521 502.22 777.661 502.235 777.796 502.26C778.381 502.35 778.871 502.55 779.266 502.86C779.666 503.17 779.966 503.562 780.166 504.037C780.366 504.507 780.466 505.03 780.466 505.605C780.466 506.44 780.248 507.165 779.813 507.78C779.378 508.39 778.741 508.772 777.901 508.927L777.391 509.01H774.068V513H772.733ZM779.161 513L777.031 508.605L778.351 508.2L780.691 513H779.161ZM774.068 507.742H776.956C777.051 507.742 777.158 507.737 777.278 507.727C777.403 507.717 777.521 507.7 777.631 507.675C777.976 507.595 778.256 507.45 778.471 507.24C778.691 507.025 778.851 506.775 778.951 506.49C779.051 506.2 779.101 505.905 779.101 505.605C779.101 505.305 779.051 505.012 778.951 504.727C778.851 504.437 778.691 504.185 778.471 503.97C778.256 503.755 777.976 503.61 777.631 503.535C777.521 503.505 777.403 503.487 777.278 503.482C777.158 503.472 777.051 503.467 776.956 503.467H774.068V507.742ZM782.193 513V502.2H789.018V503.467H783.528V506.85H788.118V508.117H783.528V511.732H789.018V513H782.193ZM790.671 513V502.2H794.001C794.111 502.2 794.303 502.202 794.578 502.207C794.853 502.212 795.116 502.232 795.366 502.267C796.201 502.377 796.898 502.682 797.458 503.182C798.023 503.677 798.448 504.307 798.733 505.072C799.018 505.837 799.161 506.68 799.161 507.6C799.161 508.52 799.018 509.362 798.733 510.127C798.448 510.892 798.023 511.525 797.458 512.025C796.898 512.52 796.201 512.822 795.366 512.932C795.116 512.962 794.851 512.982 794.571 512.992C794.296 512.997 794.106 513 794.001 513H790.671ZM792.043 511.725H794.001C794.191 511.725 794.403 511.72 794.638 511.71C794.873 511.695 795.078 511.672 795.253 511.642C795.843 511.532 796.321 511.285 796.686 510.9C797.051 510.515 797.318 510.035 797.488 509.46C797.658 508.885 797.743 508.265 797.743 507.6C797.743 506.92 797.656 506.292 797.481 505.717C797.311 505.142 797.043 504.665 796.678 504.285C796.313 503.905 795.838 503.662 795.253 503.557C795.078 503.522 794.871 503.5 794.631 503.49C794.391 503.48 794.181 503.475 794.001 503.475H792.043V511.725Z" fill="#707070"/>
<path d="M674.413 15V4.2H675.628L679.708 12.8025L683.766 4.2H684.996V14.9925H683.728V7.1325L680.061 15H679.348L675.681 7.1325V15H674.413ZM691.389 15.225C690.314 15.225 689.401 14.9875 688.651 14.5125C687.901 14.0375 687.329 13.3775 686.934 12.5325C686.544 11.6875 686.349 10.71 686.349 9.6C686.349 8.49 686.544 7.5125 686.934 6.6675C687.329 5.8225 687.901 5.1625 688.651 4.6875C689.401 4.2125 690.314 3.975 691.389 3.975C692.469 3.975 693.384 4.2125 694.134 4.6875C694.884 5.1625 695.454 5.8225 695.844 6.6675C696.234 7.5125 696.429 8.49 696.429 9.6C696.429 10.71 696.234 11.6875 695.844 12.5325C695.454 13.3775 694.884 14.0375 694.134 14.5125C693.384 14.9875 692.469 15.225 691.389 15.225ZM691.389 13.95C692.194 13.955 692.864 13.775 693.399 13.41C693.939 13.04 694.341 12.5275 694.606 11.8725C694.876 11.2175 695.011 10.46 695.011 9.6C695.011 8.735 694.876 7.9775 694.606 7.3275C694.341 6.6775 693.939 6.17 693.399 5.805C692.864 5.44 692.194 5.255 691.389 5.25C690.584 5.245 689.914 5.425 689.379 5.79C688.849 6.155 688.449 6.665 688.179 7.32C687.909 7.975 687.771 8.735 687.766 9.6C687.761 10.46 687.894 11.215 688.164 11.865C688.434 12.515 688.836 13.025 689.371 13.395C689.911 13.76 690.584 13.945 691.389 13.95ZM701.618 15.225C700.853 15.225 700.163 15.095 699.548 14.835C698.938 14.575 698.433 14.205 698.033 13.725C697.638 13.24 697.38 12.6675 697.26 12.0075L698.64 11.79C698.815 12.47 699.178 13.0025 699.728 13.3875C700.283 13.7675 700.935 13.9575 701.685 13.9575C702.17 13.9575 702.608 13.8825 702.998 13.7325C703.393 13.5775 703.705 13.3575 703.935 13.0725C704.165 12.7875 704.28 12.45 704.28 12.06C704.28 11.82 704.238 11.615 704.153 11.445C704.073 11.27 703.96 11.1225 703.815 11.0025C703.675 10.8775 703.515 10.7725 703.335 10.6875C703.155 10.6025 702.968 10.5325 702.773 10.4775L700.02 9.66C699.72 9.57 699.43 9.4575 699.15 9.3225C698.87 9.1825 698.62 9.01 698.4 8.805C698.18 8.595 698.005 8.345 697.875 8.055C697.745 7.76 697.68 7.4125 697.68 7.0125C697.68 6.3725 697.845 5.8275 698.175 5.3775C698.51 4.9225 698.963 4.575 699.533 4.335C700.103 4.095 700.745 3.9775 701.46 3.9825C702.185 3.9875 702.833 4.1175 703.403 4.3725C703.978 4.6225 704.453 4.9825 704.828 5.4525C705.208 5.9225 705.463 6.485 705.593 7.14L704.175 7.3875C704.1 6.9475 703.933 6.57 703.673 6.255C703.418 5.935 703.098 5.69 702.713 5.52C702.328 5.345 701.905 5.255 701.445 5.25C701.005 5.245 700.608 5.315 700.253 5.46C699.898 5.605 699.615 5.8075 699.405 6.0675C699.195 6.3225 699.09 6.6175 699.09 6.9525C699.09 7.2825 699.185 7.55 699.375 7.755C699.565 7.955 699.798 8.115 700.073 8.235C700.353 8.35 700.625 8.445 700.89 8.52L702.945 9.1125C703.18 9.1775 703.45 9.2675 703.755 9.3825C704.065 9.4975 704.365 9.66 704.655 9.87C704.945 10.075 705.185 10.35 705.375 10.695C705.565 11.035 705.66 11.465 705.66 11.985C705.66 12.505 705.555 12.9675 705.345 13.3725C705.14 13.7775 704.853 14.1175 704.483 14.3925C704.113 14.6625 703.683 14.8675 703.193 15.0075C702.703 15.1525 702.178 15.225 701.618 15.225ZM709.866 15V5.4675H706.183V4.2H714.883V5.4675H711.201V15H709.866ZM718.326 15V4.2H722.594C722.699 4.2 722.824 4.205 722.969 4.215C723.114 4.22 723.254 4.235 723.389 4.26C723.974 4.35 724.464 4.55 724.859 4.86C725.259 5.17 725.559 5.5625 725.759 6.0375C725.959 6.5075 726.059 7.03 726.059 7.605C726.059 8.175 725.956 8.6975 725.751 9.1725C725.551 9.6425 725.251 10.035 724.851 10.35C724.456 10.66 723.969 10.86 723.389 10.95C723.254 10.97 723.114 10.985 722.969 10.995C722.824 11.005 722.699 11.01 722.594 11.01H719.661V15H718.326ZM719.661 9.7425H722.549C722.644 9.7425 722.751 9.7375 722.871 9.7275C722.996 9.7175 723.114 9.7 723.224 9.675C723.569 9.595 723.849 9.45 724.064 9.24C724.284 9.025 724.444 8.775 724.544 8.49C724.644 8.2 724.694 7.905 724.694 7.605C724.694 7.305 724.644 7.0125 724.544 6.7275C724.444 6.4375 724.284 6.185 724.064 5.97C723.849 5.755 723.569 5.61 723.224 5.535C723.114 5.505 722.996 5.4875 722.871 5.4825C722.751 5.4725 722.644 5.4675 722.549 5.4675H719.661V9.7425ZM727.405 15V4.2H731.672C731.777 4.2 731.902 4.205 732.047 4.215C732.192 4.22 732.332 4.235 732.467 4.26C733.052 4.35 733.542 4.55 733.937 4.86C734.337 5.17 734.637 5.5625 734.837 6.0375C735.037 6.5075 735.137 7.03 735.137 7.605C735.137 8.44 734.92 9.165 734.485 9.78C734.05 10.39 733.412 10.7725 732.572 10.9275L732.062 11.01H728.74V15H727.405ZM733.832 15L731.702 10.605L733.022 10.2L735.362 15H733.832ZM728.74 9.7425H731.627C731.722 9.7425 731.83 9.7375 731.95 9.7275C732.075 9.7175 732.192 9.7 732.302 9.675C732.647 9.595 732.927 9.45 733.142 9.24C733.362 9.025 733.522 8.775 733.622 8.49C733.722 8.2 733.772 7.905 733.772 7.605C733.772 7.305 733.722 7.0125 733.622 6.7275C733.522 6.4375 733.362 6.185 733.142 5.97C732.927 5.755 732.647 5.61 732.302 5.535C732.192 5.505 732.075 5.4875 731.95 5.4825C731.83 5.4725 731.722 5.4675 731.627 5.4675H728.74V9.7425ZM736.864 15V4.2H743.689V5.4675H738.199V8.85H742.789V10.1175H738.199V13.7325H743.689V15H736.864ZM745.342 15V4.2H751.642V5.535H746.677V8.9325H750.742V10.2675H746.677V15H745.342ZM752.839 15V4.2H759.664V5.4675H754.174V8.85H758.764V10.1175H754.174V13.7325H759.664V15H752.839ZM761.317 15V4.2H765.584C765.689 4.2 765.814 4.205 765.959 4.215C766.104 4.22 766.244 4.235 766.379 4.26C766.964 4.35 767.454 4.55 767.849 4.86C768.249 5.17 768.549 5.5625 768.749 6.0375C768.949 6.5075 769.049 7.03 769.049 7.605C769.049 8.44 768.832 9.165 768.397 9.78C767.962 10.39 767.324 10.7725 766.484 10.9275L765.974 11.01H762.652V15H761.317ZM767.744 15L765.614 10.605L766.934 10.2L769.274 15H767.744ZM762.652 9.7425H765.539C765.634 9.7425 765.742 9.7375 765.862 9.7275C765.987 9.7175 766.104 9.7 766.214 9.675C766.559 9.595 766.839 9.45 767.054 9.24C767.274 9.025 767.434 8.775 767.534 8.49C767.634 8.2 767.684 7.905 767.684 7.605C767.684 7.305 767.634 7.0125 767.534 6.7275C767.434 6.4375 767.274 6.185 767.054 5.97C766.839 5.755 766.559 5.61 766.214 5.535C766.104 5.505 765.987 5.4875 765.862 5.4825C765.742 5.4725 765.634 5.4675 765.539 5.4675H762.652V9.7425ZM770.776 15V4.2H775.043C775.148 4.2 775.273 4.205 775.418 4.215C775.563 4.22 775.703 4.235 775.838 4.26C776.423 4.35 776.913 4.55 777.308 4.86C777.708 5.17 778.008 5.5625 778.208 6.0375C778.408 6.5075 778.508 7.03 778.508 7.605C778.508 8.44 778.291 9.165 777.856 9.78C777.421 10.39 776.783 10.7725 775.943 10.9275L775.433 11.01H772.111V15H770.776ZM777.203 15L775.073 10.605L776.393 10.2L778.733 15H777.203ZM772.111 9.7425H774.998C775.093 9.7425 775.201 9.7375 775.321 9.7275C775.446 9.7175 775.563 9.7 775.673 9.675C776.018 9.595 776.298 9.45 776.513 9.24C776.733 9.025 776.893 8.775 776.993 8.49C777.093 8.2 777.143 7.905 777.143 7.605C777.143 7.305 777.093 7.0125 776.993 6.7275C776.893 6.4375 776.733 6.185 776.513 5.97C776.298 5.755 776.018 5.61 775.673 5.535C775.563 5.505 775.446 5.4875 775.321 5.4825C775.201 5.4725 775.093 5.4675 774.998 5.4675H772.111V9.7425ZM780.235 15V4.2H787.06V5.4675H781.57V8.85H786.16V10.1175H781.57V13.7325H787.06V15H780.235ZM788.713 15V4.2H792.043C792.153 4.2 792.346 4.2025 792.621 4.2075C792.896 4.2125 793.158 4.2325 793.408 4.2675C794.243 4.3775 794.941 4.6825 795.501 5.1825C796.066 5.6775 796.491 6.3075 796.776 7.0725C797.061 7.8375 797.203 8.68 797.203 9.6C797.203 10.52 797.061 11.3625 796.776 12.1275C796.491 12.8925 796.066 13.525 795.501 14.025C794.941 14.52 794.243 14.8225 793.408 14.9325C793.158 14.9625 792.893 14.9825 792.613 14.9925C792.338 14.9975 792.148 15 792.043 15H788.713ZM790.086 13.725H792.043C792.233 13.725 792.446 13.72 792.681 13.71C792.916 13.695 793.121 13.6725 793.296 13.6425C793.886 13.5325 794.363 13.285 794.728 12.9C795.093 12.515 795.361 12.035 795.531 11.46C795.701 10.885 795.786 10.265 795.786 9.6C795.786 8.92 795.698 8.2925 795.523 7.7175C795.353 7.1425 795.086 6.665 794.721 6.285C794.356 5.905 793.881 5.6625 793.296 5.5575C793.121 5.5225 792.913 5.5 792.673 5.49C792.433 5.48 792.223 5.475 792.043 5.475H790.086V13.725Z" fill="#707070"/>
<line x1="290.861" y1="74" x2="655.861" y2="74" stroke="black"/>
<circle cx="287.5" cy="74.5" r="3.5" fill="black"/>
<line x1="290.861" y1="165" x2="655.861" y2="165" stroke="black"/>
<circle cx="287.5" cy="165.5" r="3.5" fill="black"/>
<line x1="290.861" y1="256" x2="655.861" y2="256" stroke="black"/>
<circle cx="287.5" cy="256.5" r="3.5" fill="black"/>
<line x1="290.861" y1="347" x2="655.861" y2="347" stroke="black"/>
<circle cx="287.5" cy="347.5" r="3.5" fill="black"/>
<line x1="290.861" y1="438" x2="655.861" y2="438" stroke="black"/>
<circle cx="287.5" cy="438.5" r="3.5" fill="black"/>
<defs>
<clipPath id="clip0_573_1872">
<rect width="537.999" height="472.788" fill="white" transform="translate(0 34)"/>
</clipPath>
</defs>
</svg>
